<?xml version="1.0" encoding="UTF-8"?>
<svg id="Layer_1" data-name="Layer 1" xmlns="http://www.w3.org/2000/svg" viewBox="0 0 788 444">
  <defs>
    <style>
      .cls-1, .cls-2 {
        stroke-width: 0px;
      }

      .cls-2 {
        fill: #e6e6e6;
      }
    </style>
  </defs>
  <rect class="cls-2" width="788" height="444"/>
  <path class="cls-1" d="m511.24,281.51c.55,1.93.98,3.88,1.29,5.81s.48,3.95.48,6.04c0,1.55-.12,3.07-.36,4.52s-.69,2.95-1.4,4.43c-.79,1.62-2.09,3.47-3.95,5.57s-4.07,4.33-6.62,6.73-5.31,4.69-8.26,6.85-5.88,4.19-8.83,6.04c-2.95,1.86-5.69,3.33-8.26,4.43s-4.76,1.62-6.62,1.62c-3.47,0-6.71-.86-9.64-2.55s-5.74-3.57-8.38-5.57c-1.86-1.4-3.95-2.97-6.28-4.76s-4.69-3.69-7.09-5.69-4.52-4.12-6.4-6.28-3.45-4.31-4.76-6.4c-1.62-2.86-2.45-6.04-2.45-9.52,0-2.02.24-3.9.69-5.69s1.05-3.64,1.74-5.57h85.1v-.02h0Zm-13.71,14.87h-57.52c.93,1.09,1.86,2.14,2.78,3.14s1.93,2.02,3.02,3.02c.55.55,1.4,1.29,2.55,2.21s2.48,2.02,3.95,3.26,3.02,2.48,4.64,3.71,3.21,2.36,4.76,3.38,2.95,1.86,4.19,2.55,2.17,1.05,2.78,1.05,1.71-.43,3.26-1.29,3.28-1.98,5.24-3.38,4.02-2.95,6.28-4.64,4.31-3.38,6.16-5,3.52-3.17,5-4.64,2.43-2.59,2.9-3.38h0Zm-85.2-11.61c-2.78,2.17-6.16,4.76-10.11,7.78-3.95,3.02-8.07,5.93-12.33,8.71-4.26,2.78-8.59,5.14-13.02,7.09-4.43,1.95-8.38,2.9-11.95,2.9-2.55,0-5.12-.36-7.66-1.05s-5.12-1.62-7.66-2.78-4.95-2.45-7.21-3.83c-2.26-1.38-4.43-2.86-6.5-4.43-1.09-.79-2.21-1.67-3.38-2.67s-2.36-1.86-3.59-2.55c-1.78-1-3.71-1.9-5.81-2.67s-4.12-1.59-6.04-2.45c-3.4-1.62-6.9-3.4-10.45-5.35s-7.04-4.14-10.45-6.62c-3.4-2.47-6.47-5.19-9.19-8.14s-5.05-6.12-6.97-9.52c-1.71-3.26-2.95-6.59-3.71-10s-1.24-6.97-1.31-10.71c0-3.95.43-8.02,1.29-12.21.86-4.19,2.09-8.09,3.71-11.73h32.2v-14.87h-7.45c-2.09,0-4.02-.38-5.81-1.17s-3.33-1.81-4.64-3.14-2.4-2.88-3.26-4.74-1.24-3.81-1.17-5.81c0-2.24.55-4.45,1.62-6.62l14.87-29.75c1.31-2.55,3.14-4.57,5.45-6.04s4.93-2.21,7.78-2.21,5.54.74,7.78,2.21,4.07,3.47,5.45,6.04l14.87,29.75c1.09,2.17,1.62,4.38,1.62,6.62,0,1.93-.36,3.76-1.05,5.45s-1.71,3.26-3.02,4.64-2.76,2.48-4.31,3.26-3.38,1.29-5.45,1.5c-.48.07-.93.12-1.4.12h-4.31c-.93,0-1.86-.05-2.78-.12v14.87h52.07v-22.3h-14.83c-2.02,0-3.9-.38-5.69-1.17s-3.38-1.81-4.76-3.14-2.48-2.9-3.26-4.76-1.17-3.81-1.17-5.81.38-4.02,1.17-5.81l22.32-52.07c1.17-2.78,2.97-5,5.45-6.62s5.24-2.45,8.26-2.45,5.78.81,8.26,2.45c2.48,1.62,4.31,3.83,5.45,6.62l22.32,52.07c.79,1.78,1.17,3.71,1.17,5.81,0,1.93-.36,3.76-1.05,5.45s-1.71,3.26-3.02,4.64-2.76,2.48-4.31,3.26-3.38,1.29-5.45,1.5c-.86.07-1.71.12-2.55.12h-8.02c-1.71,0-3.47-.05-5.35-.12v22.32h56.02c1,4.19,1.81,8.38,2.45,12.54s.98,8.45,1.05,12.78c0,6.9-1,12.73-3.02,17.54s-4.81,8.9-8.38,12.33-7.9,6.28-13.02,8.59c-5.12,2.31-10.73,4.47-16.78,6.43h0Zm-48.1-107.38h44.62l-22.3-52.05-22.32,52.05h0Zm-59.5,7.45h29.75l-14.87-29.75-14.87,29.75Zm133.86,55.31c0-.55-.05-1.29-.12-2.21s-.17-1.86-.24-2.78-.19-1.9-.36-2.9-.19-1.74-.12-2.21v-.57h-146.86c-.38,1.4-.67,2.86-.81,4.43s-.24,3.07-.24,4.52c0,3.95.67,7.54,1.98,10.8s3.14,6.19,5.45,8.83,5,5,8.02,7.09c3.02,2.09,6.16,4.07,9.42,5.93s6.62,3.47,10.11,4.88c3.5,1.4,6.71,2.78,9.64,4.19.69.31,1.36.67,1.98,1.05.62.38,1.24.81,1.86,1.29,1.62,1.24,3.52,2.67,5.69,4.31s4.45,3.14,6.85,4.52,4.81,2.59,7.21,3.59,4.69,1.5,6.85,1.5c1.4,0,3.14-.43,5.24-1.29s4.38-2.02,6.85-3.47,5-3.02,7.54-4.64,5-3.38,7.33-5.24c2.33-1.86,4.5-3.45,6.5-4.76s3.57-2.55,4.64-3.71c.79-.62,1.55-1.12,2.33-1.5s1.62-.79,2.55-1.17c2.24-.79,4.74-1.67,7.43-2.67s5.38-2.17,8.02-3.47,5.07-2.83,7.33-4.52,4-3.69,5.24-5.93c1.09-1.93,1.78-4.14,2.09-6.62s.52-4.95.59-7.26h0Z"/>
</svg>