<?xml version="1.0" encoding="utf-8"?>
<!-- Generator: Adobe Illustrator 26.3.1, SVG Export Plug-In . SVG Version: 6.00 Build 0)  -->
<svg version="1.1" id="Layer_1" xmlns="http://www.w3.org/2000/svg" xmlns:xlink="http://www.w3.org/1999/xlink" x="0px" y="0px"
	 viewBox="0 0 788 444" style="enable-background:new 0 0 788 444;" xml:space="preserve">
<style type="text/css">
	.st0{fill:#E6E6E6;}
</style>
<rect class="st0" width="788" height="444"/>
<path d="M483.1,292.8c2.5,1.1,4.6,2.8,6.1,5.1s2.3,4.9,2.4,7.7v13.9c0,2-0.4,3.8-1.1,5.4s-1.7,3.1-2.9,4.4s-2.7,2.3-4.5,3
	s-3.6,1.2-5.4,1.1h-55.7c-2,0-3.8-0.4-5.4-1.1c-1.7-0.7-3.1-1.7-4.4-2.9c-1.2-1.2-2.3-2.7-3-4.5c-0.8-1.7-1.2-3.6-1.1-5.4
	c0,2-0.4,3.8-1.1,5.4c-0.7,1.7-1.7,3.1-2.9,4.4c-1.2,1.2-2.7,2.3-4.5,3c-1.7,0.8-3.6,1.2-5.4,1.1h-83.6c-2,0-3.8-0.4-5.4-1.1
	c-1.7-0.7-3.1-1.7-4.4-2.9c-1.2-1.2-2.3-2.7-3-4.5c-0.8-1.7-1.2-3.6-1.1-5.4v-13.9c0-2,0.4-3.8,1.1-5.4c0.7-1.7,1.7-3.1,2.9-4.4
	c1.2-1.2,2.7-2.3,4.5-3c1.7-0.8,3.6-1.2,5.4-1.1h3c0-0.9,0.1-1.9,0.3-2.7l12-60c-2.2,0-4.1-0.5-5.8-1.5c-1.7-1-2.5-2.8-2.6-5.4
	c0-1.7,0.5-3.1,1.5-4.4s2.4-2.1,4.1-2.5c-0.2-1.2-0.5-2.3-0.8-3.5c-0.3-1.2-0.4-2.4-0.4-3.7c0-0.9,0.1-1.9,0.3-2.7
	c-2.9-2.1-4.7-5-5.3-8.7l-3.6-20.9c-0.1-0.4-0.1-0.8-0.1-1.2c0-0.4,0-0.8-0.1-1.2c0-1.7,0.3-3.4,1-5.1c0.7-1.7,1.6-3.1,2.7-4.4
	s2.5-2.3,4-3.2c1.5-0.9,3.2-1.3,5.1-1.3h7.9c-3-2.6-5.4-5.7-7-9.4c-1.6-3.6-2.4-7.5-2.5-11.5c0-3.8,0.7-7.4,2.2-10.8
	c1.5-3.3,3.4-6.3,6-8.9s5.5-4.6,8.8-6c3.3-1.4,7-2.1,10.9-2.2c3.8,0,7.4,0.7,10.8,2.2c3.3,1.5,6.3,3.4,8.9,6c2.6,2.5,4.6,5.5,6,8.8
	c1.4,3.3,2.1,7,2.2,10.9c0,4-0.8,7.8-2.4,11.4c-1.6,3.6-4,6.8-7.1,9.5h2.5c0.9,0,1.7,0,2.6-0.1c1.5,0,2.8,0.1,4.1,0.3
	c3.3,0.6,6.1,2.1,8.3,4.7c2.2,2.5,3.3,5.6,3.4,9c0,0.4,0,0.8-0.1,1.2c-0.1,0.4-0.1,0.8-0.2,1.2l-3.6,20.9c-0.7,3.7-2.4,6.6-5.3,8.7
	c0.2,0.9,0.3,1.8,0.3,2.8c0,1.2-0.1,2.3-0.4,3.5c-0.3,1.2-0.5,2.4-0.8,3.6c1.7,0.4,3,1.2,4,2.4c1,1.2,1.6,2.7,1.6,4.5
	c0,2.5-0.8,4.3-2.5,5.3c-1.7,1-3.6,1.6-5.9,1.6l12,60c0.2,0.9,0.3,1.8,0.3,2.7h3c2,0,3.8,0.4,5.4,1.1c1.7,0.7,3.1,1.7,4.4,2.9
	c1.2,1.2,2.3,2.7,3,4.5c0.8,1.7,1.2,3.6,1.1,5.4c0-2.8,0.8-5.3,2.3-7.6s3.6-4.1,6.2-5.2v-0.5c0-0.2,0-0.4-0.1-0.5V291
	c0-0.2,0-0.5,0.1-0.8l4-40.5c-1.6-0.4-2.9-1.2-3.9-2.4c-1-1.2-1.6-2.7-1.6-4.5c0-1.7,0.3-3,1-3.9c0.7-0.9,1.5-1.6,2.5-2.1
	s2.1-0.7,3.4-0.8c1.2-0.1,2.5-0.1,3.8-0.2c-2.5-4.4-3.7-9-3.7-13.9c0-3.8,0.7-7.4,2.2-10.8c1.5-3.3,3.4-6.3,6-8.9s5.5-4.6,8.8-6
	s7-2.1,10.9-2.2c3.8,0,7.4,0.7,10.8,2.2c3.3,1.5,6.3,3.4,8.9,6c2.6,2.5,4.6,5.5,6,8.8c1.4,3.3,2.1,7,2.2,10.9
	c0,4.9-1.2,9.6-3.7,13.9c1.2,0,2.5,0,3.7,0.1s2.4,0.4,3.5,0.9c1.1,0.5,1.9,1.2,2.5,2.1c0.6,0.9,0.9,2.2,1,3.9c0,1.7-0.5,3.1-1.5,4.4
	c-1,1.2-2.4,2.1-4,2.5l4,40.5v0.7c0,0.2,0,0.4,0.1,0.7v0.5C483.2,292.3,483.1,292.6,483.1,292.8z M352.2,124.4c-2,0-3.8,0.4-5.4,1.1
	s-3.1,1.7-4.4,2.9c-1.2,1.2-2.3,2.7-3,4.5c-0.8,1.7-1.2,3.6-1.1,5.4c0,2,0.4,3.8,1.1,5.4c0.7,1.7,1.7,3.1,2.9,4.4
	c1.2,1.2,2.7,2.3,4.5,3c1.7,0.8,3.6,1.2,5.4,1.1c2,0,3.8-0.4,5.4-1.1c1.7-0.7,3.1-1.7,4.4-2.9c1.2-1.2,2.3-2.7,3-4.5
	s1.2-3.6,1.1-5.4c0-2-0.4-3.8-1.1-5.4c-0.7-1.7-1.7-3.1-2.9-4.4c-1.2-1.2-2.7-2.3-4.5-3S354.1,124.4,352.2,124.4z M326.9,173.2
	c0.6,3.5,1.1,7,1.6,10.5s1.2,7,2,10.5l7,5.3l-1.7,8.6l1.4,7h30.1l1.4-7l-1.7-8.6l7-5.3l3.6-20.9H326.9z M377,291.7L364.5,229h-24.6
	l-12.5,62.7H377z M394,319.6v-13.9h-83.6v13.9H394z M449.8,208.1c-2,0-3.8,0.4-5.4,1.1c-1.7,0.7-3.1,1.7-4.4,2.9
	c-1.2,1.2-2.3,2.7-3,4.5c-0.8,1.7-1.2,3.6-1.1,5.4c0,2,0.4,3.8,1.1,5.4c0.7,1.7,1.7,3.1,2.9,4.4c1.2,1.2,2.7,2.3,4.5,3
	c1.7,0.8,3.6,1.2,5.4,1.1c2,0,3.8-0.4,5.4-1.1s3.1-1.7,4.4-2.9c1.2-1.2,2.3-2.7,3-4.5c0.8-1.7,1.2-3.6,1.1-5.4c0-2-0.4-3.8-1.1-5.4
	c-0.7-1.7-1.7-3.1-2.9-4.4s-2.7-2.3-4.5-3C453.5,208.3,451.6,208,449.8,208.1z M434.5,249.9l-4.2,41.8h39l-4.2-41.8H434.5z
	 M477.6,319.6v-13.9h-55.7v13.9H477.6z"/>
</svg>
