<?xml version="1.0" encoding="utf-8"?>
<!-- Generator: Adobe Illustrator 26.3.1, SVG Export Plug-In . SVG Version: 6.00 Build 0)  -->
<svg version="1.1" id="Layer_1" xmlns="http://www.w3.org/2000/svg" xmlns:xlink="http://www.w3.org/1999/xlink" x="0px" y="0px"
	 viewBox="0 0 72 56" style="enable-background:new 0 0 72 56;" xml:space="preserve">
<style type="text/css">
	.st0{fill:#FFFFFF;}
	.st1{fill-rule:evenodd;clip-rule:evenodd;fill:#107C10;}
</style>
<rect class="st0" width="72" height="56"/>
<path class="st1" d="M52.3,6.6H34.9l-1.2,0.5L11.3,29.5v2.4l17.4,17.4h2.4l7.5-7.5c7.4,3.9,16.5,1.1,20.4-6.3
	c0.9-1.7,1.5-3.5,1.7-5.4c0.1-0.6,0.1-1.1,0.2-1.7c0-5.1-2.5-9.8-6.7-12.6V8.3L52.3,6.6L52.3,6.6z M50.6,14.2
	c-1.6-0.6-3.3-0.9-5-0.9c-0.9,0-1.7,0.8-1.7,1.7s0.8,1.7,1.7,1.7c1.7,0,3.5,0.4,5,1.1v7.2L37.4,38.3c-0.3,0.2-0.6,0.4-0.7,0.7
	l-6.8,6.8L14.8,30.7L35.6,10h15.1V14.2z M54,20.3c2.2,2.2,3.4,5.2,3.4,8.2c0,0.6-0.1,1.1-0.2,1.7c-0.9,6.4-6.8,10.9-13.2,10
	c-1-0.1-2-0.4-2.9-0.8l12.4-12.4l0.5-1.2C54,25.8,54,20.3,54,20.3z"/>
</svg>
