<?xml version="1.0" encoding="utf-8"?>
<!-- Generator: Adobe Illustrator 26.3.1, SVG Export Plug-In . SVG Version: 6.00 Build 0)  -->
<svg version="1.1" id="Layer_1" xmlns="http://www.w3.org/2000/svg" xmlns:xlink="http://www.w3.org/1999/xlink" x="0px" y="0px"
	 viewBox="0 0 788 444" style="enable-background:new 0 0 788 444;" xml:space="preserve">
<style type="text/css">
	.st0{fill:#E6E6E6;}
</style>
<rect class="st0" width="788" height="444"/>
<path d="M499.4,291.6c0,1.9-0.7,3.5-2.1,4.9l-29.5,29.6c-1.4,1.4-3,2.1-5,2.1c-1.9,0-3.5-0.7-4.9-2.1l-35.1-35.1l-19.2,19.2
	c-1.4,1.4-3,2.1-5,2.1c-1.9,0-3.5-0.7-4.8-2s-2-2.9-2.1-4.9c0-2,0.7-3.7,2-5l10.3-10.3L290.7,177.3c-1.4-1.4-2.1-3-2.1-4.9v-49.7
	c0-1.9,0.7-3.5,2.1-4.9c1.4-1.4,3-2.1,4.9-2.1h48.3c1.9,0,3.5,0.7,4.9,2.1l114.1,113.5l9.8-9.7c1.4-1.4,3-2.1,5-2.1
	c1.9,0,3.5,0.7,4.8,2.1c1.3,1.4,2,3,2.1,4.9c0,1.9-0.7,3.5-2.1,4.9l-20.3,20.3l35.1,35.1C498.7,288.1,499.4,289.7,499.4,291.6z
	 M413.9,280.2l14.5-14.4L358,195.4c-1.4-1.4-2.1-3-2.1-5c0-1.9,0.7-3.5,2.1-4.9c1.4-1.4,3-2.1,4.9-2.1c1.9,0,3.5,0.7,4.9,2.1
	l70.4,70.4l14.8-14.7L341,129.7h-38.4v39.7L413.9,280.2z M462.8,311.3l19.8-19.7l-30.1-29.9l-19.7,19.7L462.8,311.3z"/>
</svg>
