<?xml version="1.0" encoding="utf-8"?>
<!-- Generator: Adobe Illustrator 26.3.1, SVG Export Plug-In . SVG Version: 6.00 Build 0)  -->
<svg version="1.1" id="Layer_1" xmlns="http://www.w3.org/2000/svg" xmlns:xlink="http://www.w3.org/1999/xlink" x="0px" y="0px"
	 viewBox="0 0 788 444" style="enable-background:new 0 0 788 444;" xml:space="preserve">
<style type="text/css">
	.st0{fill:#E6E6E6;}
</style>
<rect class="st0" width="788" height="444"/>
<path d="M394,117.5c9.6,0,18.8,1.2,27.7,3.7c8.9,2.5,17.2,6,25,10.6c7.8,4.6,14.9,10,21.1,16.3c6.2,6.3,11.7,13.4,16.3,21.2
	c4.6,7.8,8.2,16.2,10.6,24.9c2.4,8.8,3.7,18,3.8,27.8c0,9.6-1.2,18.8-3.7,27.7c-2.5,8.9-6,17.2-10.6,25c-4.6,7.8-10,14.9-16.3,21.1
	c-6.3,6.2-13.4,11.7-21.2,16.3c-7.8,4.6-16.2,8.2-24.9,10.6c-8.8,2.4-18,3.7-27.8,3.8c-9.6,0-18.8-1.2-27.7-3.7
	c-8.9-2.5-17.2-6-25-10.6c-7.8-4.6-14.9-10-21.1-16.3c-6.2-6.3-11.7-13.4-16.3-21.2c-4.6-7.8-8.2-16.2-10.6-24.9
	c-2.4-8.8-3.7-18-3.8-27.8c0-9.6,1.2-18.8,3.7-27.7c2.5-8.9,6-17.2,10.6-25c4.6-7.8,10-14.9,16.3-21.1c6.3-6.2,13.4-11.7,21.2-16.3
	c7.8-4.6,16.2-8.2,24.9-10.6S384.3,117.6,394,117.5z M394,312.6c8.3,0,16.4-1.1,24.1-3.3c7.7-2.2,14.9-5.2,21.6-9.1
	c6.7-3.9,12.8-8.6,18.4-14.2c5.6-5.5,10.3-11.6,14.2-18.3c3.8-6.7,6.9-13.9,9.1-21.7c2.3-7.8,3.3-15.8,3.3-24.1
	c0-8.3-1.1-16.4-3.3-24.1c-2.2-7.7-5.2-14.9-9.1-21.6c-3.9-6.7-8.6-12.8-14.2-18.4c-5.5-5.6-11.6-10.3-18.3-14.2
	c-6.7-3.8-13.9-6.9-21.7-9.1s-15.8-3.3-24.1-3.3c-8.3,0-16.4,1.1-24.1,3.3c-7.7,2.2-14.9,5.2-21.6,9.1c-6.7,3.9-12.8,8.6-18.4,14.2
	c-5.6,5.5-10.3,11.6-14.2,18.3s-6.9,13.9-9.1,21.7c-2.3,7.8-3.3,15.8-3.3,24.1c0,8.3,1.1,16.4,3.3,24.1c2.2,7.7,5.2,14.9,9.1,21.6
	c3.9,6.7,8.6,12.8,14.2,18.4c5.5,5.6,11.6,10.3,18.3,14.2c6.7,3.8,13.9,6.9,21.7,9.1C377.7,311.6,385.7,312.7,394,312.6z
	 M412.7,212.9c1.5,2.9,2.2,6,2.2,9.1c0,2.9-0.5,5.6-1.6,8.2c-1.1,2.5-2.6,4.8-4.5,6.6c-1.9,1.9-4.1,3.4-6.6,4.5s-5.3,1.6-8.2,1.6
	s-5.6-0.5-8.2-1.6s-4.8-2.6-6.6-4.5c-1.9-1.9-3.4-4.1-4.5-6.6c-1.1-2.5-1.6-5.3-1.6-8.2s0.5-5.6,1.6-8.2c1.1-2.5,2.6-4.8,4.5-6.6
	c1.9-1.9,4.1-3.4,6.6-4.5s5.3-1.6,8.2-1.6c3.2,0,6.2,0.7,9.1,2.2l-0.1-0.1l40.1-40.1l9.8,9.8L412.8,213L412.7,212.9z M394,229
	c1.9,0,3.5-0.7,4.9-2.1c1.4-1.4,2.1-3,2.1-4.9s-0.7-3.5-2.1-4.9c-1.4-1.4-3-2.1-4.9-2.1s-3.5,0.7-4.9,2.1c-1.4,1.4-2.1,3-2.1,4.9
	s0.7,3.5,2.1,4.9C390.5,228.3,392.1,229,394,229z M463.7,190.6c2.3,4.9,3.9,10,5,15.2c1.1,5.2,1.7,10.6,1.7,16.1
	c0,10.2-1.9,19.9-5.7,29.3c-3.8,9.4-9.3,17.7-16.6,24.9l-9.9-9.9c5.9-5.9,10.4-12.6,13.6-20.1c3.2-7.5,4.8-15.5,4.8-23.8
	c0-9-1.9-17.7-5.7-26L463.7,190.6z M419.7,164.9c-8.3-3.8-17-5.7-26-5.7c-5.7,0-11.3,0.7-16.6,2.2c-5.3,1.5-10.3,3.6-14.9,6.4
	c-4.6,2.8-8.9,6.1-12.6,9.8c-3.8,3.7-7,7.9-9.7,12.7s-4.8,9.8-6.3,14.9c-1.5,5.2-2.3,10.7-2.3,16.7c0,8.3,1.6,16.3,4.8,24
	s7.7,14.4,13.6,20.4l-9.9,9.9c-7.3-7.3-12.8-15.5-16.7-24.8c-3.8-9.3-5.8-19.1-5.8-29.4c0-7,0.9-13.8,2.7-20.4
	c1.8-6.5,4.4-12.6,7.7-18.3s7.3-10.8,12-15.5c4.6-4.6,9.8-8.6,15.5-11.9c5.7-3.3,11.8-5.8,18.3-7.7c6.5-1.9,13.4-2.8,20.5-2.7
	c5.4,0,10.8,0.5,16,1.6c5.2,1.1,10.3,2.8,15.4,5.1L419.7,164.9z"/>
</svg>
