<?xml version="1.0" encoding="utf-8"?>
<!-- Generator: Adobe Illustrator 26.3.1, SVG Export Plug-In . SVG Version: 6.00 Build 0)  -->
<svg version="1.1" id="Layer_1" xmlns="http://www.w3.org/2000/svg" xmlns:xlink="http://www.w3.org/1999/xlink" x="0px" y="0px"
	 viewBox="0 0 788 444" style="enable-background:new 0 0 788 444;" xml:space="preserve">
<style type="text/css">
	.st0{fill:#E6E6E6;}
</style>
<rect class="st0" width="788" height="444"/>
<path d="M446.3,195.7c-4.4,0-8.4-0.8-12.2-2.4c-3.8-1.6-7.1-3.8-10-6.8c-2.9-2.9-5.1-6.2-6.6-9.9s-2.4-7.8-2.5-12.3
	c0-4.4,0.8-8.4,2.4-12.2c1.6-3.8,3.8-7.1,6.8-10c2.9-2.9,6.2-5.1,9.9-6.6s7.8-2.4,12.3-2.5c4.4,0,8.4,0.8,12.2,2.4
	c3.8,1.6,7.1,3.8,10,6.8c2.9,2.9,5.1,6.2,6.6,9.9s2.4,7.8,2.5,12.3c0,4.4-0.8,8.4-2.4,12.2c-1.6,3.8-3.8,7.1-6.8,10
	c-2.9,2.9-6.2,5.1-9.9,6.6S450.8,195.5,446.3,195.7z M446.3,145.5c-2.6,0-5,0.5-7.3,1.4c-2.3,0.9-4.2,2.3-6,4c-1.7,1.7-3.1,3.7-4,6
	c-0.9,2.3-1.5,4.7-1.5,7.4c0,2.6,0.5,5,1.4,7.3c0.9,2.3,2.3,4.2,4,6c1.7,1.7,3.7,3.1,6,4c2.3,0.9,4.7,1.5,7.4,1.5
	c2.6,0,5-0.5,7.3-1.4c2.3-0.9,4.2-2.3,6-4c1.7-1.7,3.1-3.7,4-6c0.9-2.3,1.5-4.7,1.5-7.4c0-2.6-0.5-5-1.4-7.3c-0.9-2.3-2.3-4.2-4-6
	c-1.7-1.7-3.7-3.1-6-4C451.4,146,448.9,145.5,446.3,145.5z M323.7,266.6c0,1.6,0.1,3.2,0.3,4.7c-4.3-0.9-8.4-2.2-12.4-3.9
	c-4-1.7-7.7-4-11-6.6c-3.3-2.7-6.4-5.7-9-9s-4.8-7.1-6.3-11.3c-0.8-1.9-1.5-4-2-6.2c-0.5-2.3-0.8-4.5-0.8-6.6v-7.4
	c0-2,0.4-4.1,1.2-6.1s1.9-3.9,3.3-5.7c1.4-1.7,3-3.1,4.9-4.1c1.9-1,3.9-1.6,6.1-1.6h56.6c-0.8,2.3-1.3,4.6-1.6,6.9
	c-0.3,2.3-0.5,4.6-0.8,7.1h-52.9c-0.9,0-1.6,0.4-2.1,1.2c-0.4,0.8-0.7,1.6-0.8,2.4v5.9c0,3.9,0.8,7.5,2.3,10.9s3.6,6.3,6.2,8.9
	c2.6,2.6,5.6,4.9,8.8,6.8s6.7,3.3,10.2,4.2c-0.2,1-0.3,2-0.3,2.8V266.6z M505.5,218.8v7.2c0,5.9-1.1,11.3-3.4,16.3
	c-2.3,5-5.3,9.5-9.1,13.4s-8.3,7.2-13.3,9.8c-5,2.6-10.2,4.5-15.7,5.8l0.2-1.5c0.1-0.5,0.1-1.1,0.1-1.6v-7.1c0-0.7,0-1.4-0.1-2.1
	c-0.1-0.7-0.2-1.4-0.3-2.2c2.8-0.8,5.6-1.9,8.3-3.2c2.7-1.3,5.2-2.9,7.6-4.8c2.4-1.9,4.4-4,6.1-6.4c1.7-2.4,3.1-5,4.2-7.9
	c0.4-1,0.7-2.2,1-3.5c0.3-1.3,0.4-2.5,0.4-3.7v-7.2c0-0.8-0.2-1.6-0.7-2.4c-0.4-0.8-1.2-1.2-2.2-1.2h-52.9c0-2.5-0.2-4.8-0.7-7.1
	c-0.4-2.3-1-4.5-1.7-6.9h55.3c2.1,0,4.2,0.4,6.2,1.3c2,0.9,3.8,2,5.3,3.5s2.8,3.2,3.8,5.2S505.6,216.7,505.5,218.8z M341.7,195.7
	c-4.4,0-8.4-0.8-12.2-2.4c-3.8-1.6-7.1-3.8-10-6.8c-2.9-2.9-5.1-6.2-6.6-9.9s-2.4-7.8-2.5-12.3c0-4.4,0.8-8.4,2.4-12.2
	c1.6-3.8,3.8-7.1,6.8-10c2.9-2.9,6.2-5.1,9.9-6.6s7.8-2.4,12.3-2.5c4.4,0,8.4,0.8,12.2,2.4c3.8,1.6,7.1,3.8,10,6.8
	c2.9,2.9,5.1,6.2,6.6,9.9s2.4,7.8,2.5,12.3c0,4.4-0.8,8.4-2.4,12.2c-1.6,3.8-3.8,7.1-6.8,10c-2.9,2.9-6.2,5.1-9.9,6.6
	S346.2,195.5,341.7,195.7z M341.7,145.5c-2.6,0-5,0.5-7.3,1.4c-2.3,0.9-4.2,2.3-6,4c-1.7,1.7-3.1,3.7-4,6c-0.9,2.3-1.5,4.7-1.5,7.4
	c0,2.6,0.5,5,1.4,7.3c0.9,2.3,2.3,4.2,4,6c1.7,1.7,3.7,3.1,6,4c2.3,0.9,4.7,1.5,7.4,1.5c2.6,0,5-0.5,7.3-1.4s4.2-2.3,6-4
	c1.7-1.7,3.1-3.7,4-6c0.9-2.3,1.5-4.7,1.5-7.4c0-2.6-0.5-5-1.4-7.3c-0.9-2.3-2.3-4.2-4-6c-1.7-1.7-3.7-3.1-6-4
	S344.4,145.5,341.7,145.5z M449.7,261.1v2.1c0,2.3-0.1,4.4-0.2,6.5c-0.1,2.1-0.5,4.2-1.1,6.4c-1.7,6-4.4,11.1-8.1,15.5
	s-8.1,8-13.1,10.9c-5,2.9-10.3,5-16,6.4s-11.4,2.1-17.3,2.2c-5.4,0-10.7-0.5-15.9-1.6c-5.2-1.1-10.1-2.9-14.7-5.3
	c-4.6-2.5-8.7-5.5-12.5-9.1c-3.8-3.6-6.9-8-9.3-13.2c-2.3-4.9-3.4-9.9-3.4-15.1v-5.6c0-2.3,0.4-4.5,1.3-6.5c0.9-2,2.1-3.8,3.6-5.2
	s3.3-2.6,5.3-3.6c2-0.9,4.2-1.4,6.5-1.3h38.8c-4-0.1-7.7-0.9-11-2.4c-3.3-1.5-6.3-3.6-8.8-6.3c-2.5-2.7-4.5-5.7-5.8-9
	c-1.3-3.3-2-7-2.1-11.1c0-0.4,0-0.7,0.1-1c0.1-0.3,0.1-0.7,0.2-1.1c0.5-3.6,1.5-6.8,3-9.8c1.5-3,3.5-5.6,6-7.8
	c2.5-2.3,5.2-4,8.3-5.2c3-1.2,6.5-1.9,10.2-2c3.8,0,7.3,0.7,10.7,2.2s6.3,3.5,8.9,6.1c2.6,2.6,4.6,5.6,6,8.8
	c1.4,3.3,2.1,6.9,2.3,10.8c0,3.6-0.7,7-2.1,10.3c-1.4,3.3-3.3,6.3-5.9,8.9c-2.5,2.6-5.4,4.7-8.5,6.2c-3.1,1.5-6.6,2.3-10.3,2.4h-0.9
	h38.9c2.3,0,4.4,0.4,6.4,1.3c2,0.9,3.8,2.1,5.3,3.6s2.7,3.3,3.6,5.3C449.3,256.7,449.7,258.8,449.7,261.1z M394,231.9
	c2.1,0,4.1-0.4,5.9-1.2s3.4-1.9,4.9-3.3c1.5-1.4,2.6-3,3.4-4.9c0.8-1.9,1.2-3.9,1.2-6s-0.4-4.1-1.2-6c-0.8-1.9-1.9-3.5-3.3-4.9
	c-1.4-1.4-3-2.5-4.9-3.3c-1.9-0.8-3.9-1.2-6-1.2c-2.1,0-4.1,0.4-6,1.2c-1.9,0.8-3.5,1.9-4.9,3.3c-1.4,1.4-2.5,3-3.3,4.9
	c-0.8,1.9-1.2,3.9-1.2,6s0.4,4.1,1.2,5.9s1.9,3.4,3.3,4.9c1.4,1.5,3,2.6,4.9,3.4S391.9,231.9,394,231.9z M435.8,261.1v-0.4
	c0-0.1,0-0.3-0.1-0.4c-0.5-1.2-1.4-1.9-2.6-1.9h-78.2c-0.6,0-1.2,0.2-1.7,0.7c-0.6,0.4-0.9,1-1,1.6v6c0,1.4,0.1,2.7,0.4,3.9
	c0.3,1.2,0.7,2.5,1.2,3.8c1.5,4,3.7,7.4,6.5,10.2c2.8,2.8,6.1,5.2,9.8,7.1s7.6,3.2,11.7,4c4.1,0.8,8.1,1.2,12.2,1.3
	c4.1,0,8.1-0.4,12.2-1.2c4.1-0.8,7.9-2.1,11.5-4c3.6-1.9,6.9-4.2,9.7-7.1c2.8-2.8,5.1-6.3,6.8-10.3c0.4-0.9,0.7-1.9,1.1-3.2
	c0.4-1.2,0.5-2.4,0.5-3.4V261.1z"/>
</svg>
