<?xml version="1.0" encoding="utf-8"?>
<!-- Generator: Adobe Illustrator 26.3.1, SVG Export Plug-In . SVG Version: 6.00 Build 0)  -->
<svg version="1.1" id="Layer_1" xmlns="http://www.w3.org/2000/svg" xmlns:xlink="http://www.w3.org/1999/xlink" x="0px" y="0px"
	 viewBox="0 0 788 444" style="enable-background:new 0 0 788 444;" xml:space="preserve">
<style type="text/css">
	.st0{fill:#E6E6E6;}
</style>
<rect class="st0" width="788" height="444"/>
<path d="M364.4,246.4c-1.7,0-3.1-0.5-4.4-1.5c-1.2-1-2.3-2.4-3.2-4.1c-0.9-1.7-1.6-3.6-2.3-5.6c-0.7-2-1.1-4-1.4-6.2
	c-0.3-2.2-0.5-4.1-0.8-5.9c-0.2-1.7-0.3-3.2-0.2-4.5c0-1.8,0.1-4,0.3-6.6c0.2-2.6,0.7-5.2,1.4-7.8c0.7-2.6,1.6-5.1,2.6-7.4
	c1-2.3,2.4-4,4.1-5c-0.6-2.5-1-4.9-1.2-7.4c-0.2-2.5-0.3-5-0.3-7.6c0-1.2,0-2.6,0.1-4.5c0.1-1.8,0.3-3.7,0.5-5.8
	c0.3-2,0.7-4.1,1.1-6.2c0.4-2.1,1.1-4,2-5.7c0.9-1.7,1.9-3,3-4.1c1.2-1.1,2.6-1.6,4.2-1.6H387V121c0-1.9,0.7-3.5,2.1-4.9
	c1.4-1.4,3-2.1,4.9-2.1c0.9,0,1.5,0.1,2,0.4c0.4,0.3,1.1,0.5,1.9,0.8l45,13.5L401,140v8.8h13.9c1.9,0,3.5,0.7,4.9,2.1
	c1.4,1.4,2.1,3,2.1,4.9c0,0.8-0.1,1.6-0.4,2.3c-0.3,0.7-0.7,1.4-1.1,2.1c-0.8,1.1-1.4,2.3-1.9,3.7c-0.4,1.4-0.8,2.8-1.1,4.2
	c-0.3,1.5-0.5,2.9-0.5,4.5c-0.1,1.5-0.1,2.9-0.1,4.2c0,2.2,0.1,4.5,0.4,7s0.8,4.8,1.6,6.9c1.2,0,2.4,0.1,3.6,0.2s2.3,0.4,3.3,0.9
	s1.8,1.1,2.3,2.1s0.8,2.2,0.9,3.8c0,1.8-0.7,3.5-2.1,5c-1.9,2.1-3.1,4.6-3.6,7.5c-0.5,2.9-0.8,5.7-0.9,8.5c0,1.1,0,2.3,0.1,3.7
	c0.1,1.4,0.3,2.8,0.7,4.1s0.7,2.7,1.1,3.9c0.4,1.2,1,2.3,1.9,3.3c0.8,1,1.5,1.9,2,2.6s0.8,1.8,0.9,3.2c0,2-0.7,3.6-2,4.9
	c-1.3,1.3-3,2-5,2.1H364.4z M374.6,162.9c-0.7,2.3-1.1,4.5-1.2,6.9c-0.1,2.3-0.3,4.6-0.3,7c0,2.3,0.1,4.6,0.2,7
	c0.1,2.3,0.6,4.6,1.3,6.9l0.1,0.1h29.7c-0.3-0.7-0.5-1.7-0.8-2.9c-0.2-1.2-0.4-2.5-0.4-3.8c-0.1-1.3-0.2-2.6-0.3-3.8
	s-0.2-2.3-0.1-3.3c0-2.3,0.1-4.7,0.3-7.1c0.2-2.4,0.7-4.7,1.3-7h-29.7L374.6,162.9z M366.1,218.5c0,2.2,0.1,4.5,0.4,7.1
	c0.3,2.5,0.9,4.8,1.7,6.9h42c-0.4-0.5-0.7-1.4-0.9-2.6c-0.2-1.2-0.4-2.6-0.7-4c-0.2-1.5-0.3-2.8-0.3-4.1c0-1.3-0.1-2.3-0.2-3
	c0-2.2,0.1-4.5,0.4-7.1c0.3-2.5,0.8-4.9,1.6-7h-42c-0.9,2-1.5,4.3-1.7,6.9C366.3,214,366.1,216.3,366.1,218.5z M428.8,288.2
	c1.9,0,3.5,0.7,4.9,2.1s2.1,3,2.1,4.9c0,0.8-0.1,1.6-0.4,2.4c-0.3,0.8-0.8,1.6-1.4,2.3c-0.7,0.7-1.3,1.3-2,1.6s-1.5,0.6-2.4,0.7
	h-7.7c-1.9,0-3.5-0.7-4.9-2.1c-1.4-1.4-2.1-3-2.1-4.9c0-0.8,0.1-1.6,0.4-2.4c0.3-0.8,0.8-1.6,1.4-2.3c0.7-0.7,1.3-1.3,2-1.6
	s1.5-0.6,2.4-0.7H428.8z M498.5,239.4v27.9c0,1.6-0.3,2.9-0.9,3.8c-0.6,0.9-1.3,1.6-2.3,2.1c-0.9,0.4-2,0.8-3.2,1
	c-1.2,0.2-2.4,0.3-3.6,0.2h-2.1c-0.7,0-1.3,0-2-0.1v36c0,2.5-1,4.4-3,5.8c-1.1,0.7-2.1,1.2-2.9,1.5s-1.7,0.8-2.4,1.2
	c-0.7,0.4-1.5,1.1-2.2,2c-0.7,0.9-1.4,2-2.1,3.5c-0.6,1.2-1.3,2.5-2.3,3.8c-0.9,1.3-2.3,2-3.9,2H334.1c-1.5,0-2.8-0.4-4-1.3
	c-7.8-5.5-14.1-12.1-18.8-19.7s-7.8-16.2-9.4-25.7c-0.4-2.5-0.7-5.1-1-7.6c-0.3-2.5-0.8-5.1-1.4-7.7c-0.3-1.4-0.7-2.7-1.2-4
	s-1.5-2.3-3-2.8c-1.7-0.6-3-1.3-4.1-2.3c-1.1-0.9-1.6-2.5-1.6-4.6c0-1.7,0.5-3.2,1.6-4.7c1.1-1.5,2.6-2.2,4.5-2.3h40.6
	c1.4,0,2.6,0.3,3.7,1c1.1,0.7,2,1.6,2.6,2.8c0.9,1.7,2,3.4,3,5c1.1,1.6,2.4,3,3.8,4.1c1.5,1.2,3,2.1,4.7,2.9
	c1.7,0.8,3.6,1.2,5.9,1.2h1.1c0.4,0,0.7,0,1.1,0.1h2.3c0.7,0,1.5,0,2.2-0.1l59.1,0.4c3-1.2,5.7-2.5,8.2-4s4.6-3.3,6.3-5.3
	c1.7-2,3.1-4.4,4-7s1.5-5.6,1.5-9c0-0.8,0.1-1.6,0.4-2.4c0.3-0.8,0.8-1.6,1.4-2.3c0.7-0.7,1.3-1.3,2-1.6s1.5-0.6,2.4-0.7h39.6
	c1.9,0,3.5,0.7,4.9,2.1C497.8,235.9,498.5,237.5,498.5,239.4z M484.6,260.3v-13.9h-25.5c-0.7,3.8-1.7,7.3-3.2,10.3
	c-1.5,3-3.3,5.8-5.6,8.3c-2.3,2.5-4.8,4.6-7.7,6.5s-6.1,3.6-9.5,5.2c-0.9,0.4-2,0.9-3,1.3c-1.1,0.4-2.2,0.7-3.3,0.7l-21.8-0.1
	c-7.3-0.1-14.6-0.1-21.9-0.2c-7.3-0.1-14.6-0.1-21.9-0.1c-5.9,0-11.1-1.2-15.6-3.7c-4.5-2.5-8.5-6.1-12-10.9
	c-0.3-0.4-0.6-0.8-0.9-1.2c-0.3-0.4-0.5-0.9-0.8-1.3H312c0.9,3.5,1.7,6.9,2.2,10.3s1.1,6.8,1.7,10.2s1.5,6.7,2.5,9.9
	s2.5,6.5,4.6,9.8c1.7,2.8,3.7,5.4,6,7.8c2.3,2.5,4.8,4.7,7.5,6.8h123.9c1.5-2.3,3-4.2,4.5-5.7c1.5-1.5,3.4-3,5.8-4.6v-38.5
	c0-1.6,0.3-2.8,0.8-3.7c0.5-0.9,1.3-1.6,2.3-2.2c1-0.6,2-0.9,3-1c1-0.1,2.2-0.1,3.6-0.2h2.2C483.2,260.2,483.9,260.3,484.6,260.3z
	 M394,288.2c1.9,0,3.5,0.7,4.9,2.1c1.4,1.4,2.1,3,2.1,4.9c0,0.8-0.1,1.6-0.4,2.4c-0.3,0.8-0.8,1.6-1.4,2.3c-0.7,0.7-1.3,1.3-2,1.6
	s-1.5,0.6-2.4,0.7H387c-1.9,0-3.5-0.7-4.9-2.1s-2.1-3-2.1-4.9c0-0.8,0.1-1.6,0.4-2.4c0.3-0.8,0.8-1.6,1.4-2.3c0.7-0.7,1.3-1.3,2-1.6
	c0.7-0.4,1.5-0.6,2.4-0.7H394z M359.2,288.2c1.9,0,3.5,0.7,4.9,2.1s2.1,3,2.1,4.9c0,0.8-0.1,1.6-0.4,2.4c-0.3,0.8-0.8,1.6-1.4,2.3
	c-0.7,0.7-1.3,1.3-2,1.6s-1.5,0.6-2.4,0.7h-7.7c-1.9,0-3.5-0.7-4.9-2.1s-2.1-3-2.1-4.9c0-0.8,0.1-1.6,0.4-2.4
	c0.3-0.8,0.8-1.6,1.4-2.3c0.7-0.7,1.3-1.3,2-1.6s1.5-0.6,2.4-0.7H359.2z"/>
</svg>
