<?xml version="1.0" encoding="utf-8"?>
<!-- Generator: Adobe Illustrator 26.3.1, SVG Export Plug-In . SVG Version: 6.00 Build 0)  -->
<svg version="1.1" id="Layer_1" xmlns="http://www.w3.org/2000/svg" xmlns:xlink="http://www.w3.org/1999/xlink" x="0px" y="0px"
	 viewBox="0 0 72 56" style="enable-background:new 0 0 72 56;" xml:space="preserve">
<style type="text/css">
	.st0{fill:#FFFFFF;}
	.st1{fill:#107C10;}
</style>
<rect class="st0" width="72" height="56"/>
<path class="st1" d="M19.5,18.1v-6.6h6.6v6.6H19.5z M12.9,24.7V4.9h19.8v19.8H12.9z M16.2,8.2v13.2h13.2V8.2H16.2z M19.5,44.5v-6.6
	h6.6v6.6H19.5z M12.9,51.1V31.3h19.8v19.8H12.9z M16.2,34.6v13.2h13.2V34.6H16.2z M52.5,11.5v6.6h-6.6v-6.6H52.5z M39.3,4.9h19.8
	v19.8H39.3V4.9z M55.8,21.4V8.2H42.6v13.2H55.8z M39.3,41.2h3.3v3.3h-3.3V41.2z M45.9,34.6h-3.3v3.3h-3.3v-6.6h6.6V34.6z M52.5,31.3
	v3.3h-3.3v-3.3H52.5z M49.2,34.6v6.6h-6.6v-3.3h3.3v-3.3H49.2z M42.6,44.5h6.6v3.3h-3.3v3.3h-6.6v-3.3h3.3V44.5z M49.2,51.1v-3.3
	h6.6v3.3H49.2z M59.1,47.8h-3.3v-6.6h3.3V47.8z M55.8,34.6v-3.3h3.3v6.6h-3.3v3.3h-3.3v-6.6H55.8z M49.2,44.5v-3.3h3.3v3.3H49.2z"/>
</svg>
