<?xml version="1.0" encoding="utf-8"?>
<!-- Generator: Adobe Illustrator 26.3.1, SVG Export Plug-In . SVG Version: 6.00 Build 0)  -->
<svg version="1.1" id="Layer_1" xmlns="http://www.w3.org/2000/svg" xmlns:xlink="http://www.w3.org/1999/xlink" x="0px" y="0px"
	 viewBox="0 0 72 56" style="enable-background:new 0 0 72 56;" xml:space="preserve">
<style type="text/css">
	.st0{fill:#FFFFFF;}
	.st1{fill:#107C10;}
</style>
<rect class="st0" width="72" height="56"/>
<path class="st1" d="M36,14.5c-0.6-0.6-1.2-1.2-1.8-1.8c-0.6-0.6-1.2-1.2-1.8-1.8c-0.6-0.6-1.2-1.2-1.9-1.6c-0.6-0.5-1.3-1-2-1.4
	c-0.7-0.4-1.5-0.7-2.3-0.9s-1.7-0.3-2.6-0.3c-1.5,0-2.9,0.3-4.2,0.8S17,8.7,16.1,9.7s-1.7,2.1-2.3,3.4c-0.5,1.3-0.8,2.7-0.8,4.2
	c0,1.4,0.3,2.8,0.8,4.1c0.5,1.3,1.3,2.4,2.3,3.5L36,44.8v4.7L13.7,27.2c-1.3-1.3-2.3-2.8-3-4.5C10,21,9.6,19.2,9.6,17.3
	c0-1.3,0.2-2.5,0.5-3.7s0.8-2.3,1.4-3.3s1.3-2,2.2-2.8c0.8-0.8,1.8-1.6,2.8-2.2s2.2-1.1,3.3-1.4c1.2-0.3,2.4-0.5,3.7-0.5
	c1.4,0,2.7,0.2,3.8,0.5s2.1,0.8,3.1,1.3c0.9,0.6,1.8,1.3,2.7,2.1S35,8.9,36,9.8c1-1,1.9-1.8,2.7-2.7s1.8-1.5,2.7-2.1
	c0.9-0.6,2-1,3.1-1.4c1.1-0.3,2.4-0.5,3.8-0.5c1.9,0,3.7,0.4,5.4,1.1s3.2,1.7,4.5,3s2.3,2.7,3,4.5c0.7,1.7,1.1,3.5,1.1,5.5
	c0,1.9-0.4,3.7-1.1,5.4c-0.7,1.7-1.7,3.2-3,4.6l-2.5,2.5V25c1.1-1,1.9-2.2,2.4-3.5c0.5-1.3,0.8-2.7,0.8-4.2c0-1.5-0.3-2.9-0.8-4.2
	s-1.3-2.4-2.3-3.3s-2.1-1.7-3.4-2.2s-2.7-0.8-4.2-0.8c-1.5,0-2.7,0.2-3.9,0.7c-1.1,0.5-2.2,1.1-3.1,1.8c-1,0.8-1.9,1.6-2.7,2.5
	C37.8,12.7,36.9,13.6,36,14.5z M52.5,29.6v9.9h9.9v3.3h-9.9v9.9h-3.3v-9.9h-9.9v-3.3h9.9v-9.9H52.5z"/>
</svg>
