<?xml version="1.0" encoding="utf-8"?>
<!-- Generator: Adobe Illustrator 26.3.1, SVG Export Plug-In . SVG Version: 6.00 Build 0)  -->
<svg version="1.1" id="Layer_1" xmlns="http://www.w3.org/2000/svg" xmlns:xlink="http://www.w3.org/1999/xlink" x="0px" y="0px"
	 viewBox="0 0 788 444" style="enable-background:new 0 0 788 444;" xml:space="preserve">
<style type="text/css">
	.st0{fill:#E6E6E6;}
</style>
<rect class="st0" width="788" height="444"/>
<path d="M296.6,183.7c1.9,0,3.5,0.7,4.8,2c1.3,1.3,2,2.9,2.1,4.9v21.1c0,2-0.7,3.7-2.1,4.9c-1.4,1.2-3,1.9-5,2c-1.9,0-3.5-0.7-4.8-2
	c-1.3-1.3-2-2.9-2.1-4.9v-21.1c0-2,0.7-3.6,2.1-4.9C292.9,184.3,294.6,183.7,296.6,183.7z M331.3,176.6v56c0,2-0.7,3.6-2.1,4.9
	c-1.4,1.3-3,2-5,2c-1.8,0-3.4-0.7-4.8-2.1c-1.4-1.4-2.1-3-2.1-4.8v-56c0-1.9,0.7-3.5,2.1-4.8c1.4-1.3,3-2,5-2.1
	c1.8,0,3.4,0.7,4.8,2.1C330.6,173.2,331.3,174.8,331.3,176.6z M498.5,313.9c0,1.5-0.8,2.7-2.4,3.7c-1.6,1-3.7,1.9-6.2,2.5
	s-5.3,1.2-8.4,1.6s-6,0.7-8.8,0.9s-5.4,0.3-7.8,0.3c-2.4,0.1-4.1,0.1-5.2,0.1c-1,0-2.5,0-4.5-0.1c-2-0.1-4.1-0.3-6.5-0.5
	s-4.9-0.7-7.4-1.1c-2.5-0.4-4.8-1-6.9-1.6s-3.7-1.5-5-2.4s-2-2.1-2.1-3.4c0-2.5-0.3-5.2-0.8-8.1c-0.5-2.9-1.2-5.8-2.2-8.6
	c-0.9-2.8-1.9-5.7-2.9-8.5c-1-2.8-2.1-5.3-3.2-7.5H387c-5,0-9.6-1.2-13.8-3.7s-7.6-5.9-10.1-10.2c-1.2-2.2-2.2-4.4-2.8-6.6
	c-0.7-2.3-1-4.7-1.1-7.3h-13.9v-13.9h60l3.4,3.4c1.1,1.1,2.2,2.3,3.4,3.6c3.5,3.8,6.8,8.2,10,13.1c3.2,4.9,6.1,9.9,8.7,15.2
	c2.6,5.3,4.8,10.7,6.4,16.3c1.7,5.6,2.9,11,3.7,16.1c3.5,0.9,7.1,1.4,10.9,1.6c3.8,0.2,7.5,0.3,11.1,0.3c3.5,0,7-0.1,10.6-0.2
	s7-0.7,10.5-1.5c-0.7-4.7-1.7-9.5-3-14.3c-1.3-4.8-3-9.5-5-14.3s-4.4-9.1-7-13.3c-2.6-4.1-5.5-8.1-8.7-11.9
	c-1.7-1.8-3.3-3.6-4.8-5.3c-1.5-1.7-3.2-3.6-4.9-5.4c3.2-2.6,6-4.9,8.5-6.9c2.5-2,4.6-4.1,6.4-6.3s3.1-4.8,3.9-7.5
	c0.8-2.8,1.3-6.3,1.4-10.7h-78.1c-1.3,0-2.3-0.3-3-0.8s-1.3-1.2-1.6-2c-0.4-0.8-0.6-1.7-0.8-2.6s-0.2-2-0.1-3c0-1.5,0.5-2.8,1.6-3.9
	c1.1-1.1,2.4-1.6,3.9-1.6h78.1v-2.7c0-3.4-0.7-6.6-2-9.7c-1.3-3-3.1-5.7-5.3-7.9c-2.3-2.3-4.9-4.1-8.1-5.4c-3.1-1.4-6.4-2.1-9.7-2.1
	H345.2v-13.9h40.7c6.1-4,12.7-8.1,19.8-12.2s14.4-7.9,22-11.2s15.2-6.1,23.1-8.2c7.8-2.1,15.5-3.2,23.1-3.3c1.9,0,3.8,0.1,5.9,0.4
	c2,0.3,4,0.9,5.8,1.7c1.8,0.9,3.2,2.1,4.2,3.6s1.6,3.5,1.7,5.9c0,2-0.5,3.9-1.4,5.8s-2.1,3.7-3.5,5.6c-1.4,1.8-2.9,3.5-4.5,5.1
	c-1.6,1.6-3,3-4.4,4.4c-1.5,1.5-3,3.2-4.4,5.1c-1.4,1.9-2.7,3.7-3.9,5.6c3.4,2.7,6.1,5.4,8.1,8.3c2,2.8,3.5,5.8,4.6,9
	c1.1,3.2,1.8,6.5,2.1,9.8c0.3,3.3,0.4,6.9,0.4,10.7v6.1c0,2,0,4.2-0.1,6.4c0,5.9-1.2,11.4-3.7,16.7s-6,9.7-10.5,13.4
	c6.8,7.5,12.3,15.9,16.6,25.4s7.4,19.1,9.5,29c0.5,2.5,1,5,1.4,7.5C498.3,308.8,498.5,311.4,498.5,313.9z M472.5,135
	c-0.4-0.1-0.7-0.1-1.1-0.1s-0.8,0-1.2,0c-5.2,0-10.4,0.6-15.8,1.9c-5.4,1.2-10.7,2.8-15.9,4.8c-5.2,2-10.3,4.2-15.4,6.8
	s-9.7,5-14,7.5h45.7c2.9-4.4,6-8.3,9.4-11.9c1.4-1.5,2.8-2.9,4.2-4.2C469.9,138.3,471.3,136.7,472.5,135z M387,267.3h20.1
	c-1.6-2.5-3.3-4.9-5.1-7.3c-1.8-2.4-3.8-4.6-6-6.6h-23c0,2,0.4,3.8,1.1,5.4c0.7,1.7,1.7,3.1,2.9,4.4c1.2,1.2,2.7,2.3,4.5,3
	C383.3,267,385.1,267.4,387,267.3z"/>
</svg>
