<?xml version="1.0" encoding="UTF-8"?>
<svg id="Layer_1" data-name="Layer 1" xmlns="http://www.w3.org/2000/svg" viewBox="0 0 788 444">
  <defs>
    <style>
      .cls-1 {
        fill: #e6e6e6;
      }
    </style>
  </defs>
  <rect class="cls-1" width="788" height="444"/>
  <g>
    <path d="m520.11,400.11c-3.71,0-6.37-2.48-17.23-12.56-3.13-2.91-7.42-6.89-8.56-7.68-.33-.19-.78-.48-1.21-.75-1.19-.76-2.04-1.32-9.07-1.41-7.61-.11-12.79-.07-14.74-.03-2.2-.03-7.38-.08-15,.03-7.02.1-7.87.65-9.06,1.41-.42.27-.87.56-1.36.85-.98.69-5.27,4.67-8.4,7.58-11.8,10.96-13.9,12.92-18.23,12.51-4.16-.41-10.29-3.37-13.94-8.91-4.3-6.52-5.16-14.13-2.96-26.25,2.26-12.4,11.91-43.41,14.46-48.4.82-1.61,2.08-3.02,3.88-4.31.7-2.42,1.77-4.52,4.08-5.86,1.67-1.07,6.52-4.18,11.63-5.27,4.44-.96,12.44-2.31,16.11-.66l1.2.57c.6.29,1.98.96,2.86,1.33h2.35s5.89.03,12.28.04c6.35-.01,12.24-.04,12.25-.04h2.38c.87-.39,2.22-1.04,2.8-1.32l1.2-.57c3.69-1.66,11.69-.3,16.14.66,5.11,1.09,9.96,4.2,11.56,5.22,2.38,1.37,3.43,3.44,4.15,5.9,1.8,1.29,3.06,2.71,3.88,4.33,2.78,5.42,12.33,36.73,14.45,48.39h0c2.19,12.12,1.34,19.72-2.95,26.25-3.67,5.55-9.81,8.51-13.96,8.92-.34.03-.67.05-.99.05Zm-45.09-37.47c2.46,0,5.58.02,9.24.07,9.75.14,12.99,1.23,16.98,3.8.27.18.56.36.88.55,1.86,1.1,4.48,3.48,10.96,9.5,2.39,2.22,5.92,5.49,8.3,7.57.41-.33.83-.74,1.16-1.24.95-1.45,2.74-4.17.72-15.31h0c-2.03-11.1-10.43-37.78-12.72-43.48-.19-.11-.45-.26-.79-.43l-3.19-1.6-.76-3.49c-.05-.25-.11-.52-.17-.79-2.37-1.36-3.89-1.89-4.8-2.08-2.99-.64-6.34-1.03-7.95-1.12-3.53,1.71-5.33,2.45-7.11,2.64-.47.07-.99.08-4.26.09l-8.17.03v-.04c-2.65,0-5.68,0-8.33,0h-8.14c-3.28,0-3.79,0-4.47-.1-1.57-.16-3.37-.91-6.9-2.62-1.62.09-4.96.48-7.94,1.11-.91.2-2.43.72-4.8,2.09-.06.26-.12.53-.17.77l-.76,3.49-3.19,1.61c-.35.17-.61.32-.8.44-2.3,5.73-10.71,32.42-12.72,43.48-2.02,11.15-.23,13.86.73,15.32.33.5.74.9,1.15,1.23,2.39-2.07,5.91-5.35,8.3-7.56,6.48-6.02,9.11-8.4,10.97-9.5.31-.19.6-.37.87-.55,3.99-2.57,7.23-3.67,16.97-3.81,7.85-.11,13.2-.07,15.21-.03.94-.02,2.9-.04,5.71-.04Zm32.68-43.59c.14.09.28.18.43.27l-.43-.27Zm-77.01,0l-.41.26c.14-.08.28-.17.41-.26Zm74.49-3.01h0Z"/>
    <path d="m469.84,332.67c-3.38,0-6.12-2.74-6.12-6.12s2.74-6.12,6.12-6.12,6.12,2.73,6.12,6.12-2.74,6.12-6.12,6.12"/>
    <path d="m445.83,226.97c5.66,2.87,10.78,6.42,15.35,10.65,4.57,4.22,8.47,8.93,11.69,14.11,3.22,5.19,5.7,10.76,7.44,16.72,1.74,5.97,2.61,12.13,2.61,18.49h-16.72c0-6.88-1.33-13.37-3.99-19.47-2.66-6.09-6.25-11.41-10.78-15.94-4.53-4.53-9.84-8.12-15.94-10.78-6.1-2.65-12.59-3.99-19.46-3.99s-13.37,1.33-19.47,3.99c-6.1,2.66-11.41,6.25-15.94,10.78-4.53,4.53-8.12,9.84-10.78,15.94-2.66,6.1-3.99,12.59-3.99,19.47,0,7.93-1.81,15.46-5.42,22.6-3.62,7.14-8.6,13.06-14.96,17.77,5.66,2.88,10.78,6.43,15.35,10.65,4.57,4.23,8.47,8.93,11.69,14.11,3.22,5.18,5.7,10.76,7.44,16.72s2.61,12.13,2.61,18.48h-16.72c0-6.88-1.33-13.37-3.99-19.46s-6.25-11.41-10.78-15.94c-4.53-4.53-9.84-8.12-15.94-10.78s-12.59-3.99-19.46-3.99-13.37,1.33-19.47,3.99c-6.1,2.66-11.41,6.25-15.94,10.78-4.53,4.53-8.12,9.84-10.78,15.94-2.66,6.1-3.99,12.58-3.99,19.46h-16.72c0-6.36.87-12.52,2.61-18.48,1.74-5.96,4.22-11.54,7.44-16.72s7.12-9.88,11.69-14.11c4.57-4.22,9.69-7.77,15.35-10.65-6.36-4.7-11.35-10.62-14.96-17.77-3.62-7.14-5.42-14.67-5.42-22.6,0-6.88,1.33-13.37,3.99-19.47,2.65-6.09,6.25-11.41,10.78-15.94,4.53-4.53,9.84-8.12,15.94-10.78,6.09-2.65,12.58-3.99,19.47-3.99,7.92,0,15.46,1.81,22.6,5.42,7.14,3.62,13.06,8.6,17.77,14.96,3.31-6.53,7.53-12.36,12.67-17.51,5.14-5.14,10.97-9.36,17.51-12.67-6.36-4.7-11.35-10.63-14.96-17.77-3.62-7.14-5.42-14.68-5.42-22.6,0-6.88,1.33-13.37,3.99-19.46,2.65-6.1,6.25-11.41,10.78-15.94,4.53-4.53,9.84-8.12,15.94-10.78,6.09-2.66,12.58-3.99,19.47-3.99s13.37,1.33,19.46,3.99,11.41,6.25,15.94,10.78c4.53,4.53,8.12,9.84,10.78,15.94,2.66,6.1,3.99,12.58,3.99,19.46,0,7.93-1.81,15.46-5.42,22.6-3.62,7.14-8.6,13.06-14.96,17.77Zm-130.12,93.41c4.53,0,8.84-.89,12.93-2.68,4.09-1.78,7.64-4.18,10.65-7.18,3-3,5.4-6.53,7.19-10.58,1.78-4.05,2.68-8.38,2.68-13s-.89-8.84-2.68-12.94c-1.79-4.09-4.18-7.64-7.19-10.65-3.01-3-6.56-5.4-10.65-7.19-4.09-1.78-8.41-2.68-12.93-2.68s-8.95.9-13,2.68c-4.05,1.79-7.58,4.18-10.58,7.19-3,3-5.4,6.55-7.19,10.65-1.79,4.09-2.68,8.41-2.68,12.94s.89,8.95,2.68,13c1.78,4.05,4.18,7.58,7.19,10.58,3.01,3,6.53,5.4,10.58,7.18,4.05,1.79,8.38,2.68,13,2.68Zm66.89-133.78c0,4.62.89,8.95,2.68,13,1.78,4.05,4.18,7.57,7.19,10.58,3.01,3,6.53,5.4,10.58,7.19,4.05,1.79,8.38,2.68,13,2.68s8.84-.89,12.93-2.68c4.09-1.79,7.64-4.18,10.65-7.19,3-3,5.4-6.53,7.19-10.58,1.78-4.05,2.68-8.38,2.68-13s-.89-8.84-2.68-12.93c-1.79-4.09-4.18-7.64-7.19-10.65-3.01-3-6.56-5.4-10.65-7.18-4.09-1.79-8.41-2.68-12.93-2.68s-8.95.89-13,2.68c-4.05,1.79-7.58,4.18-10.58,7.18-3,3-5.4,6.55-7.19,10.65-1.79,4.09-2.68,8.41-2.68,12.93Z"/>
  </g>
</svg>