<?xml version="1.0" encoding="utf-8"?>
<!-- Generator: Adobe Illustrator 25.0.1, SVG Export Plug-In . SVG Version: 6.00 Build 0)  -->
<svg version="1.1" id="Layer_1" xmlns="http://www.w3.org/2000/svg" xmlns:xlink="http://www.w3.org/1999/xlink" x="0px" y="0px"
	 viewBox="0 0 740 417" style="enable-background:new 0 0 740 417;" xml:space="preserve">
<style type="text/css">
	.st0{fill:#111111;}
	.st1{clip-path:url(#SVGID_2_);}
	.st2{fill:#FFFFFF;}
</style>
<g id="Layer_2_1_">
	<rect class="st0" width="740" height="417"/>
</g>
<g id="icons">
	<g>
		<g>
			<defs>
				<rect id="SVGID_1_" x="265.3" y="158.5" width="209.3" height="170.1"/>
			</defs>
			<clipPath id="SVGID_2_">
				<use xlink:href="#SVGID_1_"  style="overflow:visible;"/>
			</clipPath>
			<g class="st1">
				<path class="st2" d="M455.5,203.8c-5.8-5.8-12.6-10.5-20.1-13.7v-31.6h-78.5L265.3,250l78.5,78.5l26.2-26.1
					c28.9,21.7,69.9,15.7,91.6-13.2C481.1,263.2,478.5,226.8,455.5,203.8 M283.9,250l78.5-78.5h60v14.4c-4.3-0.9-8.7-1.3-13.1-1.3
					h-6.6c-3.6,0-6.5,2.9-6.5,6.5s2.9,6.5,6.5,6.5l0,0h6.5c4.4,0,8.8,0.6,13.1,1.7v32.2L343.8,310L283.9,250z M409.2,302.3
					c-10.7,0-21.1-3.2-29.9-9.3l56-56v-32.3c25,14.4,33.6,46.4,19.1,71.5C445.2,292.4,427.9,302.4,409.2,302.3"/>
			</g>
		</g>
	</g>
</g>
</svg>
