<?xml version="1.0" encoding="utf-8"?>
<!-- Generator: Adobe Illustrator 25.0.1, SVG Export Plug-In . SVG Version: 6.00 Build 0)  -->
<svg version="1.1" id="Layer_1" xmlns="http://www.w3.org/2000/svg" xmlns:xlink="http://www.w3.org/1999/xlink" x="0px" y="0px"
	 viewBox="0 0 740 417" style="enable-background:new 0 0 740 417;" xml:space="preserve">
<style type="text/css">
	.st0{fill:#111111;}
	.st1{clip-path:url(#SVGID_2_);}
	.st2{fill:#FFFFFF;}
</style>
<g id="Layer_2_1_">
	<rect class="st0" width="740" height="417"/>
</g>
<g id="icons">
	<g>
		<g>
			<defs>
				<rect id="SVGID_1_" x="278" y="151.9" width="184" height="183.1"/>
			</defs>
			<clipPath id="SVGID_2_">
				<use xlink:href="#SVGID_1_"  style="overflow:visible;"/>
			</clipPath>
			<g class="st1">
				<path class="st2" d="M460.3,306.6c-1.9-10.7-10.7-29.8-12-32.3c-0.6-1.2-1.4-2.3-2.4-3.3v0c0-2.2-1.1-4.2-3-5.2
					c-3-1.4-6.2-2.4-9.5-3.1c-2.6-0.5-5.2-0.8-7.9-0.8c-1.6-0.1-3.2,0.2-4.6,0.8c-0.8,0.4-1.5,0.8-2.2,1.2c-0.4,0.2-1.1,0.7-1.6,1
					h-15.7l-1.6-1c-0.7-0.5-1.4-0.9-2.2-1.2l0,0c-1.5-0.6-3-0.8-4.6-0.8c-2.6,0-5.3,0.3-7.8,0.8c-3.3,0.7-6.5,1.7-9.5,3.1
					c-1.9,1.1-3,3.1-3,5.2v0.1c-1,1-1.8,2.1-2.4,3.3c-1.3,2.5-10,21.6-12,32.3c-1.7,9.7-1,16,2.3,21.2c3,4.7,8.5,7.2,12,7.2
					c4.2,0,7.5-3.3,15.2-12c1.5-1.6,3.4-3.9,4.2-4.5c0.5-0.3,0.8-0.5,1.1-0.8c0.4-0.3,0.8-0.6,1.3-0.7c1.9-0.4,3.8-0.5,5.7-0.5h18.3
					c1.9-0.1,3.8,0.1,5.7,0.5c0.5,0.1,0.9,0.4,1.3,0.7c0.3,0.2,0.7,0.5,1.1,0.8c0.7,0.6,2.7,2.9,4.2,4.5c7.7,8.7,11,12,15.2,12
					c3.6,0,9-2.5,12-7.2C461.2,322.7,461.9,316.3,460.3,306.6 M447.6,321.2c-0.3,0.4-0.7,0.8-1.1,1.1c-2-1.9-5.2-5.5-6.8-7.2
					c-3.5-4-5.1-5.8-6.8-6.7c-0.2-0.1-0.5-0.3-0.7-0.5c-3.2-2.2-6.1-3.3-13.9-3.3h-18.2c-7.8,0-10.7,1.1-14,3.3
					c-0.3,0.2-0.5,0.4-0.7,0.5c-1.6,1-3.2,2.8-6.8,6.8c-1.5,1.8-4.8,5.4-6.8,7.2c-0.4-0.3-0.8-0.6-1.1-1c-0.6-1-2.2-3.4-0.6-12.5
					c1.5-8.3,8.9-25,10.8-28.8c0.1-0.2,0.3-0.4,0.5-0.5c1.6-0.8,2.7-2.3,3.1-4.1c1-0.3,2-0.6,3-0.8c1.7-0.4,3.5-0.6,5.3-0.6h0.1
					l0.4,0.2c2.7,1.6,4.2,2.5,6,2.7h0.1c0.4,0,0.4,0,9.8,0s9.4,0,9.8,0h0.1c1.8-0.2,3.3-1.1,6-2.7l0.4-0.2h0.1
					c1.8,0,3.5,0.2,5.2,0.5c1,0.2,2.1,0.5,3,0.8c0.4,1.8,1.5,3.3,3.1,4.1c0.2,0.2,0.3,0.3,0.5,0.5c1.9,3.8,9.3,20.5,10.8,28.8
					C449.8,317.8,448.3,320.2,447.6,321.2"/>
				<path class="st2" d="M329.1,261.8c-2.9-16.1-3-32.7-0.1-48.8h68.9c1.5,8.1,2.2,16.2,2.2,24.4c0,4.1-0.2,8.2-0.6,12.2h12.3
					c0.3-4,0.5-8.1,0.5-12.2c0-8.2-0.6-16.3-1.9-24.4h22.2c2.8,7.8,4.2,16.1,4.2,24.4c0,4.1-0.4,8.2-1.1,12.3c0.4,0,0.7,0,1.1-0.1
					c0.3-0.1,5.3,1.7,10.7,3.8c8.9-46.4-21.5-91.1-67.8-100s-91.1,21.5-100,67.8c-8.8,45.6,20.5,89.9,66,99.7
					c-0.6-5.4-0.3-10.9,0.8-16.3c0.1-0.8,0.3-1.5,0.5-2.3c-6.1-6.5-11.2-16.3-14.8-28.1h23.7v-0.1c0.3-0.5,2-6.3,3.8-12.1
					L329.1,261.8z M426.8,200.7h-19.1c-3-11.5-7.5-21.5-13-29.4C408.2,177.6,419.3,187.9,426.8,200.7 M363.5,164.1
					c13.2,0,25.1,14.9,31.5,36.5h-63C338.5,179,350.3,164.1,363.5,164.1 M332.3,171.2c-5.5,7.9-10,17.9-13,29.4h-19.1
					C307.7,187.9,318.8,177.6,332.3,171.2 M290.2,237.4c0-8.3,1.4-16.6,4.2-24.4h22.2c-2.6,16.2-2.6,32.7,0,48.8h-22.1
					C291.7,254,290.3,245.7,290.2,237.4 M332.2,303.6c-13.4-6.4-24.6-16.7-32.1-29.6h19.1C322.3,285.5,326.7,295.6,332.2,303.6"/>
				<path class="st2" d="M409.3,281.4c-3.2,0-5.7,2.6-5.7,5.7s2.6,5.7,5.7,5.7s5.7-2.6,5.7-5.7l0,0C415,284,412.5,281.4,409.3,281.4
					L409.3,281.4"/>
			</g>
		</g>
	</g>
</g>
</svg>
