<?xml version="1.0" encoding="utf-8"?>
<!-- Generator: Adobe Illustrator 25.0.1, SVG Export Plug-In . SVG Version: 6.00 Build 0)  -->
<svg version="1.1" id="Layer_1" xmlns="http://www.w3.org/2000/svg" xmlns:xlink="http://www.w3.org/1999/xlink" x="0px" y="0px"
	 viewBox="0 0 740 417" style="enable-background:new 0 0 740 417;" xml:space="preserve">
<style type="text/css">
	.st0{fill:#111111;}
	.st1{clip-path:url(#SVGID_2_);}
	.st2{fill:#FFFFFF;}
</style>
<g id="Layer_2_1_">
	<rect class="st0" width="740" height="417"/>
</g>
<g id="icons">
	<g>
		<g>
			<defs>
				<rect id="SVGID_1_" x="279" y="151.9" width="182.1" height="183.1"/>
			</defs>
			<clipPath id="SVGID_2_">
				<use xlink:href="#SVGID_1_"  style="overflow:visible;"/>
			</clipPath>
			<g class="st1">
				<path class="st2" d="M412.8,213.9c15.3-11.1,18.7-32.5,7.6-47.7c-11.1-15.3-32.5-18.7-47.7-7.6s-18.7,32.5-7.6,47.7
					c2.1,2.9,4.7,5.5,7.6,7.6c-9,4.5-16.2,11.7-20.7,20.7c-11.2-15.2-32.6-18.5-47.8-7.3c-15.2,11.2-18.5,32.6-7.3,47.8
					c2.1,2.8,4.6,5.3,7.5,7.4c-15.6,7.6-25.4,23.5-25.4,40.8c0,0.1,0,0.1,0,0.2h11.4c0-0.1,0-0.1,0-0.2c0-18.8,15.2-34.1,34.1-34.1
					c16.3,0,30.4,11.6,33.5,27.6c0.1-2.9,0.4-5.8,1-8.7c0.7-3.6,1.7-7.2,3-10.7c-4.4-6.3-10.3-11.4-17.3-14.9
					c2.9-2.1,5.5-4.7,7.6-7.6c0.4-0.5,0.7-1,1.1-1.6s0.7-1.1,1-1.6s0.6-1.1,0.9-1.7s0.6-1.2,0.8-1.8s0.5-1.2,0.7-1.8
					s0.4-1.2,0.6-1.9s0.4-1.3,0.5-1.9s0.3-1.3,0.4-2s0.2-1.3,0.3-2s0.1-1.3,0.2-2s0-1.4,0-2.1s0-1.1,0-1.7s0.1-1.1,0.1-1.6
					s0.1-1.1,0.2-1.6s0.2-1.1,0.3-1.6s0.2-1.1,0.3-1.6s0.3-1,0.4-1.5s0.3-1,0.5-1.5s0.4-1,0.5-1.5s0.4-1,0.6-1.4s0.4-0.9,0.7-1.4
					s0.5-0.9,0.7-1.4s0.5-0.9,0.8-1.3s0.6-0.9,0.9-1.3s0.6-0.8,0.9-1.2s0.6-0.8,1-1.2s0.7-0.8,1-1.2s0.7-0.8,1.1-1.1
					s0.7-0.7,1.1-1.1s0.8-0.7,1.2-1s0.8-0.6,1.2-1s0.8-0.6,1.2-0.9s0.9-0.6,1.3-0.8s0.9-0.5,1.4-0.8s0.9-0.5,1.4-0.7
					s0.9-0.4,1.4-0.7s1-0.4,1.5-0.6s1-0.4,1.5-0.5s1-0.3,1.5-0.5s1-0.3,1.5-0.4s1-0.2,1.6-0.3s1.1-0.2,1.6-0.2s1.1-0.1,1.6-0.2
					s1.1-0.1,1.6-0.1h1.4c18.7-0.1,33.9,14.9,34.1,33.6c0,1.8-0.1,3.6-0.4,5.4c0.9-0.1,1.8-0.1,2.6-0.1c2.9,0,5.9,0.3,8.8,0.9
					c2.6-19.2-7.5-38-25-46.4 M324.5,277.7c-12.6,0.1-23-10.1-23-22.8c-0.1-12.6,10.1-23,22.8-23c12.6-0.1,23,10.1,23,22.8v0.1
					C347.3,267.4,337.1,277.7,324.5,277.7 M392.7,209.1c-12.6,0.1-23-10.1-23-22.8c-0.1-12.6,10.1-23,22.8-23
					c12.6-0.1,23,10.1,23,22.8v0.1C415.5,198.8,405.3,209.1,392.7,209.1"/>
				<path class="st2" d="M459.5,310.1c-1.7-9.4-9.4-26.1-10.5-28.3c-0.6-1.1-1.3-2-2.1-2.9v-0.1c0-1.9-1-3.6-2.6-4.6
					c-2.7-1.2-5.5-2.1-8.3-2.7c-2.3-0.5-4.6-0.7-6.9-0.7c-1.4-0.1-2.8,0.2-4.1,0.7c-0.7,0.3-1.3,0.7-1.9,1.1c-0.4,0.2-1,0.6-1.4,0.9
					h-13.8c-0.5-0.3-1.1-0.6-1.4-0.9c-0.6-0.4-1.3-0.8-1.9-1.1l0,0c-1.3-0.5-2.7-0.7-4-0.7c-2.3,0-4.6,0.3-6.9,0.7
					c-2.9,0.6-5.7,1.5-8.3,2.7c-1.6,1-2.6,2.7-2.6,4.6v0.1c-0.8,0.8-1.6,1.8-2.1,2.9c-1.1,2.2-8.8,18.9-10.5,28.3
					c-1.5,8.5-0.9,14.1,2,18.6c2.7,4.1,7.4,6.3,10.5,6.3c3.7,0,6.6-2.9,13.3-10.5c1.3-1.4,3-3.4,3.6-4c0.4-0.2,0.7-0.5,1-0.7
					c0.3-0.3,0.7-0.5,1.1-0.6c1.6-0.3,3.3-0.5,5-0.4h16.1c1.7-0.1,3.4,0.1,5,0.4c0.4,0.1,0.8,0.4,1.1,0.7l1,0.7
					c0.6,0.6,2.4,2.5,3.6,4c6.7,7.6,9.6,10.5,13.4,10.5c3.1,0,7.9-2.2,10.5-6.3C460.5,324.2,461.1,318.7,459.5,310.1 M448.6,323
					c-0.3,0.4-0.6,0.7-1,0.9c-1.8-1.6-4.6-4.8-5.9-6.4c-3.1-3.5-4.5-5-5.9-5.9l-0.6-0.4c-2.9-2-5.4-2.9-12.2-2.9h-16.2
					c-6.8,0-9.4,0.9-12.2,2.9l-0.6,0.4c-1.4,0.9-2.9,2.4-5.9,5.9c-1.4,1.5-4.2,4.7-5.9,6.4c-0.4-0.2-0.7-0.6-0.9-0.9
					c-0.6-0.9-1.9-3-0.5-10.9c1.3-7.3,7.8-22,9.5-25.3c0.1-0.2,0.3-0.3,0.4-0.5c1.4-0.7,2.4-2,2.7-3.6c0.9-0.2,1.8-0.5,2.7-0.7
					c1.5-0.3,3-0.5,4.6-0.5h0.1l0.3,0.2c2.4,1.4,3.7,2.2,5.3,2.4l0,0c0.3,0,0.3,0,8.6,0s8.2,0,8.6,0l0,0c1.6-0.2,2.9-0.9,5.3-2.4
					c0.1-0.1,0.2-0.1,0.3-0.2h0.1c1.5,0,3.1,0.2,4.6,0.5c0.9,0.2,1.8,0.4,2.6,0.7c0.3,1.5,1.4,2.9,2.8,3.6c0.2,0.1,0.3,0.3,0.4,0.5
					c1.7,3.3,8.1,18,9.5,25.3C450.6,320.1,449.3,322.1,448.6,323"/>
				<path class="st2" d="M414.8,288.5c-3.1,0-5.7,2.5-5.7,5.7s2.5,5.7,5.7,5.7c3.1,0,5.7-2.5,5.7-5.7S417.9,288.5,414.8,288.5
					L414.8,288.5"/>
			</g>
		</g>
	</g>
</g>
</svg>
