<?xml version="1.0" encoding="utf-8"?>
<!-- Generator: Adobe Illustrator 26.3.1, SVG Export Plug-In . SVG Version: 6.00 Build 0)  -->
<svg version="1.1" id="Layer_1" xmlns="http://www.w3.org/2000/svg" xmlns:xlink="http://www.w3.org/1999/xlink" x="0px" y="0px"
	 viewBox="0 0 1000 1000" style="enable-background:new 0 0 1000 1000;" xml:space="preserve">
<style type="text/css">
	.st0{fill:#FFFFFF;}
</style>
<path class="st0" d="M679.1,215.3c7.5,0,13.6,2.4,18.5,7.3c4.9,4.9,7.5,11.2,7.8,19c0,8.8,1.8,18,5.4,27.7s8.1,19.1,13.6,28.2
	c5.5,9.1,11.5,17.8,18,26.3c6.5,8.4,13,15.7,19.5,21.9c6.2,6.2,13.3,12.5,21.4,19c8.1,6.5,16.9,12.7,26.3,18.5
	c9.4,5.8,19,10.4,28.7,13.6c9.7,3.2,19,5,27.7,5.4c7.5,0,13.6,2.4,18.5,7.3c4.9,4.9,7.5,11.2,7.8,19c0,7.5-2.4,13.6-7.3,18.5
	c-4.9,4.9-11.2,7.5-19,7.8c-8.8,0-18,1.8-27.7,5.4c-9.7,3.6-19.1,8.1-28.2,13.6c-9.1,5.5-17.8,11.5-26.3,18
	c-8.4,6.5-15.7,13-21.9,19.5c-6.2,6.2-12.5,13.3-19,21.4c-6.5,8.1-12.7,16.9-18.5,26.3s-10.4,19-13.6,28.7c-3.2,9.7-5,19-5.4,27.7
	c0,7.5-2.4,13.6-7.3,18.5c-4.9,4.9-11.2,7.5-19,7.8c-7.5,0-13.6-2.4-18.5-7.3s-7.5-11.2-7.8-19c0-8.8-1.8-18-5.4-27.7
	c-3.6-9.7-8.1-19.1-13.6-28.2c-5.5-9.1-11.5-17.8-18-26.3s-13-15.7-19.5-21.9c-6.2-6.2-13.3-12.5-21.4-19
	c-8.1-6.5-16.9-12.7-26.3-18.5c-9.4-5.8-19-10.4-28.7-13.6c-9.7-3.2-19-5-27.7-5.4c-7.5,0-13.6-2.4-18.5-7.3
	c-4.9-4.9-7.5-11.2-7.8-19c0-7.5,2.4-13.6,7.3-18.5c4.9-4.9,11.2-7.5,19-7.8c8.8,0,18-1.8,27.7-5.4c9.7-3.6,19.1-8.1,28.2-13.6
	c9.1-5.5,17.8-11.5,26.3-18s15.7-13,21.9-19.5c6.2-6.2,12.5-13.3,19-21.4c6.5-8.1,12.7-16.9,18.5-26.3c5.8-9.4,10.4-19,13.6-28.7
	c3.2-9.7,5-19,5.4-27.7c0-7.5,2.4-13.6,7.3-18.5C665,218.3,671.3,215.7,679.1,215.3z M679.1,532.1c12-20.4,27.1-39.7,45.3-57.9
	c18.2-18.2,37.5-33.4,57.9-45.7c-20.4-12.3-39.7-27.6-57.9-45.7c-18.2-18.2-33.3-37.5-45.3-57.9c-12,20.4-27.1,39.7-45.3,57.9
	c-18.2,18.2-37.5,33.4-57.9,45.7c20.4,12.3,39.7,27.6,57.9,45.7C652,492.4,667.1,511.7,679.1,532.1z M367.6,389.5
	c-6.5,0-12-2.3-16.5-6.8s-6.8-10.1-6.8-16.5c0-7.5-1.5-15.1-4.4-22.9c-2.9-7.8-6.7-15.6-11.2-23.4c-4.5-7.8-9.7-15.1-15.6-21.9
	s-11-12.7-15.6-17.5c-4.9-4.9-10.7-10.1-17.5-15.6c-6.8-5.5-13.9-10.5-21.4-15.1c-7.5-4.5-15.2-8.4-23.4-11.7
	c-8.1-3.2-15.9-4.7-23.4-4.4c-6.5,0-12-2.3-16.5-6.8c-4.5-4.5-6.8-10.1-6.8-16.5s2.3-12,6.8-16.5c4.5-4.5,10.1-6.8,16.5-6.8
	c7.5,0,15.1-1.5,22.9-4.4c7.8-2.9,15.6-6.7,23.4-11.2s15.1-9.7,21.9-15.6s12.7-11,17.5-15.6c4.9-4.9,10.1-10.7,15.6-17.5
	c5.5-6.8,10.5-13.9,15.1-21.4c4.5-7.5,8.4-15.2,11.7-23.4s4.7-15.9,4.4-23.4c0-6.5,2.3-12,6.8-16.5s10.1-6.8,16.5-6.8
	s12,2.3,16.5,6.8c4.5,4.5,6.8,10.1,6.8,16.5c0,7.5,1.5,15.1,4.4,22.9c2.9,7.8,6.7,15.6,11.2,23.4c4.5,7.8,9.7,15.1,15.6,21.9
	c5.8,6.8,11,12.7,15.6,17.5c4.9,4.9,10.7,10.1,17.5,15.6s13.9,10.5,21.4,15.1s15.2,8.4,23.4,11.7s15.9,4.7,23.4,4.4
	c6.5,0,12,2.3,16.5,6.8c4.5,4.5,6.8,10.1,6.8,16.5s-2.3,12-6.8,16.5c-4.5,4.5-10.1,6.8-16.5,6.8c-7.5,0-15.1,1.5-22.9,4.4
	c-7.8,2.9-15.6,6.7-23.4,11.2c-7.8,4.5-15.1,9.7-21.9,15.6s-12.7,11-17.5,15.6c-4.9,4.9-10.1,10.7-15.6,17.5s-10.5,13.9-15.1,21.4
	s-8.4,15.2-11.7,23.4c-3.2,8.1-4.7,15.9-4.4,23.4c0,6.5-2.3,12-6.8,16.5C379.6,387.3,374.1,389.5,367.6,389.5z M367.6,126.8
	c-10.1,16.5-22.4,32.1-37,46.7c-14.6,14.6-30.2,26.9-46.7,37c16.5,10.1,32.1,22.4,46.7,37c14.6,14.6,26.9,30.2,37,46.7
	c10.1-16.5,22.4-32.1,37-46.7c14.6-14.6,30.2-26.9,46.7-37c-16.5-10.1-32.1-22.4-46.7-37C390,158.9,377.7,143.3,367.6,126.8z
	 M367.6,448.9c7.5,0,13.6,2.4,18.5,7.3c4.9,4.9,7.5,11.2,7.8,19c0,11.7,2.3,23.7,6.8,36c4.5,12.3,10.2,24.7,17,37
	s14.6,23.5,23.4,33.6c8.8,10.1,17.2,19.5,25.3,28.2c8.1,8.1,17.4,16.4,27.7,24.8s21.7,16.2,34.1,23.4c12.3,7.1,24.5,13,36.5,17.5
	c12,4.5,24.2,6.8,36.5,6.8c7.5,0,13.6,2.4,18.5,7.3c4.9,4.9,7.5,11.2,7.8,19c0,7.5-2.4,13.6-7.3,18.5c-4.9,4.9-11.2,7.5-19,7.8
	c-11.7,0-23.7,2.3-36,6.8s-24.7,10.4-37,17.5c-12.3,7.1-23.5,14.9-33.6,23.4s-19.5,16.7-28.2,24.8c-8.1,8.1-16.4,17.4-24.8,27.7
	c-8.4,10.4-16.2,21.7-23.4,34.1s-13,24.5-17.5,36.5c-4.5,12-6.8,24.2-6.8,36.5c0,7.5-2.4,13.6-7.3,18.5s-11.2,7.5-19,7.8
	c-7.5,0-13.6-2.4-18.5-7.3c-4.9-4.9-7.5-11.2-7.8-19c0-11.7-2.3-23.7-6.8-36c-4.5-12.3-10.4-24.7-17.5-37s-14.9-23.5-23.4-33.6
	c-8.4-10.1-16.7-19.5-24.8-28.2c-8.1-8.1-17.4-16.4-27.7-24.8s-21.7-16.2-34.1-23.4c-12.3-7.1-24.5-13-36.5-17.5
	c-12-4.5-24.2-6.8-36.5-6.8c-7.5,0-13.6-2.4-18.5-7.3c-4.9-4.9-7.5-11.2-7.8-19c0-7.5,2.4-13.6,7.3-18.5c4.9-4.9,11.2-7.5,19-7.8
	c11.7,0,23.7-2.3,36-6.8c12.3-4.5,24.7-10.2,37-17c12.3-6.8,23.5-14.6,33.6-23.4c10.1-8.8,19.5-17.2,28.2-25.3
	c8.1-8.1,16.4-17.4,24.8-27.7c8.4-10.4,16.2-21.7,23.4-34.1s13-24.5,17.5-36.5c4.5-12,6.8-24.2,6.8-36.5c0-7.5,2.4-13.6,7.3-18.5
	C353.5,451.8,359.9,449.2,367.6,448.9z M367.6,851.3c15.9-29.2,36.3-56.3,61.3-81.3c25-25,52.1-45.4,81.3-61.3
	c-29.2-15.9-56.3-36.3-81.3-61.3c-25-25-45.4-52.1-61.3-81.3c-15.9,29.2-36.3,56.3-61.3,81.3c-25,25-52.1,45.4-81.3,61.3
	c29.2,15.9,56.3,36.3,81.3,61.3C331.3,795,351.8,822.1,367.6,851.3z"/>
</svg>
