<svg id="Layer_1" data-name="Layer 1" xmlns="http://www.w3.org/2000/svg" viewBox="0 0 355 355"><defs><style>.cls-1{fill:#107c10;}.cls-2{fill:#fff;}</style></defs><circle class="cls-1" cx="177.5" cy="177.5" r="177.5"/><path class="cls-2" d="M177.5,348.42C83.25,348.42,6.58,271.75,6.58,177.5S83.25,6.58,177.5,6.58,348.42,83.26,348.42,177.5,271.75,348.42,177.5,348.42Zm0-338.55C85.07,9.87,9.87,85.07,9.87,177.5S85.07,345.13,177.5,345.13s167.63-75.2,167.63-167.63S269.93,9.87,177.5,9.87Z" transform="translate(0 0)"/><path class="cls-2" d="M130.08,238.86h-8.75l-15.06-20.73L91.21,238.86H82.45l19.44-26.75L84,187.46h8.75l13.54,18.63,13.53-18.63h8.75l-17.91,24.65Zm45.42-14.61c0,4.51-1.5,8.11-4.45,10.71s-7.24,3.9-12.76,3.9h-24.1V216H122.74l4.76-6.56h6.69V187.46h23.1c5.17,0,9.2,1.24,12,3.69a12.4,12.4,0,0,1,4.16,9.7A12,12,0,0,1,166.75,212a13.69,13.69,0,0,1,6.51,4.83,12.68,12.68,0,0,1,2.24,7.42M142,209.41h14.74c3,0,5.22-.66,6.7-2s2.22-3.31,2.22-5.94a6.56,6.56,0,0,0-2.31-5.34,10.11,10.11,0,0,0-6.61-1.93H142Zm25.54,14.69c0-2.7-.82-4.75-2.42-6.09s-4.07-2-7.3-2H142v16.12h15.82c3.14,0,5.57-.7,7.22-2.07a7.27,7.27,0,0,0,2.5-5.92m60.73-10.94A32.48,32.48,0,0,1,226.59,224a24.71,24.71,0,0,1-5.14,8.58,22.66,22.66,0,0,1-8,5.58,29,29,0,0,1-20.43,0,21.94,21.94,0,0,1-7.94-5.58,24.36,24.36,0,0,1-5.2-8.54,35,35,0,0,1,0-21.74,25.1,25.1,0,0,1,5.2-8.63,21.9,21.9,0,0,1,7.94-5.52,29.27,29.27,0,0,1,20.43,0,22.62,22.62,0,0,1,8,5.52,25.11,25.11,0,0,1,5.14,8.63,32.64,32.64,0,0,1,1.72,10.86m-42,0c0,6.05,1.56,10.9,4.66,14.42a16.83,16.83,0,0,0,24.65,0h0c3-3.47,4.59-8.32,4.59-14.42s-1.55-11-4.59-14.49a17,17,0,0,0-24.65,0c-3.1,3.62-4.66,8.49-4.66,14.49m66.84-1L271,187.46h-8.75l-13.54,18.63L235.2,187.46h-8.75l17.91,24.65-19.44,26.75h8.75l15.06-20.73,15.06,20.73h8.76Z" transform="translate(0 0)"/><path class="cls-2" d="M177.5,122.9a.23.23,0,0,1,.14.07c12.79,9.73,34.69,33.79,28,40.59a42.77,42.77,0,0,1-56.3,0c-6.68-6.8,15.22-30.86,28-40.59a.23.23,0,0,1,.14-.07m22.28-28a42.78,42.78,0,0,0-44.56,0,.17.17,0,0,0-.07.21.17.17,0,0,0,.21.08c8.28-1.79,20.86,5.36,22,6.08a.15.15,0,0,0,.18,0c1.19-.72,13.77-7.87,22-6.08a.17.17,0,0,0,.21-.08.17.17,0,0,0-.07-.21m-52.22,6a.49.49,0,0,0-.18.14,42.73,42.73,0,0,0-3.9,56.26.19.19,0,0,0,.23.07.18.18,0,0,0,0-.22c-3.26-10.08,13.4-34.52,22-44.76a.22.22,0,0,0,.06-.13.19.19,0,0,0-.07-.14c-13-13-17.48-11.6-18.2-11.22m41.68,11.22a.19.19,0,0,0-.07.14.22.22,0,0,0,.06.13c8.6,10.24,25.27,34.68,22,44.76a.18.18,0,0,0,0,.22.19.19,0,0,0,.23-.07,42.77,42.77,0,0,0-3.9-56.26.45.45,0,0,0-.19-.14c-.71-.38-5.14-1.75-18.19,11.22" transform="translate(0 0)"/><path class="cls-2" d="M214.32,92.46a3.68,3.68,0,0,1-1.13,2.75,3.78,3.78,0,0,1-2.79,1.12,3.84,3.84,0,0,1-2.78-1.08,4,4,0,0,1,0-5.52,3.78,3.78,0,0,1,2.79-1.13,3.82,3.82,0,0,1,2.75,1.08,3.71,3.71,0,0,1,1.14,2.78m-.46,0A3.47,3.47,0,0,0,208,90a3.45,3.45,0,0,0,2.47,5.9,3.41,3.41,0,0,0,3.44-3.46m-1.55,2.44h-.84l-.54-1.19c-.28-.6-.57-.9-.89-.9h-.46v2.09h-.7v-5h1.41a2.13,2.13,0,0,1,1.4.41,1.23,1.23,0,0,1,.41.94,1.27,1.27,0,0,1-.33.87,1.67,1.67,0,0,1-.94.49v0c.28.06.56.37.83.92Zm-1-3.53a.71.71,0,0,0-.24-.61,1.42,1.42,0,0,0-.91-.23h-.62v1.7h.75c.68,0,1-.29,1-.86" transform="translate(0 0)"/><path class="cls-2" d="M282.43,235a3.68,3.68,0,0,1-1.13,2.75,4.09,4.09,0,0,1-5.57,0,3.68,3.68,0,0,1-1.11-2.75,3.86,3.86,0,0,1,3.92-3.89,3.82,3.82,0,0,1,2.75,1.08,3.71,3.71,0,0,1,1.14,2.78m-.47,0a3.32,3.32,0,0,0-1-2.45,3.36,3.36,0,0,0-2.44-1,3.3,3.3,0,0,0-2.47,1,3.36,3.36,0,0,0-1,2.44,3.44,3.44,0,1,0,6.88,0m-1.55,2.44h-.83l-.54-1.19c-.28-.6-.57-.9-.89-.9h-.46v2.09H277v-5h1.41a2.13,2.13,0,0,1,1.4.41,1.21,1.21,0,0,1,.41.94,1.27,1.27,0,0,1-.33.87,1.74,1.74,0,0,1-.94.49v0c.28.06.56.37.83.92Zm-1-3.54a.74.74,0,0,0-.24-.61,1.5,1.5,0,0,0-.91-.22h-.62v1.7h.75q1,0,1-.87" transform="translate(0 0)"/><path class="cls-2" d="M88.87,66.28A12.44,12.44,0,0,1,92,71.83a10.36,10.36,0,0,1-.32,6A13.6,13.6,0,0,1,88,83.27l-6,5.58L66.3,72.06l6-5.58Q81.19,58.1,88.87,66.28Zm-3.94,3.78a6.87,6.87,0,0,0-5-2.46,7.29,7.29,0,0,0-5.15,2.26L73,71.59,83,82.23l1.87-1.75a7,7,0,0,0,2.47-5.06A7.54,7.54,0,0,0,84.93,70.06Z" transform="translate(0 0)"/><path class="cls-2" d="M109.77,66.18,98.46,74.1,85.26,55.24l10.88-7.61,2.42,3.46-6.63,4.64,2.94,4.19L101,55.6l2.42,3.45-6.17,4.32,3,4.31,7.06-4.94Z" transform="translate(0 0)"/><path class="cls-2" d="M122,52.39a6,6,0,0,1,.23,5.6,10.76,10.76,0,0,1-5,4.63,12.48,12.48,0,0,1-5.88,1.6L109,59.67a9.24,9.24,0,0,0,6.48-.73,4.14,4.14,0,0,0,1.9-1.71,2,2,0,0,0,0-1.92,2.42,2.42,0,0,0-1.58-1.22,15.09,15.09,0,0,0-4-.18c-3.87.15-6.46-1-7.78-3.56a6.06,6.06,0,0,1-.25-5.46,9.35,9.35,0,0,1,4.54-4.48,15.43,15.43,0,0,1,5.37-1.79l2.21,4.26a9.16,9.16,0,0,0-5.44,1,4,4,0,0,0-1.8,1.65,2,2,0,0,0,0,1.9,2.44,2.44,0,0,0,1.45,1.27,11.51,11.51,0,0,0,3.34.21,14.39,14.39,0,0,1,5.51.62A5.78,5.78,0,0,1,122,52.39Z" transform="translate(0 0)"/><path class="cls-2" d="M132.68,55.22l-4.82,1.9-8.46-21.4,4.82-1.91Z" transform="translate(0 0)"/><path class="cls-2" d="M154.81,47.24a16.51,16.51,0,0,1-7.63,4q-5.38,1.38-9.25-.81T132.72,43a12.66,12.66,0,0,1,0-6.58A11,11,0,0,1,136,31.07a14.23,14.23,0,0,1,6.07-3.14,19,19,0,0,1,6.51-.62L149.8,32a12.86,12.86,0,0,0-6.7.13A7.47,7.47,0,0,0,139.66,34a6.59,6.59,0,0,0-1.82,3.27A8.63,8.63,0,0,0,138,41.4a7.86,7.86,0,0,0,3.1,4.87,6.42,6.42,0,0,0,5.28.66,7,7,0,0,0,2.73-1.25l-1.12-4.35-4.46,1.14-1-4L151.93,36Z" transform="translate(0 0)"/><path class="cls-2" d="M179.17,46.69l-5.22.37L163.47,33.3a20.42,20.42,0,0,1-1.28-1.82h-.07c.15.85.28,2.08.39,3.71l.89,12.61-4.88.35-1.62-23,5.57-.39,10.1,13.33,1.28,1.79h.07a22.59,22.59,0,0,1-.35-3.15l-.9-12.69,4.89-.35Z" transform="translate(0 0)"/><path class="cls-2" d="M197.29,48.26l-13.75-1.2,2-22.93,13.22,1.16-.36,4.2-8.06-.7-.45,5.1,7.5.65L197,38.73l-7.5-.65-.46,5.24,8.59.75Z" transform="translate(0 0)"/><path class="cls-2" d="M222.71,42a12.35,12.35,0,0,1-3,5.65,10.31,10.31,0,0,1-5.18,3,13.78,13.78,0,0,1-6.59-.11l-7.92-1.94,5.48-22.36,7.92,1.94Q225.38,31.09,222.71,42Zm-5.32-1.23a6.94,6.94,0,0,0-.64-5.5A7.31,7.31,0,0,0,212,32.16l-2.46-.6-3.47,14.17,2.49.61a7,7,0,0,0,5.58-.69A7.59,7.59,0,0,0,217.39,40.74Z" transform="translate(0 0)"/><path class="cls-2" d="M249.61,46.28l-7.32-3.53-2.45,5.09,6.72,3.24-1.83,3.79L238,51.63l-3.89,8-4.67-2.26,10-20.72,12,5.78Z" transform="translate(0 0)"/><path class="cls-2" d="M268,66.89a13.35,13.35,0,0,1-4.75,4.36,10.33,10.33,0,0,1-5.76,1.22,11.55,11.55,0,0,1-5.71-2.11,11.36,11.36,0,0,1-3.92-4.49,10.13,10.13,0,0,1-.94-5.65,12.55,12.55,0,0,1,2.26-5.75A13.73,13.73,0,0,1,254,50a10.36,10.36,0,0,1,5.8-1.23A11.77,11.77,0,0,1,265.63,51a11.16,11.16,0,0,1,3.87,4.44,10,10,0,0,1,.87,5.64A13.06,13.06,0,0,1,268,66.89ZM263.38,64a9.11,9.11,0,0,0,1.9-5.42,4.93,4.93,0,0,0-2.3-4,5.22,5.22,0,0,0-4.71-.77,8.43,8.43,0,0,0-4.42,3.54,8.56,8.56,0,0,0-1.75,5.34,5.11,5.11,0,0,0,2.33,4.05,5.21,5.21,0,0,0,4.61.81A8.28,8.28,0,0,0,263.38,64Z" transform="translate(0 0)"/><path class="cls-2" d="M276.12,90.86l-4.27-4.15,2.45-5.87q1.2-2.86-.2-4.23l-.81-.79-6.14,6.32-3.72-3.61,16-16.51,5.9,5.73q6,5.84,1.64,10.33a6.18,6.18,0,0,1-3.79,2,7.1,7.1,0,0,1-4.36-1l0,0q1,1.88-.11,4.83Zm6.53-16.12q2.1-2.17-.48-4.68l-1.69-1.64L276,73l1.61,1.56a3.77,3.77,0,0,0,2.57,1.17A3.12,3.12,0,0,0,282.65,74.74Z" transform="translate(0 0)"/><path class="cls-2" d="M90.67,289.61a12.25,12.25,0,0,1-5.29,3.55,10.35,10.35,0,0,1-6,.15,13.74,13.74,0,0,1-5.73-3.25l-6-5.5,15.52-17,6,5.5Q98.24,281.33,90.67,289.61ZM86.6,286a6.89,6.89,0,0,0,2.06-5.13,7.29,7.29,0,0,0-2.65-5l-1.87-1.7L74.31,285l1.89,1.73a7,7,0,0,0,5.23,2.07A7.59,7.59,0,0,0,86.6,286Z" transform="translate(0 0)"/><path class="cls-2" d="M98.27,308.91l-11.42-7.76,12.94-19,11,7.46-2.37,3.49-6.69-4.55-2.88,4.24,6.22,4.23-2.36,3.48-6.23-4.23-3,4.35,7.13,4.84Z" transform="translate(0 0)"/><path class="cls-2" d="M118.53,312.25a6,6,0,0,1-4.42,3.44,10.63,10.63,0,0,1-6.67-1.37,12.47,12.47,0,0,1-4.72-3.84L105,305.9a9.17,9.17,0,0,0,4.37,4.84,4.07,4.07,0,0,0,2.5.56,2,2,0,0,0,1.55-1.12,2.4,2.4,0,0,0,.07-2,15.7,15.7,0,0,0-2.16-3.33q-3.57-4.59-1.63-8.39a6.08,6.08,0,0,1,4.3-3.39,9.33,9.33,0,0,1,6.28,1.1,15.17,15.17,0,0,1,4.58,3.31l-2.18,4.28a9.07,9.07,0,0,0-4-3.83,3.88,3.88,0,0,0-2.39-.5,2,2,0,0,0-1.54,1.11,2.46,2.46,0,0,0-.19,1.92,11.37,11.37,0,0,0,1.77,2.83,14.13,14.13,0,0,1,2.7,4.85A5.78,5.78,0,0,1,118.53,312.25Z" transform="translate(0 0)"/><path class="cls-2" d="M125.37,321.79l-4.84-1.87,8.28-21.47,4.84,1.86Z" transform="translate(0 0)"/><path class="cls-2" d="M150.26,327.31a16.49,16.49,0,0,1-8.6-.17q-5.37-1.36-7.73-5.14a11.22,11.22,0,0,1-1-9,12.72,12.72,0,0,1,3.13-5.8,11,11,0,0,1,5.46-3.09,14.2,14.2,0,0,1,6.84.15,19.19,19.19,0,0,1,6,2.56l-1.2,4.72a12.75,12.75,0,0,0-5.94-3.09,7.41,7.41,0,0,0-3.91,0,6.54,6.54,0,0,0-3.16,2,8.42,8.42,0,0,0-1.87,3.67,7.78,7.78,0,0,0,.39,5.75A6.39,6.39,0,0,0,143,323a7,7,0,0,0,3,.21l1.1-4.36-4.46-1.13,1-4,9.49,2.4Z" transform="translate(0 0)"/><path class="cls-2" d="M177.28,331.42l-5.22-.38-8.42-15.1a21.48,21.48,0,0,1-1-2h-.06c0,.86,0,2.1-.14,3.72l-.91,12.61-4.88-.35L158.28,307l5.57.4L172,322l1,2H173a22.73,22.73,0,0,1,.1-3.16l.91-12.7,4.88.36Z" transform="translate(0 0)"/><path class="cls-2" d="M198.25,330l-13.76,1.1-1.84-22.94,13.23-1.06.34,4.2-8.07.65.41,5.1,7.51-.6.33,4.2-7.5.6.42,5.24,8.59-.68Z" transform="translate(0 0)"/><path class="cls-2" d="M221.37,313a12.38,12.38,0,0,1-.07,6.38,10.3,10.3,0,0,1-3.25,5,13.64,13.64,0,0,1-5.92,2.89l-7.94,1.87-5.27-22.41,7.94-1.86Q218.8,302.11,221.37,313Zm-5.3,1.31a6.91,6.91,0,0,0-3.07-4.6,7.28,7.28,0,0,0-5.59-.61l-2.47.58,3.34,14.2,2.5-.59a7,7,0,0,0,4.65-3.15A7.53,7.53,0,0,0,216.07,314.33Z" transform="translate(0 0)"/><path class="cls-2" d="M241.85,296.55,234.49,300l2.39,5.12,6.76-3.16,1.78,3.81-6.76,3.16,3.79,8.1-4.7,2.19L228,298.36l12.06-5.63Z" transform="translate(0 0)"/><path class="cls-2" d="M266.25,289.33a13.47,13.47,0,0,1,2.3,6,10.44,10.44,0,0,1-1,5.8,11.65,11.65,0,0,1-4.07,4.53,11.44,11.44,0,0,1-5.62,2,10.18,10.18,0,0,1-5.6-1.22,12.58,12.58,0,0,1-4.52-4.22,13.78,13.78,0,0,1-2.34-6.08,10.43,10.43,0,0,1,1-5.84,11.81,11.81,0,0,1,4.18-4.63,11.08,11.08,0,0,1,5.55-1.95,10,10,0,0,1,5.56,1.26A13.29,13.29,0,0,1,266.25,289.33Zm-4.38,3.27a9.05,9.05,0,0,0-4.33-3.76,4.9,4.9,0,0,0-4.6.64,5.21,5.21,0,0,0-2.46,4.09,9.9,9.9,0,0,0,6,9,5.53,5.53,0,0,0,7.09-4.65A8.31,8.31,0,0,0,261.87,292.6Z" transform="translate(0 0)"/><path class="cls-2" d="M290.15,283l-4.35,4.07-5.75-2.74q-2.81-1.33-4.23,0l-.83.77,6,6.43-3.79,3.54-15.71-16.82,6-5.61q6.12-5.71,10.4-1.14a6.2,6.2,0,0,1,1.76,3.88,7.08,7.08,0,0,1-1.24,4.3l0,0q1.92-.91,4.83.35Zm-15.78-7.31c-1.38-1.47-2.94-1.38-4.7.26l-1.72,1.6,4.37,4.68,1.65-1.53a3.82,3.82,0,0,0,1.29-2.51A3.17,3.17,0,0,0,274.37,275.73Z" transform="translate(0 0)"/></svg>