<svg id="Layer_1" data-name="Layer 1" xmlns="http://www.w3.org/2000/svg" xmlns:xlink="http://www.w3.org/1999/xlink" viewBox="0 0 279 48"><defs><style>.cls-1{fill:none;}.cls-2{clip-path:url(#clip-path);}.cls-3{fill:#fff;}</style><clipPath id="clip-path"><rect class="cls-1" x="0.77" y="0.28" width="278.23" height="47.43"/></clipPath></defs><g id="XGP_2020_White" data-name="XGP 2020 White"><g class="cls-2"><g class="cls-2"><path class="cls-3" d="M24.49,19.3s.05,0,.07,0c7.1,5.4,19.24,18.74,15.54,22.51a23.7,23.7,0,0,1-31.23,0c-3.7-3.77,8.44-17.11,15.54-22.51,0,0,.05,0,.08,0M36.84,3.75a23.73,23.73,0,0,0-24.71,0,.1.1,0,0,0,0,.12.1.1,0,0,0,.12,0c4.59-1,11.56,3,12.22,3.37l.06,0a.05.05,0,0,0,0,0c.67-.39,7.64-4.36,12.23-3.37a.1.1,0,0,0,.12,0,.1.1,0,0,0,0-.12m-29,3.34a.39.39,0,0,0-.1.08,23.71,23.71,0,0,0-2.16,31.2.1.1,0,0,0,.12,0,.1.1,0,0,0,0-.13C4,32.69,13.21,19.14,18,13.46a.1.1,0,0,0,0-.15C10.74,6.12,8.28,6.88,7.88,7.09M31,13.31a.1.1,0,0,0,0,.15c4.77,5.68,14,19.23,12.21,24.82a.11.11,0,0,0,0,.13.1.1,0,0,0,.12,0,23.71,23.71,0,0,0-2.16-31.2.39.39,0,0,0-.1-.08c-.4-.21-2.86-1-10.09,6.22m74.23-3.21H100.3L89.17,38.61h4.52l2.75-7.39h12.64l2.76,7.39h4.52Zm-7.4,17.33,4.93-13.06,4.93,13.06ZM86.89,23.59v15h-4.1V34.88a10.34,10.34,0,0,1-3.87,3.26,12.47,12.47,0,0,1-5.37,1.11,14.3,14.3,0,0,1-5.53-1,11.83,11.83,0,0,1-4.28-3.1A13.65,13.65,0,0,1,61,30.39a18.45,18.45,0,0,1-.93-6A18.39,18.39,0,0,1,61,18.27a13.2,13.2,0,0,1,2.82-4.72,12.07,12.07,0,0,1,4.37-3.07,14.84,14.84,0,0,1,5.64-1,13.62,13.62,0,0,1,8.69,2.73,11.25,11.25,0,0,1,4.09,7.33v.05H82.1v0A7.32,7.32,0,0,0,79.26,15a8.88,8.88,0,0,0-5.43-1.67,8.38,8.38,0,0,0-6.75,3,11.9,11.9,0,0,0-2.55,8,11.91,11.91,0,0,0,2.55,8,8.61,8.61,0,0,0,6.83,3,9,9,0,0,0,6.24-2.3,7.82,7.82,0,0,0,2.66-5.76H74.43V23.59ZM156.62,14v8.26h14.16v3.63H156.62v8.78h16v3.92H152.26V10.1h20.36V14ZM147.9,10.1V38.61h-4.19V16c-.54,1.58-1.26,3.55-2.16,5.86l-6.43,16.76h-3.65v0L125,21.85c-.78-2.06-1.49-4-2.12-5.78V38.61h-4.19V10.1h6l5.84,15.16c1.17,3.07,2.13,5.73,2.87,7.91.86-2.59,1.85-5.39,2.92-8.31l5.64-14.76Zm54.95,2.43a10.13,10.13,0,0,0-7.21-2.43H183.5V38.61h4.35V28.11h7.79a10.13,10.13,0,0,0,7.21-2.43,8.6,8.6,0,0,0,2.57-6.56,8.65,8.65,0,0,0-2.57-6.59m-15,1.41h7.71a5.61,5.61,0,0,1,4,1.34A5.13,5.13,0,0,1,201,19.12,5.07,5.07,0,0,1,199.6,23a5.65,5.65,0,0,1-4,1.32h-7.71ZM253.64,30.7A7.5,7.5,0,0,1,250.69,37c-1.95,1.52-4.7,2.29-8.15,2.29-3.74,0-6.7-.86-8.79-2.57s-3.16-4.22-3.19-7.49v-.05h4.36v0a6,6,0,0,0,2,4.76,8.83,8.83,0,0,0,5.72,1.59,8.28,8.28,0,0,0,4.83-1.21,4.07,4.07,0,0,0,1.68-3.5A3.36,3.36,0,0,0,247.75,28a14.57,14.57,0,0,0-5-1.81l-2.43-.52a14,14,0,0,1-6.65-2.88,7.09,7.09,0,0,1-2.25-5.54,6.79,6.79,0,0,1,2.73-5.64,11.8,11.8,0,0,1,7.37-2.11c3.72,0,6.56.81,8.43,2.41a8.46,8.46,0,0,1,2.91,6.62v0h-4.31v0a5.39,5.39,0,0,0-1.8-4c-1.07-.86-2.81-1.29-5.19-1.29a7.37,7.37,0,0,0-4.25,1,3.38,3.38,0,0,0-1.45,2.92,3.43,3.43,0,0,0,1.3,2.92A12.16,12.16,0,0,0,242,21.88l2.48.52c3.23.69,5.6,1.7,7,3a6.86,6.86,0,0,1,2.15,5.3m25.36,0A7.5,7.5,0,0,1,276.05,37c-2,1.52-4.7,2.29-8.15,2.29-3.75,0-6.7-.86-8.79-2.57s-3.16-4.22-3.19-7.49v-.05h4.36v0a6,6,0,0,0,2,4.76c1.27,1.06,3.2,1.59,5.72,1.59a8.28,8.28,0,0,0,4.83-1.21,4.07,4.07,0,0,0,1.68-3.5A3.34,3.34,0,0,0,273.1,28a14.42,14.42,0,0,0-5-1.81l-2.43-.52A14,14,0,0,1,259,22.75a7.09,7.09,0,0,1-2.25-5.54,6.79,6.79,0,0,1,2.73-5.64,11.8,11.8,0,0,1,7.37-2.11c3.72,0,6.56.81,8.43,2.41a8.46,8.46,0,0,1,2.91,6.62v0h-4.31v0a5.43,5.43,0,0,0-1.8-4c-1.07-.86-2.81-1.29-5.19-1.29a7.37,7.37,0,0,0-4.25,1,3.39,3.39,0,0,0-1.46,2.92,3.44,3.44,0,0,0,1.31,2.92,12.16,12.16,0,0,0,4.85,1.83l2.47.52c3.24.69,5.61,1.7,7,3A6.86,6.86,0,0,1,279,30.7M218.44,10.1h-4.92L202.38,38.61h4.53l2.75-7.39H222.3l2.75,7.39h4.52Zm-7.39,17.33L216,14.37l4.93,13.06Z"/></g></g></g></svg>