<?xml version="1.0" encoding="utf-8"?>
<!-- Generator: Adobe Illustrator 26.3.1, SVG Export Plug-In . SVG Version: 6.00 Build 0)  -->
<svg version="1.1" id="Layer_1" xmlns="http://www.w3.org/2000/svg" xmlns:xlink="http://www.w3.org/1999/xlink" x="0px" y="0px"
	 viewBox="0 0 1000 1000" style="enable-background:new 0 0 1000 1000;" xml:space="preserve">
<style type="text/css">
	.st0{fill:#FFFFFF;}
</style>
<path class="st0" d="M998.3,250.9v747.4H188.6V873.7H64V749.1H1.7V1.7h747.4v124.6h124.6v124.6H998.3z M64,686.9h622.8V64H64V686.9z
	 M811.4,811.4V188.6h-62.3v560.6H126.3v62.3H811.4z M936,313.1h-62.3v560.6H250.9V936H936V313.1z M558.9,252.8
	c1.6,3.2,5.2,11,10.7,23.4s11.7,26.6,18.5,42.8c6.8,16.2,13.1,33.3,19,51.1s10.2,33.6,13.1,47.2c4.5,24.7,5.8,45.4,3.9,62.3
	s-7.3,32.1-16.1,45.7c-3.9,6.2-8.4,11.5-13.6,16.1c-5.2,4.5-10.5,8.3-16.1,11.2s-11,5.4-16.5,7.3c-5.5,1.9-10.5,2.8-15.1,2.4
	c-5.5,0-10.7-1-15.6-2.9c-4.9-1.9-10.4-5.5-16.5-10.7c-6.2-5.2-12.7-11.5-19.5-19c-6.8-7.5-15.4-16.9-25.8-28.2
	c-4.5-5.2-8.8-9.9-12.7-14.1c-3.9-4.2-7-7.3-9.2-9.2l-5.4-3.4c-1-1-2.1-1.8-3.4-2.4c-1.3-0.6-3.1-1.3-5.4-1.9
	c-2.3-0.6-5.7-1.1-10.2-1.5c-4.5-0.3-10.1-0.5-16.5-0.5h-62.3c-6.8,0-12.3,0.2-16.5,0.5s-7.5,0.8-9.7,1.5c-2.3,0.6-4.2,1.3-5.8,1.9
	c-1.6,0.6-2.8,1.5-3.4,2.4l-6.8,4.4c-1.6,1.3-4.2,4.1-7.8,8.3c-3.6,4.2-7.8,8.9-12.7,14.1c-9.7,11-18.2,20.4-25.3,28.2
	c-7.1,7.8-13.8,14.1-20,19c-6.2,4.9-11.5,8.3-16.1,10.2s-9.9,3.1-16.1,3.4c-4.5,0-9.6-0.8-15.1-2.4c-5.5-1.6-11-3.9-16.5-6.8
	c-5.5-2.9-10.9-6.8-16.1-11.7c-5.2-4.9-9.7-10.2-13.6-16.1c-8.4-13.3-13.6-28.4-15.6-45.3s-0.8-37.8,3.4-62.8
	c2.3-13.6,6.3-29,12.2-46.2c5.8-17.2,12.2-34.1,19-50.6c6.8-16.5,13-30.8,18.5-42.8c5.5-12,9.4-20.3,11.7-24.8
	c2.6-5.8,6.7-11.5,12.2-17v-0.5c0-12,5.2-20.9,15.6-26.8c1.9-1,4.7-2.1,8.3-3.4c3.6-1.3,7.8-2.8,12.7-4.4s9.6-3.1,14.1-4.4
	s8.9-2.4,13.1-3.4l7.3-1c4.9-0.6,10.5-1.5,17-2.4c6.5-1,13.5-1.3,20.9-1s13.5,1.6,18,3.9c2.3,1,6.2,3.1,11.7,6.3
	c1.3,0.6,2.6,1.5,3.9,2.4c1.3,1,2.8,1.8,4.4,2.4h49.1c1.3-0.6,2.6-1.5,3.9-2.4c1.3-1,2.8-1.8,4.4-2.4c2.6-1.6,4.7-2.9,6.3-3.9
	c1.6-1,3.1-1.8,4.4-2.4c4.9-2.3,10.9-3.4,18-3.4s14.1,0.2,20.9,0.5s12.7,1,17.5,1.9c4.9,1,7.3,1.5,7.3,1.5c3.9,1,8.3,2.1,13.1,3.4
	c4.9,1.3,9.6,2.6,14.1,3.9c4.5,1.3,8.8,2.8,12.7,4.4c3.9,1.6,6.8,2.9,8.8,3.9c4.5,2.9,8.1,6.7,10.7,11.2c2.6,4.5,4.1,9.7,4.4,15.6
	v0.5c2.9,2.9,5.4,5.8,7.3,8.8C556,247.5,557.6,250.2,558.9,252.8z M556,491.7c0.6-1.3,1.5-3.1,2.4-5.4c1-2.3,1.9-6,2.9-11.2
	c1-5.2,1.1-11.4,0.5-18.5S560,440,558.4,428c-1.9-10.7-5.4-23.5-10.2-38.4s-10.4-29.7-16.5-44.3c-6.2-14.6-11.7-27.9-16.5-39.9
	c-4.9-12-8.8-20.3-11.7-24.8c-4.2-2.3-7.9-5.4-11.2-9.2c-3.2-3.9-5.5-8.4-6.8-13.6l-7.8-1.9l-7.8-1.9c-4.9-1.3-9.9-1.9-15.1-1.9
	c-5.2,0-9.2-0.3-12.2-1l-1.9,1c-6.8,4.5-12.5,7.8-17,9.7c-4.5,1.9-9.1,3.4-13.6,4.4h-69.6c-4.5-0.6-8.9-1.9-13.1-3.9
	c-4.2-1.9-9.9-5.4-17-10.2l-1.9-1c-2.6,0.3-6.5,0.5-11.7,0.5s-10.4,0.8-15.6,2.4c-2.6,0.6-5,1.3-7.3,1.9c-2.3,0.6-4.9,1.3-7.8,1.9
	c-2.6,9.4-8.1,16.4-16.5,20.9c-2.9,5.2-7.1,13.8-12.7,25.8c-5.5,12-11.2,25.5-17,40.4c-5.8,14.9-11.4,29.8-16.5,44.8
	s-8.8,27.7-10.7,38.4c-1.9,11.7-3.1,21.2-3.4,28.7c-0.3,7.5-0.2,13.6,0.5,18.5c0.6,4.9,1.5,8.4,2.4,10.7c1,2.3,2.1,4.2,3.4,5.8
	c0.6,1.9,2.4,3.7,5.4,5.4l7.8-7.8c2.9-2.9,6-6.2,9.2-9.7c3.2-3.6,6.3-7,9.2-10.2c2.9-3.2,5.5-6.3,7.8-9.2
	c9.1-10.1,16.1-17.7,20.9-22.9c4.9-5.2,9.6-9.1,14.1-11.7c4.9-3.2,9.6-6.2,14.1-8.8c4.5-2.6,9.7-4.5,15.6-5.8
	c5.8-1.3,12.2-2.4,19-3.4c6.8-1,15.4-1.5,25.8-1.5h62.3c10.1,0,18.5,0.3,25.3,1s13,1.8,18.5,3.4c5.5,1.6,10.4,3.4,14.6,5.4
	c4.2,1.9,8.4,4.5,12.7,7.8c6.2,3.6,11.8,7.9,17,13.1c5.2,5.2,12.3,13,21.4,23.4c4.5,5.5,10.1,11.8,16.5,19s12.3,13.1,17.5,18
	l2.9-1.9C554,494.5,555,493.3,556,491.7z M375.4,297.6c8.4,0,15.7,3.1,21.9,9.2c6.2,6.2,9.2,13.5,9.2,21.9c0,8.4-3.1,15.7-9.2,21.9
	c-6.2,6.2-13.5,9.2-21.9,9.2c-8.4,0-15.7-3.1-21.9-9.2c-6.2-6.2-9.2-13.5-9.2-21.9c0-8.4,3.1-15.7,9.2-21.9
	C359.7,300.7,367,297.6,375.4,297.6z"/>
</svg>
