<?xml version="1.0" encoding="utf-8"?>
<!-- Generator: Adobe Illustrator 26.3.1, SVG Export Plug-In . SVG Version: 6.00 Build 0)  -->
<svg version="1.1" id="Layer_1" xmlns="http://www.w3.org/2000/svg" xmlns:xlink="http://www.w3.org/1999/xlink" x="0px" y="0px"
	 viewBox="0 0 1000 1000" style="enable-background:new 0 0 1000 1000;" xml:space="preserve">
<style type="text/css">
	.st0{fill:#FFFFFF;}
</style>
<path class="st0" d="M64.5,328.7c8.4,0,15.6,2.9,21.4,8.8s8.9,13.1,9.2,21.9v94.4c0,9.1-3.1,16.4-9.2,21.9
	c-6.2,5.5-13.6,8.4-22.4,8.8c-8.4,0-15.6-2.9-21.4-8.8s-8.9-13.1-9.2-21.9v-94.4c0-8.8,3.1-16.1,9.2-21.9S55.7,328.7,64.5,328.7z
	 M219.7,297.1v250.1c0,8.8-3.1,16.1-9.2,21.9s-13.6,8.8-22.4,8.8c-8.1,0-15.2-3.1-21.4-9.2c-6.2-6.2-9.2-13.3-9.2-21.4V297.1
	c0-8.4,3.1-15.6,9.2-21.4c6.2-5.8,13.6-8.9,22.4-9.2c8.1,0,15.2,3.1,21.4,9.2S219.7,289,219.7,297.1z M967.1,910.7
	c0,6.5-3.6,12-10.7,16.5c-7.1,4.5-16.4,8.3-27.7,11.2c-11.4,2.9-23.8,5.4-37.5,7.3c-13.6,1.9-26.8,3.2-39.4,3.9
	c-12.7,0.6-24.3,1.1-35,1.5c-10.7,0.3-18.5,0.5-23.4,0.5c-4.5,0-11.2-0.2-20-0.5c-8.8-0.3-18.5-1.1-29.2-2.4
	c-10.7-1.3-21.7-2.9-33.1-4.9c-11.4-1.9-21.6-4.4-30.7-7.3c-9.1-2.9-16.5-6.5-22.4-10.7c-5.8-4.2-8.9-9.2-9.2-15.1
	c0-11-1.1-23-3.4-36s-5.5-25.8-9.7-38.4c-4.2-12.7-8.6-25.3-13.1-38c-4.5-12.7-9.2-23.8-14.1-33.6H468.9c-22.4,0-43-5.5-61.8-16.5
	c-18.8-11-33.9-26.3-45.3-45.7c-5.5-9.7-9.7-19.6-12.7-29.7c-2.9-10.1-4.5-20.9-4.9-32.6H282v-62.3h268.1l15.1,15.1
	c4.9,4.9,9.9,10.2,15.1,16.1c15.6,17.2,30.5,36.7,44.8,58.4c14.3,21.7,27.2,44.4,38.9,68.1c11.7,23.7,21.2,48,28.7,73
	c7.5,25,13,49,16.5,72c15.6,3.9,31.8,6.3,48.7,7.3c16.9,1,33.4,1.5,49.6,1.5c15.6,0,31.3-0.3,47.2-1c15.9-0.6,31.5-2.9,46.7-6.8
	c-3.2-21.1-7.8-42.3-13.6-63.7c-5.8-21.4-13.3-42.7-22.4-63.7c-9.1-21.1-19.5-40.9-31.1-59.4c-11.7-18.5-24.7-36.2-38.9-53
	c-7.5-8.1-14.6-16.1-21.4-23.8c-6.8-7.8-14.1-15.9-21.9-24.3c14.3-11.7,26.9-21.9,38-30.7c11-8.8,20.6-18.2,28.7-28.2
	c8.1-10.1,13.9-21.2,17.5-33.6s5.7-28.2,6.3-47.7H493.7c-5.8,0-10.4-1.1-13.6-3.4c-3.2-2.3-5.7-5.2-7.3-8.8
	c-1.6-3.6-2.8-7.5-3.4-11.7c-0.6-4.2-0.8-8.8-0.5-13.6c0-6.8,2.4-12.7,7.3-17.5c4.9-4.9,10.7-7.3,17.5-7.3h348.9v-12.2
	c0-15.2-2.9-29.7-8.8-43.3S820,310.1,810,300c-10.1-10.1-22.1-18.2-36-24.3c-13.9-6.2-28.4-9.2-43.3-9.2H282v-62.3h182
	c27.2-17.8,56.8-36,88.6-54.5c31.8-18.5,64.6-35.2,98.3-50.1S719,72.4,754,63s69.4-14.3,103.2-14.6c8.4,0,17.2,0.6,26.3,1.9
	c9.1,1.3,17.7,3.9,25.8,7.8c8.1,3.9,14.4,9.2,19,16.1c4.5,6.8,7.1,15.6,7.8,26.3c0,8.8-2.1,17.4-6.3,25.8s-9.4,16.7-15.6,24.8
	c-6.2,8.1-12.8,15.7-20,22.9c-7.1,7.1-13.6,13.6-19.5,19.5c-6.8,6.8-13.3,14.4-19.5,22.9c-6.2,8.4-12,16.7-17.5,24.8
	c15.2,12,27.2,24.3,36,37c8.8,12.7,15.6,26.1,20.4,40.4c4.9,14.3,7.9,28.9,9.2,43.8c1.3,14.9,1.9,30.8,1.9,47.7v27.2
	c0,9.1-0.2,18.7-0.5,28.7c0,26.3-5.5,51.1-16.5,74.4c-11,23.4-26.6,43.3-46.7,59.9c30.2,33.4,54.8,71.2,74,113.4
	c19.1,42.2,33.3,85.3,42.3,129.4c2.3,11,4.4,22.2,6.3,33.6S967.1,899.3,967.1,910.7z M850.8,111.2c-1.6-0.3-3.2-0.5-4.9-0.5
	s-3.4,0-5.4,0c-23,0-46.6,2.8-70.6,8.3c-24,5.5-47.7,12.7-71,21.4c-23.4,8.8-46.2,18.8-68.6,30.2c-22.4,11.4-43.3,22.5-62.8,33.6
	H772c13-19.5,26.9-37.1,41.8-53c6.2-6.5,12.5-12.8,19-19S845.3,119,850.8,111.2z M468.9,702.4h90c-7.1-11-14.8-21.9-22.9-32.6
	s-17-20.6-26.8-29.7H406.6c0,8.8,1.6,16.9,4.9,24.3c3.2,7.5,7.6,13.9,13.1,19.5c5.5,5.5,12.2,10.1,20,13.6
	C452.3,701.1,460.4,702.7,468.9,702.4z"/>
</svg>
