<?xml version="1.0" encoding="utf-8"?>
<!-- Generator: Adobe Illustrator 24.2.3, SVG Export Plug-In . SVG Version: 6.00 Build 0)  -->
<svg version="1.1" id="Layer_1" xmlns="http://www.w3.org/2000/svg" xmlns:xlink="http://www.w3.org/1999/xlink" x="0px" y="0px"
	 viewBox="0 0 114 105" style="enable-background:new 0 0 114 105;" xml:space="preserve">
<style type="text/css">
	.st0{display:none;}
	.st1{fill:#FFFFFF;}
</style>
<rect x="-0.04" width="114" height="105"/>
<rect x="-18.5" y="-59" class="st0" width="151.5" height="223"/>
<g>
	<g>
		<path class="st1" d="M17.42,94.29c0,1.88-0.41,3.59-1.22,5.06c-0.82,1.47-2.04,2.61-3.59,3.35c-1.55,0.82-3.35,1.22-5.31,1.22
			H1.66V85.23h5.79c3.35,0,5.88,0.82,7.51,2.29C16.52,88.98,17.42,91.27,17.42,94.29z M14.07,94.29c0-2.12-0.57-3.67-1.8-4.82
			s-2.86-1.71-5.06-1.71H4.68v13.39h2.53c2.2,0,3.92-0.57,5.06-1.8C13.5,98.12,14.07,96.41,14.07,94.29z"/>
		<path class="st1" d="M19.78,103.84V85.15H29.9v2.69h-7.02v5.31h6.53v2.69h-6.53v5.39h7.43v2.69L19.78,103.84z"/>
		<path class="st1" d="M33.09,103.84V85.15h3.1v16h7.35v2.69L33.09,103.84z"/>
		<path class="st1" d="M46.15,103.84V85.15h3.1v18.69H46.15z"/>
		<path class="st1" d="M61.98,103.84h-3.59l-6.61-18.69h3.43l4.65,14.2c0.16,0.49,0.33,0.98,0.33,1.71h0.08
			c0.08-0.57,0.16-1.14,0.33-1.71l4.73-14.12h3.26L61.98,103.84z"/>
		<path class="st1" d="M71.12,103.84V85.15h10.12v2.69h-7.02v5.31h6.53v2.69h-6.53v5.39h7.43v2.69L71.12,103.84z"/>
		<path class="st1" d="M93.73,103.84l-2.29-5.39c-0.57-1.47-1.47-2.2-2.53-2.2h-1.47v7.59h-3.1V85.15h6.04
			c1.96,0,3.51,0.41,4.57,1.31c1.06,0.9,1.63,2.12,1.63,3.75c0,1.31-0.33,2.37-1.06,3.35c-0.73,0.9-1.71,1.55-3.02,1.88v0.08
			c0.41,0.16,0.82,0.41,1.14,0.9c0.41,0.49,0.73,0.98,0.9,1.47L97.4,104L93.73,103.84z M93.32,90.45c0-0.9-0.33-1.55-0.9-2.04
			c-0.57-0.49-1.39-0.73-2.45-0.73h-2.45v5.88h2.45c0.98,0,1.8-0.33,2.45-0.9C92.99,92.17,93.32,91.43,93.32,90.45z"/>
		<path class="st1" d="M106.21,97.06v6.77h-3.1v-6.69l-6.04-12h3.51l3.75,7.84c0.16,0.24,0.24,0.49,0.24,0.65s0.08,0.41,0.16,0.49
			l0,0c0.08-0.41,0.24-0.82,0.41-1.22l3.92-7.84h3.26L106.21,97.06z"/>
		<path class="st1" d="M25.74,76.17c0,1.63-0.57,2.94-1.8,3.84c-1.14,0.9-2.77,1.39-4.9,1.39c-0.82,0-1.63-0.08-2.53-0.33
			c-0.9-0.24-1.55-0.49-1.96-0.73V76.9c0.57,0.49,1.31,0.98,2.2,1.31c0.9,0.33,1.8,0.57,2.61,0.57c0.98,0,1.71-0.16,2.2-0.57
			c0.49-0.41,0.82-0.98,0.82-1.71c0-0.65-0.24-1.22-0.73-1.8s-1.47-1.22-2.94-1.96c-1.39-0.73-2.45-1.55-3.1-2.37
			c-0.65-0.82-1.06-1.88-1.06-3.02c0-0.98,0.24-1.88,0.82-2.69c0.49-0.82,1.31-1.39,2.2-1.88c0.98-0.41,2.04-0.65,3.35-0.65
			c0.82,0,1.63,0.08,2.37,0.24c0.82,0.16,1.31,0.33,1.63,0.49v3.26c-0.49-0.41-1.14-0.73-1.8-0.98c-0.73-0.24-1.47-0.33-2.2-0.33
			c-0.9,0-1.63,0.24-2.2,0.65s-0.82,0.98-0.82,1.71c0,0.49,0.08,0.9,0.24,1.22c0.16,0.33,0.49,0.65,0.9,0.98
			c0.41,0.33,1.06,0.73,2.12,1.31c1.63,0.9,2.86,1.71,3.59,2.61C25.33,74.05,25.74,75.03,25.74,76.17z"/>
		<path class="st1" d="M45.74,81.07V69.15c0-0.9,0.08-2.2,0.16-4h-0.08c-0.16,0.98-0.33,1.63-0.57,2.12l-5.63,13.87h-2.04
			l-5.71-13.71c-0.16-0.49-0.33-1.22-0.57-2.2h-0.08c0,0.24,0.08,0.82,0.08,1.88c0,0.98,0.08,1.88,0.08,2.53v11.51h-2.86V62.46h4.41
			l4.73,11.83c0.49,1.14,0.73,1.96,0.82,2.61h0.08l0.98-2.61l4.9-11.75h4.24v18.69L45.74,81.07z"/>
		<path class="st1" d="M65,81.07l-1.71-4.73h-7.51l-1.63,4.73h-3.43l7.1-18.69h3.43l7.1,18.69H65L65,81.07z M59.61,65.23
			L59.61,65.23c-0.16,0.49-0.24,0.98-0.33,1.31l-2.53,7.18h5.71l-2.53-7.18C59.77,66.29,59.69,65.89,59.61,65.23z"/>
		<path class="st1" d="M79.77,81.07l-2.29-5.39c-0.57-1.47-1.47-2.2-2.53-2.2h-1.47v7.59h-3.1V62.38h6.04
			c1.96,0,3.51,0.41,4.57,1.31c1.06,0.9,1.63,2.12,1.63,3.75c0,1.31-0.33,2.37-1.06,3.35c-0.73,0.9-1.71,1.55-3.02,1.88v0.08
			c0.41,0.16,0.82,0.41,1.14,0.9c0.41,0.49,0.73,0.98,0.9,1.47l2.86,6.12L79.77,81.07L79.77,81.07z M79.28,67.76
			c0-0.9-0.33-1.55-0.9-2.04s-1.39-0.73-2.45-0.73h-2.45v5.88h2.45c0.98,0,1.8-0.33,2.45-0.9C78.95,69.48,79.28,68.66,79.28,67.76z"
			/>
		<path class="st1" d="M92.5,65.07v16h-3.1v-16h-5.39v-2.69h13.87v2.69H92.5z"/>
	</g>
	<g>
		<path class="st1" d="M81.57,7.94L75.36,1H38.55l-6.2,6.94l0.08,36.16h49.3L81.57,7.94z M39.86,4.02h34.12l2.77,3.1H37L39.86,4.02z
			 M35.45,40.99l-0.08-30.77h43.18l0.08,30.77H35.45z"/>
		<polygon class="st1" points="65.98,23.36 63.77,21.08 58.55,26.3 58.55,13.32 55.37,13.32 55.37,26.3 50.14,21.08 47.94,23.28 
			57,32.34 		"/>
		<rect x="47.61" y="34.79" class="st1" width="18.85" height="3.1"/>
	</g>
</g>
</svg>
