<?xml version="1.0" encoding="utf-8"?>
<!-- Generator: Adobe Illustrator 28.2.0, SVG Export Plug-In . SVG Version: 6.00 Build 0)  -->
<svg version="1.1" id="Layer_1" xmlns="http://www.w3.org/2000/svg" xmlns:xlink="http://www.w3.org/1999/xlink" x="0px" y="0px"
	 viewBox="0 0 312 138" style="enable-background:new 0 0 312 138;" xml:space="preserve">
<style type="text/css">
	.st0{fill:#FFFFFF;}
</style>
<g>
	<path class="st0" d="M16.6,2.7c2.1,0,3.7,0.8,4.8,2.3c1.1,1.5,1.7,3.6,1.7,6.3c0,2.9-0.6,5.1-1.9,6.7c-1.3,1.6-3.1,2.4-5.5,2.4h0
		v-4h0c1.5,0,2.6-0.5,3.2-1.3c0.6-0.9,1-2.2,1-3.9c0-1.4-0.3-2.4-0.8-3.2c-0.5-0.7-1.3-1.1-2.2-1.1c-0.8,0-1.4,0.3-1.9,0.9
		c-0.4,0.6-0.8,1.8-1.1,3.4L13.4,13c-0.4,2.3-1.2,4-2.2,5.1c-1.1,1.1-2.5,1.7-4.2,1.7c-1.8,0-3.3-0.7-4.4-2.1
		C1.5,16.3,1,14.4,1,11.9C1,9.2,1.6,7,2.8,5.6c1.2-1.4,2.9-2.2,5-2.3h0v4h0C6.6,7.3,5.7,7.7,5.2,8.4s-0.8,1.9-0.8,3.4
		c0,1.2,0.2,2.2,0.7,2.8s1.1,1,1.9,1c0.8,0,1.5-0.3,1.9-0.9c0.4-0.6,0.8-1.7,1.1-3.2l0.4-1.8c0.5-2.5,1.2-4.3,2.2-5.4
		S14.9,2.7,16.6,2.7z M12.5,118.2c-1,1.1-1.7,2.9-2.2,5.4l-0.4,1.8c-0.3,1.5-0.7,2.6-1.1,3.2c-0.4,0.6-1.1,0.9-1.9,0.9
		c-0.8,0-1.5-0.3-1.9-1c-0.4-0.6-0.7-1.6-0.7-2.8c0-1.6,0.3-2.7,0.8-3.4c0.6-0.7,1.5-1.1,2.7-1.2h0v-3.9h0c-2.1,0.1-3.8,0.8-5,2.3
		C1.6,120.9,1,123,1,125.8c0,2.4,0.5,4.4,1.6,5.8c1.1,1.4,2.6,2.1,4.4,2.1c1.7,0,3.1-0.6,4.2-1.7c1.1-1.1,1.8-2.9,2.2-5.1l0.4-1.8
		c0.3-1.6,0.7-2.8,1.1-3.4c0.4-0.6,1.1-0.9,1.9-0.9c1,0,1.7,0.4,2.2,1.1c0.5,0.7,0.8,1.8,0.8,3.2c0,1.7-0.3,3-1,3.9
		c-0.6,0.9-1.7,1.3-3.2,1.3h0v4h0c2.4,0,4.3-0.8,5.5-2.4c1.3-1.6,1.9-3.8,1.9-6.7c0-2.7-0.6-4.8-1.7-6.3c-1.1-1.5-2.8-2.3-4.8-2.3
		C14.9,116.5,13.5,117.1,12.5,118.2z M22.7,66.6v4.2l0,0c-0.6,0.4-1.5,0.6-2.5,0.6l-2.3,0.1c-1.3,0.1-2.2,0.3-2.7,0.9
		c-0.5,0.5-0.8,1.3-0.8,2.5V80h8.3V84H1.5v-9.6c0-0.5,0-0.9,0.1-1.4c0,0.1,0,0.3,0,0.4c0.1-1.6,0.5-3,1.2-4.1
		c-0.1,0.1-0.1,0.2-0.2,0.2c0.2-0.3,0.3-0.5,0.5-0.7c1.1-1.3,2.5-2,4.4-2c2.5,0,4.2,1.2,5,3.5c0.3-1,0.9-1.8,1.6-2.2
		c0.7-0.5,1.7-0.7,2.9-0.8l3.1-0.2C21.2,67.2,22,67,22.7,66.6L22.7,66.6z M7.9,71.1c-1,0-1.8,0.3-2.3,0.9s-0.8,1.6-0.8,2.7V80h6.4
		v-5.3c0-1.1-0.3-2-0.8-2.6C9.8,71.4,9,71.1,7.9,71.1z M1.5,58h21.2V54H1.5V58z M5.1,28.5H1.5v15.6h21.2V28.5H19V40h-5.4V29.6h-3.5
		v10.5h-5V28.5z M5.1,92.8H1.5v15.6h21.2V92.8H19v11.6h-5.4V93.8h-3.5v10.5h-5V92.8z M31.9,134.2H60l21.4-29.4L67.3,85.4L31.9,134.2
		z M155.1,3.3H127l-17.5,24.1l14.1,19.4L155.1,3.3z M63.9,3.3H35.8l95.1,130.9H159L63.9,3.3z"/>
	<rect x="177.8" y="3.3" class="st0" width="5.8" height="130.9"/>
	<g>
		<path class="st0" d="M216.7,63.3c4.9,4.4,10.1,7,18.7,9.6l13.5-18.5c-7.6-2-9.8-3.3-12.9-5.8c-3.8-2.9-4.8-5.9-4.8-11.5
			c0-5.5,1.9-9,6.1-12c4.3-3,8.6-4,16.7-4c22.2,0,29.1,9.9,34.6,17.8l12.6-17.7c-1.8-2.9-6-7.5-8.7-9.8c-8.2-7-22.4-10.4-38.7-10.4
			c-13.6,0-26.7,3.2-34.7,9.4c-8,6.2-13.6,16.8-13.6,27.1C205.5,47.6,210.1,57.4,216.7,63.3z"/>
		<path class="st0" d="M300.2,71.4c-5.8-5.5-14-8.9-27-11.9l-13.8,18.8l2.1,0.5c10.6,2.3,14.1,4.7,18.2,7.7
			c3.1,2.3,5.4,5.7,5.4,11.1c0,6.7-1.5,10.7-6.4,14.2c-4.9,3.5-10.6,5-19.8,5c-15.6,0-31.4-6.8-38.2-23.5l-13.9,18.9
			c2.3,4.3,7.2,10.4,11,13.4c9.2,7.5,24,11.5,40.5,11.5c15.2,0,29.9-3.9,38.4-10.6c9.5-7.5,14.2-15.8,14.2-29.4
			C311,86,307.8,78.6,300.2,71.4z"/>
	</g>
</g>
</svg>
