<?xml version="1.0" encoding="utf-8"?>
<!-- Generator: Adobe Illustrator 24.3.0, SVG Export Plug-In . SVG Version: 6.00 Build 0)  -->
<svg version="1.1" id="Layer_1" xmlns="http://www.w3.org/2000/svg" xmlns:xlink="http://www.w3.org/1999/xlink" x="0px" y="0px"
	 viewBox="0 0 60 60" style="enable-background:new 0 0 60 60;" xml:space="preserve">
<style type="text/css">
	.st0{fill:#171717;}
	.st1{fill:#FFFFFF;}
</style>
<rect class="st0" width="60" height="60"/>
<g>
	<path class="st1" d="M59.5,28.2c0,0.8-0.1,1.5-0.4,2.2c-0.3,0.7-0.7,1.3-1.2,1.8s-1.1,0.9-1.8,1.2s-1.4,0.4-2.2,0.4h-7.4
		c-0.5,0-0.9-0.2-1.3-0.5L41,29.1L38.1,32l6.1,6.1c0.4,0.4,0.5,0.8,0.5,1.3v11.1c0,0.8-0.1,1.5-0.4,2.2s-0.7,1.3-1.2,1.8
		s-1.1,0.9-1.8,1.2s-1.4,0.4-2.2,0.4s-1.5-0.1-2.2-0.4s-1.3-0.7-1.8-1.2s-0.9-1.1-1.2-1.8s-0.4-1.4-0.4-2.2v-6.6L30,40l-4.2,4.2
		c-0.4,0.4-0.8,0.5-1.3,0.5H13.4c-0.8,0-1.5-0.1-2.2-0.4s-1.3-0.7-1.8-1.2S8.5,42,8.2,41.3S7.9,40,7.9,39.2S8,37.7,8.3,37
		s0.7-1.3,1.2-1.8s1.1-0.9,1.8-1.2s1.4-0.4,2.2-0.4H20l2.3-2.3c-1-0.4-1.8-1.1-2.4-2S19,27.4,19,26.2v-11c0-0.5,0.1-1,0.3-1.4
		s0.5-0.8,0.8-1.2s0.7-0.6,1.2-0.8s0.9-0.3,1.4-0.3h14.8c0-1,0.2-2,0.6-2.9c0.4-0.9,0.9-1.7,1.6-2.4S41.2,5,42,4.6S43.8,4,44.9,4
		c1,0,2,0.2,2.9,0.6s1.7,0.9,2.4,1.6s1.2,1.5,1.6,2.3c0.4,0.9,0.6,1.8,0.6,2.9c0,0.8-0.1,1.6-0.4,2.3s-0.6,1.4-1,2
		c-0.4,0.6-1,1.2-1.6,1.6s-1.3,0.8-2.1,1.1l4.1,4H54c0.8,0,1.5,0.1,2.2,0.4s1.3,0.7,1.8,1.2s0.9,1.1,1.2,1.8S59.5,27.4,59.5,28.2z
		 M44.8,7.9c-0.5,0-1,0.1-1.4,0.3S42.6,8.7,42.2,9s-0.6,0.7-0.8,1.2s-0.3,0.9-0.3,1.4s0.1,1,0.3,1.4s0.5,0.8,0.8,1.2
		s0.7,0.6,1.2,0.8s0.9,0.3,1.4,0.3s0.9-0.1,1.4-0.3s0.8-0.4,1.2-0.7s0.6-0.7,0.8-1.1s0.3-0.9,0.3-1.4s-0.1-1-0.3-1.5
		S47.8,9.4,47.5,9s-0.7-0.6-1.2-0.8S45.3,7.9,44.8,7.9z M54,30c0.5,0,0.9-0.2,1.3-0.5s0.5-0.8,0.5-1.3s-0.2-0.9-0.5-1.3
		s-0.8-0.5-1.3-0.5h-3.7c-0.5,0-0.9-0.2-1.3-0.5L38.4,15.2H22.6v11.1c0,0.5,0.2,0.9,0.5,1.3s0.8,0.5,1.3,0.5c0.7,0,1.2-0.2,1.4-0.7
		s0.4-1,0.5-1.7s0-1.5-0.1-2.2s-0.1-1.5-0.1-2.2s0.2-1.3,0.4-1.7s0.7-0.7,1.5-0.7h5.5c0.5,0,0.9,0.2,1.3,0.5s0.5,0.8,0.5,1.3
		s-0.2,0.9-0.5,1.3s-0.8,0.5-1.3,0.5H30V28c0,0.5-0.2,0.9-0.5,1.3l-7.4,7.4c-0.4,0.4-0.8,0.5-1.3,0.5h-7.4c-0.5,0-0.9,0.2-1.3,0.5
		s-0.5,0.8-0.5,1.3s0.2,0.9,0.5,1.3s0.8,0.5,1.3,0.5h10.3l5-5c0.4-0.4,0.8-0.5,1.3-0.5s0.9,0.2,1.3,0.5l5.5,5.5
		c0.4,0.4,0.5,0.8,0.5,1.3V50c0,0.5,0.2,0.9,0.5,1.3s0.8,0.5,1.3,0.5s0.9-0.2,1.3-0.5s0.5-0.8,0.5-1.3V40l-6.8-6.9
		c-0.4-0.4-0.5-0.8-0.5-1.3s0.2-0.9,0.5-1.3l5.5-5.5c0.4-0.4,0.8-0.5,1.3-0.5s0.9,0.2,1.3,0.5l5,5H54z M15.2,13.4
		c0,0.5-0.2,0.9-0.5,1.3s-0.8,0.5-1.3,0.5H2.3c-0.5,0-0.9-0.2-1.3-0.5s-0.5-0.8-0.5-1.3s0.2-0.9,0.5-1.3s0.8-0.5,1.3-0.5h11.1
		c0.5,0,0.9,0.2,1.3,0.5S15.2,12.9,15.2,13.4z M15.2,20.8c0,0.5-0.2,0.9-0.5,1.3s-0.8,0.5-1.3,0.5H6c-0.5,0-0.9-0.2-1.3-0.5
		s-0.5-0.8-0.5-1.3s0.2-0.9,0.5-1.3S5.5,19,6,19h7.4c0.5,0,0.9,0.2,1.3,0.5S15.2,20.3,15.2,20.8z M13.4,26.3c0.5,0,0.9,0.2,1.3,0.5
		s0.5,0.8,0.5,1.3S15,29,14.7,29.4S13.9,30,13.4,30H9.7c-0.5,0-0.9-0.2-1.3-0.5s-0.5-0.8-0.5-1.3s0.2-0.9,0.5-1.3s0.8-0.5,1.3-0.5
		h3.7V26.3z"/>
</g>
</svg>
