<?xml version="1.0" encoding="utf-8"?>
<!-- Generator: Adobe Illustrator 27.7.0, SVG Export Plug-In . SVG Version: 6.00 Build 0)  -->
<svg version="1.1" id="Layer_1" xmlns="http://www.w3.org/2000/svg" xmlns:xlink="http://www.w3.org/1999/xlink" x="0px" y="0px"
	 viewBox="0 0 60 60" style="enable-background:new 0 0 60 60;" xml:space="preserve">
<style type="text/css">
	.st0{fill:#171717;}
	.st1{fill:#FFFFFF;}
</style>
<rect class="st0" width="60" height="60"/>
<path class="st1" d="M57.5,48.2c0,0.5-0.2,0.9-0.5,1.3l-7.7,7.7c-0.4,0.4-0.8,0.5-1.3,0.5c-0.5,0-0.9-0.2-1.3-0.5l-9.2-9.2l-5,5
	c-0.4,0.4-0.8,0.5-1.3,0.5c-0.5,0-0.9-0.2-1.3-0.5c-0.3-0.3-0.5-0.8-0.5-1.3c0-0.5,0.2-1,0.5-1.3l2.7-2.7L3,18.3
	C2.6,18,2.5,17.5,2.5,17v-13c0-0.5,0.2-0.9,0.5-1.3s0.8-0.5,1.3-0.5h12.6c0.5,0,0.9,0.2,1.3,0.5L48,32.4l2.6-2.5
	c0.4-0.4,0.8-0.5,1.3-0.5c0.5,0,0.9,0.2,1.3,0.5s0.5,0.8,0.5,1.3c0,0.5-0.2,0.9-0.5,1.3l-5.3,5.3l9.2,9.2
	C57.4,47.3,57.5,47.7,57.5,48.2z M35.2,45.2l3.8-3.8L20.6,23c-0.4-0.4-0.5-0.8-0.5-1.3c0-0.5,0.2-0.9,0.5-1.3
	c0.4-0.4,0.8-0.5,1.3-0.5s0.9,0.2,1.3,0.5l18.4,18.4l3.9-3.8L16.1,5.9h-10v10.4L35.2,45.2z M48,53.4l5.2-5.2l-7.9-7.8l-5.2,5.2
	L48,53.4z"/>
</svg>
