<?xml version="1.0" encoding="utf-8"?>
<!-- Generator: Adobe Illustrator 27.7.0, SVG Export Plug-In . SVG Version: 6.00 Build 0)  -->
<svg version="1.1" id="Layer_1" xmlns="http://www.w3.org/2000/svg" xmlns:xlink="http://www.w3.org/1999/xlink" x="0px" y="0px"
	 viewBox="0 0 60 60" style="enable-background:new 0 0 60 60;" xml:space="preserve">
<style type="text/css">
	.st0{fill:#171717;}
	.st1{fill:#FFFFFF;}
</style>
<rect class="st0" width="60" height="60"/>
<path class="st1" d="M4.3,19.9c0.5,0,0.9,0.2,1.3,0.5c0.3,0.3,0.5,0.8,0.5,1.3v5.6c0,0.5-0.2,1-0.5,1.3c-0.4,0.3-0.8,0.5-1.3,0.5
	c-0.5,0-0.9-0.2-1.3-0.5c-0.3-0.3-0.5-0.8-0.5-1.3v-5.6c0-0.5,0.2-0.9,0.5-1.3S3.8,19.9,4.3,19.9z M13.5,18v14.8
	c0,0.5-0.2,0.9-0.5,1.3c-0.4,0.3-0.8,0.5-1.3,0.5c-0.5,0-0.9-0.2-1.3-0.5c-0.4-0.4-0.5-0.8-0.5-1.3V18c0-0.5,0.2-0.9,0.5-1.3
	c0.4-0.3,0.8-0.5,1.3-0.5c0.5,0,0.9,0.2,1.3,0.5C13.3,17.1,13.5,17.6,13.5,18z M57.5,54.2c0,0.4-0.2,0.7-0.6,1
	c-0.4,0.3-1,0.5-1.6,0.7c-0.7,0.2-1.4,0.3-2.2,0.4c-0.8,0.1-1.6,0.2-2.3,0.2c-0.7,0-1.4,0.1-2.1,0.1c-0.6,0-1.1,0-1.4,0
	c-0.3,0-0.7,0-1.2,0c-0.5,0-1.1-0.1-1.7-0.1c-0.6-0.1-1.3-0.2-2-0.3c-0.7-0.1-1.3-0.3-1.8-0.4s-1-0.4-1.3-0.6s-0.5-0.5-0.5-0.9
	c0-0.7-0.1-1.4-0.2-2.1c-0.1-0.8-0.3-1.5-0.6-2.3c-0.2-0.7-0.5-1.5-0.8-2.2c-0.3-0.7-0.5-1.4-0.8-2h-8.2c-1.3,0-2.5-0.3-3.6-1
	s-2-1.5-2.7-2.7c-0.3-0.6-0.6-1.2-0.7-1.8c-0.2-0.6-0.3-1.2-0.3-1.9h-3.7v-3.7H33l0.9,0.9c0.3,0.3,0.6,0.6,0.9,0.9
	c0.9,1,1.8,2.2,2.6,3.4c0.8,1.3,1.6,2.6,2.3,4c0.7,1.4,1.3,2.8,1.7,4.3c0.4,1.5,0.8,2.9,1,4.2c0.9,0.2,1.9,0.4,2.9,0.4
	c1,0.1,2,0.1,2.9,0.1c0.9,0,1.8,0,2.8-0.1c0.9,0,1.9-0.2,2.8-0.4c-0.2-1.2-0.5-2.5-0.8-3.8c-0.3-1.3-0.8-2.5-1.3-3.8
	s-1.1-2.4-1.8-3.5c-0.7-1.1-1.5-2.1-2.3-3.1c-0.4-0.5-0.9-0.9-1.3-1.4c-0.4-0.5-0.8-0.9-1.3-1.4c0.8-0.7,1.6-1.3,2.2-1.8
	c0.7-0.5,1.2-1.1,1.7-1.7c0.5-0.6,0.8-1.3,1-2s0.3-1.7,0.4-2.8H29.6c-0.3,0-0.6-0.1-0.8-0.2s-0.3-0.3-0.4-0.5
	c-0.1-0.2-0.2-0.4-0.2-0.7s0-0.5,0-0.8c0-0.4,0.1-0.7,0.4-1c0.3-0.3,0.6-0.4,1-0.4h20.6v-0.7c0-0.9-0.2-1.8-0.5-2.6
	s-0.8-1.5-1.4-2.1c-0.6-0.6-1.3-1.1-2.1-1.4c-0.8-0.4-1.7-0.5-2.6-0.5H17.1v-3.7h10.7c1.6-1.1,3.3-2.1,5.2-3.2
	c1.9-1.1,3.8-2.1,5.8-3s4-1.6,6.1-2.2s4.1-0.8,6.1-0.9c0.5,0,1,0,1.5,0.1c0.5,0.1,1,0.2,1.5,0.5c0.5,0.2,0.9,0.5,1.1,0.9
	c0.3,0.4,0.4,0.9,0.5,1.5c0,0.5-0.1,1-0.4,1.5s-0.6,1-0.9,1.5s-0.8,0.9-1.2,1.3c-0.4,0.4-0.8,0.8-1.1,1.1c-0.4,0.4-0.8,0.9-1.1,1.3
	s-0.7,1-1,1.5c0.9,0.7,1.6,1.4,2.1,2.2s0.9,1.5,1.2,2.4s0.5,1.7,0.5,2.6c0.1,0.9,0.1,1.8,0.1,2.8v1.6c0,0.5,0,1.1,0,1.7
	c0,1.5-0.3,3-1,4.4c-0.7,1.4-1.6,2.6-2.8,3.5c1.8,2,3.2,4.2,4.4,6.7c1.1,2.5,2,5,2.5,7.6c0.1,0.7,0.3,1.3,0.4,2
	C57.5,52.9,57.5,53.6,57.5,54.2z M50.7,7.1c-0.1,0-0.2,0-0.3,0c-0.1,0-0.2,0-0.3,0c-1.4,0-2.7,0.2-4.2,0.5c-1.4,0.3-2.8,0.7-4.2,1.3
	c-1.4,0.5-2.7,1.1-4,1.8c-1.3,0.7-2.6,1.3-3.7,2H46c0.8-1.1,1.6-2.2,2.5-3.1c0.4-0.4,0.7-0.8,1.1-1.1C50,7.9,50.4,7.5,50.7,7.1z
	 M28.2,41.9h5.3c-0.4-0.7-0.9-1.3-1.3-1.9c-0.5-0.6-1-1.2-1.6-1.8h-6.1c0,0.5,0.1,1,0.3,1.4c0.2,0.4,0.4,0.8,0.8,1.1
	s0.7,0.6,1.2,0.8C27.2,41.9,27.7,42,28.2,41.9z"/>
</svg>
