<?xml version="1.0" encoding="utf-8"?>
<!-- Generator: Adobe Illustrator 24.2.3, SVG Export Plug-In . SVG Version: 6.00 Build 0)  -->
<svg version="1.1" id="Layer_1" xmlns="http://www.w3.org/2000/svg" xmlns:xlink="http://www.w3.org/1999/xlink" x="0px" y="0px"
	 viewBox="0 0 238 105" style="enable-background:new 0 0 238 105;" xml:space="preserve">
<style type="text/css">
	.st0{fill:#FFFFFF;}
</style>
<rect x="0" width="238" height="105"/>
<g>
	<path class="st0" d="M12.88,2.01c1.57,0,2.8,0.58,3.67,1.73c0.87,1.14,1.3,2.76,1.3,4.8c0,2.18-0.49,3.89-1.48,5.09
		c-0.98,1.2-2.4,1.81-4.22,1.83h-0.02v-3.05h0.02c1.13-0.02,1.96-0.36,2.44-1.02c0.49-0.66,0.74-1.65,0.74-2.93
		c0-1.04-0.2-1.85-0.59-2.41c-0.4-0.55-0.97-0.82-1.71-0.82c-0.62,0-1.1,0.24-1.42,0.7C11.29,6.4,11,7.27,10.74,8.51l-0.27,1.36
		c-0.32,1.72-0.9,3.03-1.71,3.89c-0.81,0.86-1.89,1.29-3.19,1.29c-1.39,0-2.5-0.53-3.33-1.59C1.42,12.41,1,10.93,1,9.06
		c0-2.12,0.46-3.75,1.36-4.84c0.9-1.09,2.18-1.67,3.81-1.74H6.2v3.01H6.18C5.27,5.55,4.59,5.86,4.16,6.4S3.51,7.82,3.51,9.02
		c0,0.92,0.18,1.64,0.52,2.13s0.83,0.74,1.45,0.74c0.64,0,1.13-0.23,1.47-0.68c0.34-0.46,0.64-1.28,0.88-2.44l0.27-1.4
		c0.37-1.88,0.94-3.25,1.69-4.09S11.57,2.01,12.88,2.01z M9.78,89.95c-0.75,0.84-1.31,2.21-1.69,4.09l-0.27,1.4
		c-0.24,1.16-0.53,1.99-0.88,2.44c-0.34,0.45-0.84,0.68-1.47,0.68c-0.62,0-1.11-0.24-1.45-0.74c-0.34-0.49-0.52-1.21-0.52-2.13
		c0-1.2,0.22-2.07,0.65-2.62c0.43-0.54,1.11-0.84,2.02-0.91H6.2v-3.01H6.18c-1.63,0.06-2.91,0.65-3.81,1.74
		C1.46,91.99,1,93.61,1,95.74c0,1.87,0.42,3.34,1.23,4.4c0.82,1.06,1.94,1.59,3.33,1.59c1.3,0,2.38-0.43,3.19-1.3
		c0.81-0.86,1.39-2.17,1.71-3.89l0.27-1.36c0.25-1.24,0.55-2.11,0.88-2.58c0.33-0.46,0.81-0.7,1.42-0.7c0.74,0,1.32,0.27,1.71,0.82
		c0.4,0.55,0.59,1.36,0.59,2.41c0,1.29-0.25,2.27-0.74,2.93s-1.31,1-2.44,1.02h-0.02v3.05h0.02c1.82-0.02,3.24-0.63,4.22-1.83
		c0.97-1.2,1.48-2.91,1.48-5.09c0-2.04-0.44-3.66-1.3-4.8c-0.87-1.14-2.1-1.73-3.67-1.73C11.57,88.69,10.53,89.11,9.78,89.95z
		 M17.49,50.64v3.2l-0.02,0.01c-0.46,0.27-1.1,0.42-1.93,0.43l-1.76,0.07c-0.97,0.05-1.65,0.27-2.02,0.66
		c-0.38,0.4-0.57,1.03-0.57,1.9v3.95h6.3v3.1H1.36v-7.32c0-0.37,0.02-0.72,0.05-1.05c0,0.11,0,0.21,0,0.33
		c0.08-1.25,0.39-2.28,0.92-3.09c-0.05,0.05-0.09,0.11-0.13,0.17c0.11-0.2,0.24-0.38,0.39-0.55c0.81-1,1.94-1.5,3.34-1.5
		c1.9,0,3.2,0.89,3.84,2.64c0.26-0.78,0.66-1.36,1.2-1.7c0.55-0.36,1.3-0.55,2.24-0.58l2.4-0.14c0.76-0.02,1.39-0.18,1.87-0.49
		L17.49,50.64z M6.27,54.12c-0.75,0-1.34,0.24-1.74,0.72s-0.6,1.18-0.6,2.07v3.93h4.83V56.8c0-0.84-0.21-1.51-0.64-1.99
		C7.69,54.36,7.07,54.12,6.27,54.12z M1.36,44.16h16.13v-3.1H1.36V44.16z M4.14,21.65H1.36v11.91h16.13V21.65h-2.78v8.81h-4.1v-7.97
		H7.95v7.98H4.14V21.65z M4.14,70.58H1.36v11.91h16.13V70.58h-2.78v8.81h-4.1v-7.97H7.95v7.98H4.14V70.58z M24.5,102.13h21.41
		l16.27-22.39L51.47,65.01L24.5,102.13z M118.3,2.49H96.89L83.58,20.8l10.7,14.74L118.3,2.49z M48.87,2.49H27.45l72.39,99.64h21.41
		L48.87,2.49z"/>
	<rect x="135.59" y="2.49" class="st0" width="4.4" height="99.64"/>
	<g>
		<path class="st0" d="M165.2,48.13c3.75,3.35,7.7,5.34,14.21,7.29l10.25-14.07c-5.8-1.49-7.42-2.49-9.83-4.45
			c-2.89-2.18-3.66-4.47-3.66-8.76c0-4.2,1.42-6.84,4.65-9.11c3.26-2.28,6.57-3.03,12.74-3.03c16.9,0,22.18,7.56,26.32,13.53
			l9.63-13.45c-1.4-2.18-4.56-5.72-6.6-7.47c-6.27-5.34-17.04-7.93-29.48-7.93c-10.31,0-20.35,2.44-26.4,7.12
			c-6.06,4.68-10.38,12.77-10.38,20.61C156.65,36.24,160.21,43.68,165.2,48.13z"/>
		<path class="st0" d="M228.76,54.32c-4.42-4.18-10.68-6.75-20.58-9.04L197.7,59.62l1.62,0.37c8.05,1.77,10.76,3.61,13.85,5.86
			c2.37,1.73,4.12,4.3,4.12,8.42c0,5.09-1.13,8.11-4.86,10.79c-3.75,2.69-8.09,3.81-15.06,3.81c-11.9,0-23.89-5.14-29.08-17.9
			l-10.55,14.4c1.72,3.25,5.49,7.89,8.36,10.23c6.98,5.69,18.3,8.73,30.82,8.73c11.56,0,22.72-2.93,29.23-8.05
			C233.37,90.61,237,84.27,237,73.9C236.98,65.43,234.57,59.82,228.76,54.32z"/>
	</g>
</g>
</svg>
