<?xml version="1.0" encoding="utf-8"?>
<!-- Generator: Adobe Illustrator 24.3.0, SVG Export Plug-In . SVG Version: 6.00 Build 0)  -->
<svg version="1.1" id="Layer_1" xmlns="http://www.w3.org/2000/svg" xmlns:xlink="http://www.w3.org/1999/xlink" x="0px" y="0px"
	 viewBox="0 0 60 60" style="enable-background:new 0 0 60 60;" xml:space="preserve">
<style type="text/css">
	.st0{fill:#171717;}
	.st1{fill:#FFFFFF;}
</style>
<rect class="st0" width="60" height="60"/>
<g>
	<path class="st1" d="M35.6,0.5c2.2,0,4.3,0.3,6.3,0.8s3.9,1.4,5.7,2.4S51,6,52.4,7.4s2.7,3.1,3.7,4.8s1.8,3.7,2.4,5.7
		s0.8,4.1,0.9,6.3c0,3-0.5,5.8-1.6,8.5s-2.5,5.1-4.3,7.2s-4,3.9-6.5,5.3s-5.3,2.3-8.2,2.7c0.1,0.7,0.2,1.4,0.2,2.1s0.1,1.4,0.1,2.1
		c0,1-0.2,2-0.6,2.9c-0.4,0.9-0.9,1.7-1.6,2.3c-0.7,0.7-1.5,1.2-2.3,1.6s-1.8,0.6-2.9,0.6c-2.9,0-5.7-0.4-8.3-1.1s-5.2-1.8-7.5-3.2
		s-4.4-3-6.3-4.9s-3.5-4-4.9-6.3s-2.4-4.8-3.2-7.5c-0.7-2.7-1.1-5.4-1.1-8.3c0-1,0.2-1.9,0.5-2.8c0.4-0.9,0.9-1.7,1.6-2.4l0,0
		c0,0,0,0,0.1,0c0.7-0.7,1.5-1.2,2.4-1.6s1.8-0.6,2.8-0.6c0.7,0,1.4,0,2.1,0.1c0.7,0,1.4,0.1,2,0.2c0.4-3,1.3-5.7,2.7-8.2
		s3.2-4.7,5.3-6.5s4.5-3.3,7.2-4.3S32.6,0.5,35.6,0.5z M55.1,19.1c-0.4-1.4-0.9-2.7-1.5-4s-1.5-2.5-2.4-3.6L44.7,18
		c0.9,0.6,1.9,1.1,3,1.4s2.2,0.5,3.3,0.5C52.4,19.9,53.8,19.6,55.1,19.1z M40.7,4.8c-0.5,1.3-0.8,2.6-0.8,4c0,1.2,0.2,2.3,0.5,3.4
		s0.9,2.2,1.6,3.1l6.5-6.5c-1.1-1-2.4-1.8-3.7-2.5S42.2,5.2,40.7,4.8z M35.6,4.2c-2.4,0-4.7,0.4-6.9,1.2s-4.2,1.9-6,3.5l13,13
		l3.8-3.8c-1-1.3-1.8-2.8-2.4-4.3s-0.8-3.2-0.8-4.9c0-0.8,0.1-1.6,0.2-2.4S36.8,5,37,4.2c-0.2,0-0.5,0-0.7,0S35.9,4.2,35.6,4.2z
		 M20.1,11.5c-1.2,1.5-2.2,3.1-3,4.8s-1.3,3.6-1.5,5.5c2.5,0.6,4.8,1.5,7,2.7s4.2,2.6,6.2,4.3l4.3-4.3L20.1,11.5z M31.8,55.8
		c0.5,0,1-0.1,1.4-0.3s0.8-0.5,1.2-0.8c0.3-0.3,0.6-0.7,0.8-1.2c0.2-0.4,0.3-0.9,0.3-1.4c0-0.7,0-1.3-0.1-2s-0.1-1.3-0.2-2l0,0
		c-0.2-0.9-0.3-1.7-0.5-2.4s-0.3-1.4-0.5-2.1s-0.5-1.4-0.7-2.1c-0.3-0.7-0.6-1.5-1.1-2.3c-1.2-2.3-2.6-4.3-4.4-6.1
		c-1.7-1.8-3.7-3.4-5.8-4.7c-2.2-1.3-4.4-2.3-6.9-3c-2.4-0.7-4.9-1.1-7.4-1.1c-0.5,0-1,0.1-1.4,0.3c-0.5,0.4-0.9,0.6-1.2,1l0,0
		c-0.3,0.3-0.6,0.7-0.8,1.2c-0.2,0.4-0.3,0.9-0.3,1.4c0,2.5,0.3,5,1,7.3C5.8,37.8,6.8,40,8,42.1s2.7,3.9,4.3,5.6
		c1.7,1.7,3.5,3.1,5.6,4.3s4.3,2.2,6.6,2.8S29.3,55.8,31.8,55.8z M38.2,44.4c1.9-0.2,3.7-0.7,5.5-1.5s3.4-1.7,4.8-3L35.7,27
		l-4.4,4.4c1.6,1.8,3,3.9,4.2,6.1C36.7,39.7,37.6,42,38.2,44.4z M51.1,37.3c1.5-1.8,2.7-3.8,3.5-6s1.2-4.5,1.2-6.9v-0.8
		c0-0.2,0-0.5-0.1-0.8c-1.6,0.5-3.2,0.8-4.8,0.8s-3.1-0.2-4.7-0.7c-1.5-0.5-2.9-1.2-4.2-2.2l-3.8,3.8L51.1,37.3z M17.2,35l7.8,7.8
		l-2.6,2.6l-7.8-7.8L17.2,35z"/>
</g>
</svg>
