<svg width="260" height="128" viewBox="0 0 260 128" fill="none" xmlns="http://www.w3.org/2000/svg">
<path d="M133.7 97.4253V92.7901H109.521V126.533H133.7V121.898H114.693V111.507H131.506V107.201H114.693V97.4253H133.7ZM109.366 7.03092C117.084 5.37113 128.805 12.0125 129.917 12.679C129.94 12.6988 129.97 12.7096 130.001 12.7096C130.032 12.7096 130.061 12.6988 130.085 12.679C131.192 12.0169 142.926 5.37113 150.636 7.03092C150.671 7.04477 150.709 7.04545 150.745 7.03287C150.78 7.02028 150.81 6.99525 150.828 6.96249C150.844 6.92745 150.846 6.8877 150.834 6.85127C150.821 6.81483 150.796 6.78439 150.762 6.76606C144.658 3.15073 138.044 0.952393 130.001 0.952393C121.957 0.952393 115.344 3.15956 109.24 6.76606C109.206 6.78439 109.18 6.81483 109.168 6.85127C109.156 6.8877 109.157 6.92745 109.174 6.96249C109.192 6.99525 109.221 7.02028 109.257 7.03287C109.292 7.04545 109.331 7.04477 109.366 7.03092ZM130.131 32.879C130.095 32.8448 130.05 32.8226 130.001 32.815C129.951 32.8228 129.905 32.8452 129.868 32.879C117.95 41.9151 97.5432 64.2715 103.767 70.5861C111.031 76.9194 120.353 80.41 130.003 80.41C139.653 80.41 148.975 76.9194 156.239 70.5861C162.456 64.2736 142.05 41.9284 130.131 32.879ZM140.874 22.9115C140.877 22.9552 140.897 22.9961 140.929 23.0262C148.951 32.5435 164.482 55.2508 161.447 64.607C161.429 64.6408 161.423 64.68 161.431 64.7175C161.439 64.7551 161.461 64.7887 161.491 64.8121C161.529 64.8312 161.573 64.8349 161.614 64.8231C161.655 64.8113 161.69 64.7845 161.712 64.7482C167.57 57.0803 170.431 47.5502 169.762 37.935C169.092 28.3197 164.939 19.275 158.075 12.487C158.023 12.433 157.963 12.3875 157.898 12.3524C157.233 12.0081 153.1 10.7279 140.943 22.7833C140.922 22.7987 140.905 22.8182 140.893 22.8408C140.881 22.8634 140.875 22.8862 140.874 22.9115ZM98.5106 64.8144C98.5412 64.7907 98.5622 64.7574 98.5703 64.7198C98.5784 64.6823 98.573 64.6431 98.5549 64.6091C95.5195 55.2464 111.051 32.5456 119.072 23.0284C119.104 22.9984 119.124 22.9575 119.128 22.9136C119.127 22.8883 119.12 22.8634 119.108 22.8408C119.096 22.8182 119.08 22.7987 119.059 22.7833C106.902 10.7279 102.768 12.0081 102.104 12.3524C102.038 12.3875 101.978 12.433 101.927 12.487C95.0636 19.2763 90.9111 28.322 90.2434 37.9377C89.5757 47.5535 92.4387 57.0832 98.298 64.7503C98.3201 64.7845 98.3536 64.8098 98.3924 64.8216C98.4316 64.8335 98.4734 64.8308 98.5106 64.8144ZM161.024 92.7901H146.606V126.533H151.778V114.103H161.019C164.679 114.103 167.562 113.136 169.585 111.233C171.609 109.331 172.634 106.715 172.634 103.471C172.634 100.226 171.609 97.5688 169.585 95.6617C167.562 93.7547 164.683 92.7901 161.024 92.7901ZM165.728 107.995C164.637 109.037 163.023 109.565 160.928 109.565H151.783V97.328H160.928C163.023 97.328 164.637 97.8645 165.728 98.9195C166.82 99.9745 167.371 101.506 167.371 103.468C167.371 105.431 166.82 106.953 165.728 107.995ZM227.34 110.9C225.651 109.355 222.845 108.161 218.999 107.344L216.058 106.731C213.269 106.137 211.328 105.406 210.3 104.565C209.277 103.791 208.751 102.627 208.751 101.109C208.751 99.5905 209.333 98.4604 210.483 97.6526C211.632 96.8447 213.337 96.4321 215.527 96.4321C218.348 96.4321 220.418 96.944 221.682 97.9572C222.945 98.9703 223.675 100.568 223.82 102.718V102.764H228.943V102.714C228.881 99.4028 227.718 96.7719 225.491 94.8804C223.261 92.9887 219.891 92.031 215.48 92.031C211.821 92.031 208.876 92.8697 206.728 94.5227C204.58 96.176 203.484 98.4316 203.484 101.202C203.484 103.972 204.383 106.183 206.157 107.761C207.93 109.339 210.585 110.483 214.049 111.174L216.94 111.789C219.794 112.414 221.797 113.136 222.893 113.93C223.989 114.725 224.532 115.859 224.532 117.316C224.532 119.117 223.866 120.512 222.539 121.459C221.21 122.406 219.284 122.889 216.809 122.889C213.818 122.889 211.53 122.258 210.015 121.011C208.501 119.764 207.709 117.872 207.662 115.378V115.33H202.488V115.378C202.519 119.252 203.792 122.238 206.274 124.253C208.757 126.268 212.251 127.288 216.709 127.288C220.809 127.288 224.066 126.379 226.387 124.584C228.706 122.79 229.89 120.296 229.89 117.175C229.892 114.557 229.035 112.447 227.34 110.9ZM17.1119 113.16H27.0751C26.9688 115.915 25.9061 118.206 23.9156 119.974C21.9119 121.783 19.4211 122.702 16.5075 122.702C13.1576 122.702 10.4278 121.514 8.39305 119.17C6.35836 116.826 5.37092 113.652 5.37092 109.657C5.37092 105.662 6.38714 102.455 8.39305 100.142C10.3635 97.8027 13.0624 96.6108 16.4123 96.6108C18.9186 96.6108 21.0861 97.2729 22.8529 98.584C24.6117 99.8864 25.8127 101.803 26.216 103.95V103.989H31.5296V103.932C30.9917 100.345 29.36 97.4253 26.6765 95.2535C23.9931 93.0816 20.4883 92.031 16.3569 92.031C14.0654 91.9965 11.7891 92.4073 9.65505 93.2405C7.674 94.0465 5.90028 95.2866 4.46537 96.869C2.96896 98.4799 1.82715 100.385 1.11333 102.462C-0.368507 107.13 -0.368507 112.14 1.11333 116.809C1.82469 118.883 2.95496 120.79 4.43438 122.413C5.82742 124.001 7.56409 125.253 9.51336 126.074C11.6003 126.913 13.8345 127.329 16.0846 127.295C18.4824 127.295 20.6278 126.853 22.4587 125.97C24.2864 125.087 25.8641 123.762 27.0484 122.117V126.531H31.9194V108.761H17.1119V113.16ZM257.45 110.9C255.759 109.355 252.953 108.161 249.107 107.344L246.168 106.731C243.377 106.137 241.438 105.406 240.413 104.565C239.389 103.791 238.863 102.627 238.863 101.109C238.863 99.5905 239.445 98.4604 240.594 97.6526C241.744 96.8447 243.447 96.4321 245.638 96.4321C248.458 96.4321 250.528 96.944 251.792 97.9572C253.057 98.9703 253.785 100.568 253.93 102.718V102.764H259.051V102.714C258.989 99.4028 257.828 96.7719 255.599 94.8804C253.369 92.9887 250.001 92.031 245.588 92.031C241.929 92.031 238.984 92.8697 236.837 94.5227C234.688 96.176 233.592 98.4252 233.592 101.2C233.592 103.974 234.493 106.181 236.265 107.759C238.039 109.337 240.693 110.481 244.157 111.171L247.048 111.787C249.904 112.412 251.905 113.134 253.001 113.928C254.097 114.723 254.64 115.857 254.64 117.314C254.64 119.115 253.976 120.51 252.647 121.457C251.318 122.404 249.39 122.887 246.915 122.887C243.924 122.887 241.64 122.256 240.121 121.009C238.605 119.762 237.817 117.87 237.769 115.376V115.327H232.598V115.376C232.629 119.25 233.902 122.236 236.386 124.251C238.867 126.266 242.364 127.286 246.821 127.286C250.923 127.286 254.176 126.377 256.497 124.582C258.816 122.788 260 120.294 260 117.173C260 114.557 259.143 112.447 257.45 110.9ZM182.252 92.788L169.034 126.533H174.403L177.675 117.791H192.678L195.948 126.533H201.317L188.101 92.788H182.252ZM179.325 113.297L185.177 97.8469L191.028 113.297H179.325ZM47.8293 92.788L34.6115 126.533H39.9806L43.2508 117.791H58.2663L61.5363 126.533H66.901L53.6789 92.788H47.8293ZM44.9023 113.297L50.754 97.8469L56.6057 113.297H44.9023ZM84.8323 126.54H89.1652L96.8102 106.709C97.8708 103.972 98.7277 101.632 99.3675 99.7626V126.533H104.349V92.788H97.2043L90.507 110.258C89.2361 113.718 88.0715 117.027 87.0465 120.091C86.1608 117.513 85.0228 114.365 83.6324 110.73L76.7003 92.788H69.5998V126.533H74.5814V99.8532C75.3319 101.961 76.1733 104.267 77.0922 106.695L84.8192 126.496L84.8323 126.54Z" fill="#107C10"/>
</svg>
