<svg id="Layer_1" data-name="Layer 1" xmlns="http://www.w3.org/2000/svg" xmlns:xlink="http://www.w3.org/1999/xlink" viewBox="0 0 264 42"><defs><style>.cls-1{fill:none;}.cls-2{clip-path:url(#clip-path);}.cls-3{clip-path:url(#clip-path-2);}.cls-4{fill:#2f2f2f;}</style><clipPath id="clip-path"><rect class="cls-1" x="0.8" y="2.58" width="262.41" height="36.84"/></clipPath><clipPath id="clip-path-2"><rect class="cls-1" x="-21.42" y="-19.57" width="306.77" height="81.14"/></clipPath></defs><g class="cls-2"><g class="cls-3"><path class="cls-4" d="M24.27,12.7a.08.08,0,0,0,0,.12c3.7,4.41,10.88,14.93,9.48,19.27,0,0,0,.08,0,.1s.07,0,.1,0A18.43,18.43,0,0,0,32.19,7.93a.16.16,0,0,0-.08-.06c-.31-.16-2.22-.76-7.84,4.83M6.32,7.87a.21.21,0,0,0-.08.06A18.43,18.43,0,0,0,4.56,32.16s.07.05.1,0,0-.06,0-.1c-1.4-4.34,5.78-14.86,9.48-19.27a.08.08,0,0,0,0-.12c-5.62-5.59-7.53-5-7.84-4.83M28.81,5.28a18.4,18.4,0,0,0-19.19,0,.06.06,0,0,0,0,.09.08.08,0,0,0,.09,0c3.57-.77,9,2.31,9.5,2.62h.07c.52-.31,5.94-3.39,9.5-2.62,0,0,.08,0,.09,0a.06.06,0,0,0,0-.09M19.22,17.35l.06,0c5.5,4.19,14.94,14.56,12.06,17.48a18.4,18.4,0,0,1-24.25,0c-2.87-2.92,6.56-13.29,12.06-17.48a.15.15,0,0,1,.07,0m191.21,6.29,3.83-10.13,3.83,10.13Zm5.74-13.45h-3.82L203.7,32.33h3.52l2.14-5.74h9.81l2.14,5.74h3.51Zm47,16a5.85,5.85,0,0,1-2.29,4.86,10.13,10.13,0,0,1-6.33,1.77,10.55,10.55,0,0,1-6.82-2A7.16,7.16,0,0,1,245.28,25v0h3.38v0a4.64,4.64,0,0,0,1.54,3.69,6.87,6.87,0,0,0,4.44,1.24,6.43,6.43,0,0,0,3.75-.94,3.15,3.15,0,0,0,1.31-2.72,2.59,2.59,0,0,0-1.07-2.22,11.49,11.49,0,0,0-3.9-1.41l-1.89-.4A10.85,10.85,0,0,1,247.68,20a5.48,5.48,0,0,1-1.75-4.3,5.26,5.26,0,0,1,2.12-4.38,9.16,9.16,0,0,1,5.73-1.64c2.88,0,5.09.63,6.54,1.87a6.58,6.58,0,0,1,2.26,5.14v0h-3.35v0a4.16,4.16,0,0,0-1.4-3.12,6.48,6.48,0,0,0-4-1,5.72,5.72,0,0,0-3.3.8,2.62,2.62,0,0,0-1.13,2.27,2.66,2.66,0,0,0,1,2.26,9.15,9.15,0,0,0,3.77,1.42l1.92.41a11.72,11.72,0,0,1,5.45,2.33,5.34,5.34,0,0,1,1.67,4.12m-19.69,0a5.85,5.85,0,0,1-2.29,4.86,10.13,10.13,0,0,1-6.33,1.77,10.58,10.58,0,0,1-6.83-2A7.18,7.18,0,0,1,225.59,25v0H229v0a4.64,4.64,0,0,0,1.54,3.69A6.85,6.85,0,0,0,235,29.94,6.43,6.43,0,0,0,238.7,29a3.17,3.17,0,0,0,1.3-2.72,2.59,2.59,0,0,0-1.07-2.22A11.51,11.51,0,0,0,235,22.65l-1.89-.4A10.94,10.94,0,0,1,228,20a5.48,5.48,0,0,1-1.74-4.3,5.26,5.26,0,0,1,2.12-4.38,9.13,9.13,0,0,1,5.72-1.64c2.89,0,5.09.63,6.55,1.87a6.58,6.58,0,0,1,2.26,5.14v0h-3.35v0a4.16,4.16,0,0,0-1.4-3.12,6.51,6.51,0,0,0-4-1,5.76,5.76,0,0,0-3.3.8,2.62,2.62,0,0,0-1.13,2.27,2.66,2.66,0,0,0,1,2.26,9.27,9.27,0,0,0,3.77,1.42l1.92.41a11.72,11.72,0,0,1,5.46,2.33,5.34,5.34,0,0,1,1.67,4.12m-51.09-13h6a4.36,4.36,0,0,1,3.14,1,4,4,0,0,1,1.08,3,3.94,3.94,0,0,1-1.08,3,4.35,4.35,0,0,1-3.14,1h-6Zm11.65-1.1a7.89,7.89,0,0,0-5.61-1.88H189V32.33h3.38V24.17h6a7.89,7.89,0,0,0,5.61-1.88,6.72,6.72,0,0,0,2-5.09,6.76,6.76,0,0,0-2-5.13m-42.68-1.88V32.33h-3.25V14.76c-.42,1.23-1,2.76-1.68,4.56l-5,13h-2.83v0l-5.05-13c-.61-1.61-1.16-3.12-1.65-4.5V32.33h-3.26V10.19h4.65L147.84,22c.91,2.38,1.66,4.45,2.24,6.14.67-2,1.43-4.18,2.26-6.45l4.38-11.46Zm6.77,3v6.41h11v2.83h-11v6.82h12.43v3H164.78V10.19h15.81v3ZM114,20.67V32.33h-3.18v-2.9a7.93,7.93,0,0,1-3,2.53,9.65,9.65,0,0,1-4.17.86,11.1,11.1,0,0,1-4.3-.8A9.18,9.18,0,0,1,96,29.62a10.49,10.49,0,0,1-2.17-3.68,14.28,14.28,0,0,1-.72-4.68,14.58,14.58,0,0,1,.73-4.73,10.49,10.49,0,0,1,2.19-3.67,9.26,9.26,0,0,1,3.39-2.37,11.52,11.52,0,0,1,4.39-.8,10.58,10.58,0,0,1,6.75,2.12,8.75,8.75,0,0,1,3.17,5.69v0h-3.48v0A5.69,5.69,0,0,0,108.08,14a6.87,6.87,0,0,0-4.21-1.3A6.52,6.52,0,0,0,98.62,15a9.24,9.24,0,0,0-2,6.24,9.28,9.28,0,0,0,2,6.24,6.69,6.69,0,0,0,5.31,2.31A7,7,0,0,0,108.78,28a6.06,6.06,0,0,0,2.06-4.47h-6.51V20.67Zm8.5,3,3.83-10.13,3.82,10.13Zm5.74-13.45h-3.83l-8.64,22.14h3.51l2.14-5.74h9.81l2.14,5.74h3.51Zm-77.17,3h6a4.36,4.36,0,0,1,3.14,1,4,4,0,0,1,1.08,3,3.94,3.94,0,0,1-1.08,3,4.35,4.35,0,0,1-3.14,1h-6Zm11.65-1.1a7.89,7.89,0,0,0-5.61-1.88H47.7V32.33h3.38V24.17h6a7.89,7.89,0,0,0,5.61-1.88,6.72,6.72,0,0,0,2-5.09,6.76,6.76,0,0,0-2-5.13m20.66,12v0a6.21,6.21,0,0,1-2.19,4.22,6.78,6.78,0,0,1-4.26,1.45,6.24,6.24,0,0,1-5.06-2.29A9.66,9.66,0,0,1,70,21.26,9.64,9.64,0,0,1,71.88,15a6.21,6.21,0,0,1,5.06-2.3,6.63,6.63,0,0,1,4,1.22,6.31,6.31,0,0,1,2.27,3.63v0h3.41v0a9.23,9.23,0,0,0-3.4-5.88,10.32,10.32,0,0,0-6.31-2,10.76,10.76,0,0,0-4.22.79,9.5,9.5,0,0,0-3.34,2.35,10.4,10.4,0,0,0-2.17,3.68,14.67,14.67,0,0,0-.72,4.75A14.68,14.68,0,0,0,67.22,26a10.19,10.19,0,0,0,2.19,3.66A9.36,9.36,0,0,0,72.74,32a10.88,10.88,0,0,0,4.2.79,10.17,10.17,0,0,0,6.63-2.28,9,9,0,0,0,3.2-6.41v0Z"/></g></g></svg>