<?xml version="1.0" encoding="UTF-8"?>
<svg id="Layer_1" xmlns="http://www.w3.org/2000/svg" version="1.1" viewBox="0 0 478 80">
  <!-- Generator: Adobe Illustrator 29.0.0, SVG Export Plug-In . SVG Version: 2.1.0 Build 186)  -->
  <defs>
    <style>
      .st0 {
        fill: #fff;
      }
    </style>
  </defs>
  <g>
    <path class="st0" d="M287.5,8.7c-17.4,0-31.5,14.1-31.5,31.5s14.1,31.5,31.5,31.5,31.5-14.1,31.5-31.5c0-17.4-14.1-31.5-31.5-31.5t0,0ZM275,27.9h18.1l-2.8,4.5h-18.1l2.8-4.5ZM305.2,49.8l-2.8-4.5h-8l2.8-4.5h2.6l-3.1-4.9-8.6,13.7h-22.8l5.5-8.8h-4l2.7-4.5h17.6l-2.7,4.5h-8.4l-2.7,4.5h12.5l11-17.5,13.7,22h-5.2,0Z"/>
    <path class="st0" d="M471,30.1h-9l-9.6,19.8-9.8-19.8h-9.6l14.5,29.4-9.6,19.2h9.3l23.8-48.6ZM413.2,56.6c-5.3-.3-9.4-4.9-9.1-10.2.3-4.9,4.2-8.8,9.1-9.1,5.1,0,9.3,4,9.4,9.1,0,.2,0,.3,0,.5.2,5.1-3.8,9.4-8.9,9.6-.1,0-.3,0-.5,0M411.7,64.3c4,0,7.9-1.5,10.8-4.2v3.7h8.6V30.1h-8.6v3.7c-2.8-2.8-6.6-4.3-10.5-4.3-9.4.2-16.9,7.9-16.7,17.3-.3,9.3,7.1,17.1,16.4,17.3M390.9,13.9l-8.6,2.7v47.2h8.6V13.9ZM361.1,38.6h-10.8v-13.8h10.8c4.5,0,7.6,2.8,7.6,6.9s-3.1,6.9-7.6,6.9M341,16.6v47.2h9.3v-17.2h11.5c9.2,0,16.1-6.4,16.1-15.1s-6.6-14.9-15.8-14.9h-21.1Z"/>
  </g>
  <path class="st0" d="M38.3,34.1s.1,0,.1.1c9.4,7.1,25.5,24.9,20.5,29.8-5.5,4.8-12.8,7.7-20.6,7.7s-15.2-2.9-20.6-7.7c-4.9-5,11.2-22.6,20.5-29.8,0-.1.1-.1.1-.1ZM54.7,13.5c-4.8-2.8-10.1-4.6-16.4-4.6s-11.6,1.7-16.4,4.6c-.1,0-.1.1-.1.2s.1.1.2.1c6-1.3,15.3,3.9,16.2,4.4h.2c.9-.5,10.1-5.7,16.2-4.4q.1,0,.2-.1c0-.1-.1-.1-.1-.2ZM16.4,17.9c-.1,0-.1.1-.1.1-5.7,5.7-9.3,13.6-9.3,22.2s2.4,13.8,6.4,19c0,0,.1.1.2,0,.1,0,.1-.1,0-.2-2.4-7.4,9.9-25.4,16.2-32.9h0c0-.1,0-.2-.1-.2-9.7-9.4-12.9-8.3-13.4-8.1ZM46.9,26.2h-.1v.2c6.3,7.5,18.5,25.5,16.2,32.9v.2h.2c4-5.2,6.4-11.9,6.4-19s-3.5-16.6-9.3-22.2h-.1c-.6-.5-3.8-1.6-13.4,7.9ZM133,35.3h-4.2l-2.5-6.8h-11.7l-2.5,6.8h-4.2l10.4-26.5h4.5l10.3,26.5ZM124.9,25l-4.5-12.1-4.5,12.1h9.1ZM94.1,21.4v3.4h7.7c-.1,2.1-.9,3.9-2.4,5.3-1.6,1.4-3.5,2.1-5.7,2.1s-4.7-.9-6.3-2.7c-1.6-1.8-2.3-4.3-2.3-7.4s.8-5.6,2.3-7.4c1.5-1.8,3.6-2.7,6.2-2.7s3.6.5,5,1.5,2.3,2.4,2.6,4.2h4.1c-.4-2.8-1.7-5.1-3.8-6.8-2.1-1.7-4.8-2.5-8.1-2.5s-3.7.3-5.2.9c-1.5.6-2.9,1.6-4,2.8-1.2,1.2-2,2.7-2.6,4.4-.6,1.7-.9,3.5-.9,5.6s.3,3.9.9,5.6c.6,1.6,1.4,3.1,2.6,4.4,1.1,1.3,2.4,2.2,3.9,2.9,1.5.6,3.2.9,5.1.9s3.5-.3,4.9-1,2.6-1.7,3.6-3v3.3h3.8v-13.9h-11.6ZM185.1,12.6v-3.6h-18.9v26.4h18.9v-3.6h-14.8v-8.2h13.1v-3.3h-13.1v-7.6h14.8ZM156.6,9l-5.2,13.7c-1,2.7-1.9,5.3-2.7,7.6-.7-2-1.6-4.5-2.6-7.3l-5.4-14.1h-5.5v26.5h3.9V14.5c.6,1.6,1.2,3.4,1.9,5.3l6,15.5h3.4l5.9-15.5c.8-2.1,1.5-3.9,2-5.4v20.9h3.9V9h-5.6ZM103.4,53.7c0,2.5-.8,4.6-2.4,6-1.6,1.5-3.8,2.2-6.6,2.2h-7.2v9.8h-4v-26.4h11.3c2.8,0,5.1.8,6.6,2.2,1.6,1.5,2.4,3.5,2.4,6.1ZM87.2,58.5h7.1c1.6,0,2.9-.4,3.7-1.2.8-.8,1.3-2,1.3-3.5s-.4-2.7-1.3-3.5c-.8-.8-2.1-1.2-3.7-1.2h-7.1v9.5ZM146.2,59.6c-1.3-1.2-3.5-2.1-6.5-2.8l-2.3-.5c-2.2-.5-3.7-1-4.5-1.7-.8-.6-1.2-1.5-1.2-2.7s.5-2.1,1.3-2.7c.9-.6,2.2-.9,3.9-.9s3.8.4,4.8,1.2,1.5,2,1.7,3.7h4c0-2.6-1-4.6-2.7-6.1s-4.3-2.2-7.8-2.2-5.1.7-6.8,1.9c-1.7,1.3-2.5,3-2.5,5.2s.7,3.9,2.1,5.1c1.4,1.2,3.4,2.1,6.1,2.7l2.2.5c2.2.5,3.8,1,4.6,1.7.8.6,1.3,1.5,1.3,2.6s-.5,2.5-1.5,3.2-2.5,1.1-4.4,1.1-4.1-.5-5.3-1.5c-1.2-1-1.8-2.4-1.8-4.4h-4c0,3,1,5.3,2.9,6.9s4.6,2.4,8.2,2.4,5.7-.7,7.5-2.1,2.7-3.3,2.7-5.8c0-2-.6-3.6-1.9-4.8ZM169.6,59.6c-1.3-1.2-3.5-2.1-6.5-2.8l-2.3-.5c-2.2-.5-3.7-1-4.5-1.7-.8-.6-1.2-1.5-1.2-2.7s.5-2.1,1.3-2.7c.9-.6,2.2-.9,3.9-.9s3.8.4,4.8,1.2,1.5,2,1.7,3.7h4c0-2.6-1-4.6-2.7-6.1-1.7-1.5-4.3-2.2-7.8-2.2s-5.1.7-6.8,1.9c-1.7,1.3-2.5,3-2.5,5.2s.7,3.9,2.1,5.1c1.4,1.2,3.4,2.1,6.1,2.7l2.2.5c2.2.5,3.8,1,4.6,1.7.8.6,1.3,1.5,1.3,2.6s-.5,2.5-1.5,3.2-2.5,1.1-4.4,1.1-4.1-.5-5.3-1.5c-1.2-1-1.8-2.4-1.8-4.4h-4c0,3,1,5.3,2.9,6.9s4.6,2.4,8.2,2.4,5.7-.7,7.5-2.1,2.7-3.3,2.7-5.8c.1-2-.6-3.6-1.9-4.8ZM125.8,71.8h-4.2l-2.5-6.8h-11.7l-2.5,6.8h-4.3l10.4-26.4h4.5l10.4,26.4ZM117.8,61.4l-4.5-12.1-4.5,12.1h9.1Z"/>
  <rect class="st0" x="219" width="2" height="80"/>
</svg>