<?xml version="1.0" encoding="utf-8"?>
<!-- Generator: Adobe Illustrator 26.3.1, SVG Export Plug-In . SVG Version: 6.00 Build 0)  -->
<svg version="1.1" id="Layer_1" xmlns="http://www.w3.org/2000/svg" xmlns:xlink="http://www.w3.org/1999/xlink" x="0px" y="0px"
	 viewBox="0 0 478 80" style="enable-background:new 0 0 478 80;" xml:space="preserve">
<style type="text/css">
	.st0{fill:#FFFFFF;}
</style>
<g>
	<g>
		<polygon class="st0" points="37.9,8.5 0,26 9.4,61.9 16.6,61.1 14.6,38.5 17,37.4 21.1,60.5 33.3,59 31.2,34.1 33.5,33 38,58.4 
			50.4,56.9 48,29.6 50.4,28.5 55.3,56.3 67.5,54.8 67.5,15.9 		"/>
		<polygon class="st0" points="38.8,63 39.4,66.5 67.5,71.2 67.5,59.4 38.8,63 		"/>
	</g>
	<g>
		<path class="st0" d="M94.1,55.6v4.8h6c0,1.1-0.3,2-0.7,2.8c-0.5,0.8-1.2,1.5-2.1,2c-0.9,0.5-2.1,0.7-3.4,0.7
			c-1.5,0-2.8-0.4-3.8-1.1c-1.1-0.7-1.9-1.8-2.5-3.1c-0.6-1.4-0.9-3-0.9-5c0-1.9,0.3-3.6,0.9-4.9c0.6-1.3,1.4-2.4,2.5-3.1
			c1.1-0.7,2.3-1.1,3.8-1.1c0.7,0,1.4,0.1,2.1,0.3c0.6,0.2,1.2,0.4,1.7,0.8c0.5,0.3,0.9,0.8,1.2,1.3c0.3,0.5,0.6,1.1,0.8,1.7h6.6
			c-0.2-1.4-0.6-2.7-1.3-3.9c-0.7-1.2-1.6-2.2-2.7-3.1c-1.1-0.9-2.4-1.6-3.8-2c-1.4-0.5-3-0.7-4.6-0.7c-1.9,0-3.7,0.3-5.4,1
			c-1.7,0.7-3.1,1.6-4.4,2.9c-1.2,1.3-2.2,2.8-2.9,4.7c-0.7,1.8-1,3.9-1,6.3c0,3,0.6,5.7,1.7,7.9c1.2,2.2,2.8,3.9,4.8,5.1
			c2.1,1.2,4.5,1.8,7.2,1.8c2.5,0,4.6-0.5,6.5-1.5c1.9-1,3.4-2.4,4.5-4.2c1.1-1.8,1.6-4,1.6-6.6v-3.7H94.1z"/>
		<polygon class="st0" points="176.6,71.2 176.6,42.3 196.4,42.3 196.4,47.7 183.1,47.7 183.1,54.1 193.8,54.1 193.8,59.4 
			183.1,59.4 183.1,65.9 196.4,65.9 196.4,71.2 		"/>
		<path class="st0" d="M215.6,50.8c-0.1-1.1-0.6-1.9-1.4-2.5c-0.8-0.6-1.9-0.9-3.3-0.9c-1,0-1.8,0.1-2.4,0.4
			c-0.6,0.3-1.1,0.6-1.5,1.1c-0.3,0.4-0.5,1-0.5,1.5c0,0.5,0.1,0.9,0.3,1.3c0.2,0.4,0.5,0.7,0.9,0.9c0.4,0.3,0.9,0.5,1.4,0.7
			c0.5,0.2,1.1,0.4,1.8,0.5l2.5,0.6c1.3,0.3,2.5,0.7,3.6,1.2c1.1,0.5,2,1.1,2.8,1.8c0.8,0.7,1.3,1.5,1.8,2.5c0.4,0.9,0.6,2,0.6,3.2
			c0,1.8-0.5,3.3-1.4,4.6c-0.9,1.3-2.2,2.3-3.9,3c-1.7,0.7-3.7,1.1-6.1,1.1c-2.4,0-4.4-0.4-6.2-1.1c-1.8-0.7-3.1-1.8-4.1-3.2
			c-1-1.4-1.5-3.2-1.5-5.4h6.3c0.1,1,0.3,1.7,0.8,2.4c0.5,0.6,1.1,1.1,1.9,1.4c0.8,0.3,1.7,0.5,2.8,0.5c1,0,1.8-0.1,2.6-0.4
			c0.7-0.3,1.3-0.7,1.7-1.2c0.4-0.5,0.6-1.1,0.6-1.7c0-0.6-0.2-1.1-0.5-1.5c-0.4-0.4-0.9-0.8-1.6-1.1c-0.7-0.3-1.6-0.6-2.6-0.8
			l-3.1-0.7c-2.5-0.6-4.4-1.5-5.8-2.8c-1.4-1.3-2.1-3-2.1-5.2c0-1.8,0.5-3.3,1.4-4.6c1-1.3,2.3-2.4,4-3.1c1.7-0.7,3.6-1.1,5.8-1.1
			c2.2,0,4.1,0.4,5.7,1.1c1.6,0.7,2.9,1.8,3.8,3.1c0.9,1.3,1.4,2.9,1.4,4.6H215.6z"/>
		<polygon class="st0" points="171.9,71.2 165.4,71.2 165.4,49.2 164.8,49.2 158.2,71.2 151.8,71.2 145.4,49.2 144.6,49.2 
			144.6,71.2 138.1,71.2 138.1,42.3 149.1,42.3 154.7,61.7 155.4,61.7 160.9,42.3 171.9,42.3 		"/>
		<path class="st0" d="M128,71.2h7l-9.7-28.9h-8.9l-9.7,28.9h7l1.9-6.3h10.5L128,71.2z M117.1,59.8l3.2-10.6h1.2l3.2,10.6H117.1z"/>
		<g>
			<path class="st0" d="M223.9,45.4c-0.2,0-0.4,0-0.6-0.1c-0.2-0.1-0.3-0.2-0.5-0.3c-0.1-0.1-0.2-0.3-0.3-0.5
				c-0.1-0.2-0.1-0.4-0.1-0.6s0-0.4,0.1-0.6c0.1-0.2,0.2-0.3,0.3-0.5c0.1-0.1,0.3-0.2,0.5-0.3c0.2-0.1,0.4-0.1,0.6-0.1
				c0.2,0,0.4,0,0.6,0.1c0.2,0.1,0.3,0.2,0.5,0.3c0.1,0.1,0.2,0.3,0.3,0.5c0.1,0.2,0.1,0.4,0.1,0.6s0,0.4-0.1,0.6
				c-0.1,0.2-0.2,0.3-0.3,0.5s-0.3,0.2-0.5,0.3C224.3,45.3,224.1,45.4,223.9,45.4z M223.9,45c0.2,0,0.4,0,0.6-0.1
				c0.2-0.1,0.3-0.2,0.4-0.4c0.1-0.2,0.1-0.4,0.1-0.6s0-0.4-0.1-0.6c-0.1-0.2-0.2-0.3-0.4-0.4c-0.2-0.1-0.4-0.1-0.6-0.1
				c-0.2,0-0.4,0-0.6,0.1c-0.2,0.1-0.3,0.2-0.4,0.4c-0.1,0.2-0.1,0.4-0.1,0.6s0,0.4,0.1,0.6c0.1,0.2,0.2,0.3,0.4,0.4
				C223.5,44.9,223.6,45,223.9,45z M223.3,44.5v-1.4h0.7c0.1,0,0.2,0,0.3,0.1c0.1,0,0.1,0.1,0.2,0.2c0,0.1,0.1,0.2,0.1,0.3
				c0,0.1,0,0.2-0.1,0.3c0,0.1-0.1,0.1-0.2,0.2c-0.1,0-0.2,0.1-0.3,0.1h-0.5v-0.3h0.4c0.1,0,0.1,0,0.1,0c0,0,0.1-0.1,0.1-0.1
				c0-0.1,0-0.1-0.1-0.1c0,0-0.1,0-0.1,0h-0.2v1.1H223.3z M224.2,43.9l0.3,0.6h-0.4l-0.3-0.6H224.2z"/>
		</g>
	</g>
	<g>
		<rect x="108.3" y="8.8" class="st0" width="6.5" height="28.9"/>
		<path class="st0" d="M145.8,23.2c0,3.2-0.6,5.9-1.8,8.1c-1.2,2.2-2.8,3.9-4.9,5c-2.1,1.2-4.4,1.7-7,1.7c-2.6,0-4.9-0.6-7-1.7
			c-2.1-1.2-3.7-2.8-4.9-5.1c-1.2-2.2-1.8-4.9-1.8-8c0-3.2,0.6-5.9,1.8-8.1c1.2-2.2,2.8-3.9,4.9-5c2.1-1.2,4.4-1.7,7-1.7
			c2.6,0,4.9,0.6,7,1.7c2.1,1.2,3.7,2.8,4.9,5C145.2,17.4,145.8,20.1,145.8,23.2 M139.2,23.2c0-2-0.3-3.6-0.9-5
			c-0.6-1.4-1.4-2.4-2.4-3.1c-1-0.7-2.3-1.1-3.7-1.1c-1.4,0-2.7,0.4-3.7,1.1c-1,0.7-1.9,1.7-2.4,3.1c-0.6,1.4-0.9,3-0.9,5
			c0,2,0.3,3.6,0.9,5c0.6,1.4,1.4,2.4,2.4,3.1c1,0.7,2.3,1.1,3.7,1.1c1.4,0,2.7-0.4,3.7-1.1c1-0.7,1.9-1.7,2.4-3.1
			C138.9,26.9,139.2,25.2,139.2,23.2"/>
		<path class="st0" d="M94.5,27.6l3.4,10.1h7.2l-3.7-10.9h-5.1l-0.3-0.9c1-0.2,2.6-0.5,4.1-1.5c1.9-1.3,3.4-3.6,3.4-6.3v0
			c0-1.9-0.4-3.5-1.2-4.9c-0.8-1.4-2-2.5-3.6-3.3c-1.6-0.8-3.4-1.2-5.6-1.2H81.3v28.9h6.5V27.6H94.5z M94.4,21.6
			c-0.7,0.3-1.7,0.5-2.8,0.5h-3.8v-8h3.8c1.1,0,2,0.2,2.8,0.5c0.7,0.3,1.3,0.8,1.7,1.4c0.4,0.6,0.6,1.2,0.6,2.2
			c0,0.9-0.2,1.5-0.6,2.1C95.7,20.9,95.1,21.3,94.4,21.6"/>
		<path class="st0" d="M146.5,8.8v5.3h7.5v0h3.7l0.3,0.9c-1,0.2-2.6,0.5-4,1.4v21.2h6.5V14.1h7.5V8.8H146.5z"/>
	</g>
</g>
<path class="st0" d="M332.1,33.8c0,0,0.1,0,0.1,0.1c9.3,7.1,25.3,24.7,20.4,29.6c-5.5,4.8-12.7,7.7-20.5,7.7s-15.1-2.9-20.5-7.7
	c-4.9-5,11.1-22.5,20.4-29.6C332,33.8,332.1,33.8,332.1,33.8z M348.4,13.3c-4.8-2.8-10-4.6-16.3-4.6c-6.3,0-11.5,1.7-16.3,4.6
	c-0.1,0-0.1,0.1-0.1,0.2c0,0.1,0.1,0.1,0.2,0.1c6-1.3,15.2,3.9,16.1,4.4c0,0,0,0,0.1,0s0,0,0.1,0c0.9-0.5,10-5.7,16.1-4.4
	c0.1,0,0.1,0,0.2-0.1C348.5,13.4,348.4,13.4,348.4,13.3z M310.3,17.7c-0.1,0-0.1,0.1-0.1,0.1c-5.7,5.7-9.2,13.5-9.2,22.1
	c0,7.1,2.4,13.7,6.4,18.9c0,0,0.1,0.1,0.2,0c0.1,0,0.1-0.1,0-0.2c-2.4-7.4,9.8-25.2,16.1-32.7c0,0,0-0.1,0-0.1c0,0,0-0.1-0.1-0.1
	C314,16.4,310.8,17.5,310.3,17.7z M340.7,25.9c0,0-0.1,0.1-0.1,0.1c0,0,0,0.1,0,0.1c6.3,7.5,18.4,25.3,16.1,32.7c0,0.1,0,0.1,0,0.2
	c0.1,0,0.1,0,0.2,0c4-5.2,6.4-11.8,6.4-18.9c0-8.7-3.5-16.5-9.2-22.1c0,0-0.1-0.1-0.1-0.1C353.4,17.5,350.2,16.4,340.7,25.9z
	 M426.2,35H422l-2.5-6.8h-11.6l-2.5,6.8h-4.2l10.3-26.3h4.5L426.2,35z M418.2,24.7l-4.5-12l-4.5,12H418.2z M387.6,21.2v3.4h7.7
	c-0.1,2.1-0.9,3.9-2.4,5.3c-1.6,1.4-3.5,2.1-5.7,2.1c-2.6,0-4.7-0.9-6.3-2.7c-1.6-1.8-2.3-4.3-2.3-7.4s0.8-5.6,2.3-7.4
	c1.5-1.8,3.6-2.7,6.2-2.7c1.9,0,3.6,0.5,5,1.5c1.4,1,2.3,2.4,2.6,4.2l0,0h4.1l0,0c-0.4-2.8-1.7-5.1-3.8-6.8c-2.1-1.7-4.8-2.5-8-2.5
	c-1.9,0-3.7,0.3-5.2,0.9c-1.5,0.6-2.9,1.6-4,2.8c-1.2,1.2-2,2.7-2.6,4.4c-0.6,1.7-0.9,3.5-0.9,5.6c0,2,0.3,3.9,0.9,5.6
	c0.6,1.6,1.4,3.1,2.6,4.4c1.1,1.3,2.4,2.2,3.9,2.9c1.5,0.6,3.2,0.9,5.1,0.9c1.9,0,3.5-0.3,4.9-1c1.4-0.7,2.6-1.7,3.6-3V35l3.8,0v0
	v-9v-4.8H387.6z M478,12.4V8.8h-18.8V35H478v-3.6h-14.7v-8.1h13V20h-13v-7.6H478z M449.7,8.8l-5.2,13.6c-1,2.7-1.9,5.3-2.7,7.6
	c-0.7-2-1.6-4.5-2.6-7.3l-5.4-14h-5.5V35h3.9V14.3c0.6,1.6,1.2,3.4,1.9,5.3l6,15.4l0,0h3.4l5.9-15.4c0.8-2.1,1.5-3.9,2-5.4V35h3.9
	V8.8H449.7z M396.8,53.3c0,2.5-0.8,4.6-2.4,6c-1.6,1.5-3.8,2.2-6.6,2.2h-7.2v9.7h-4V45h11.2c2.8,0,5.1,0.8,6.6,2.2
	C396,48.7,396.8,50.7,396.8,53.3z M380.7,58h7.1c1.6,0,2.9-0.4,3.7-1.2c0.8-0.8,1.3-2,1.3-3.5c0-1.5-0.4-2.7-1.3-3.5
	c-0.8-0.8-2.1-1.2-3.7-1.2h-7.1V58z M439.3,59.1c-1.3-1.2-3.5-2.1-6.5-2.8l-2.3-0.5c-2.2-0.5-3.7-1-4.5-1.7
	c-0.8-0.6-1.2-1.5-1.2-2.7c0-1.2,0.5-2.1,1.3-2.7c0.9-0.6,2.2-0.9,3.9-0.9c2.2,0,3.8,0.4,4.8,1.2c1,0.8,1.5,2,1.7,3.7l0,0h4l0,0
	c0-2.6-1-4.6-2.7-6.1c-1.7-1.5-4.3-2.2-7.8-2.2c-2.8,0-5.1,0.7-6.8,1.9c-1.7,1.3-2.5,3-2.5,5.2c0,2.2,0.7,3.9,2.1,5.1
	c1.4,1.2,3.4,2.1,6.1,2.7l2.2,0.5c2.2,0.5,3.8,1,4.6,1.7c0.8,0.6,1.3,1.5,1.3,2.6c0,1.4-0.5,2.5-1.5,3.2c-1,0.7-2.5,1.1-4.4,1.1
	c-2.3,0-4.1-0.5-5.3-1.5c-1.2-1-1.8-2.4-1.8-4.4l0,0h-4l0,0c0,3,1,5.3,2.9,6.9c1.9,1.6,4.6,2.4,8.1,2.4c3.2,0,5.7-0.7,7.5-2.1
	c1.8-1.4,2.7-3.3,2.7-5.8C441.2,61.9,440.6,60.3,439.3,59.1z M462.6,59.1c-1.3-1.2-3.5-2.1-6.5-2.8l-2.3-0.5c-2.2-0.5-3.7-1-4.5-1.7
	c-0.8-0.6-1.2-1.5-1.2-2.7c0-1.2,0.5-2.1,1.3-2.7c0.9-0.6,2.2-0.9,3.9-0.9c2.2,0,3.8,0.4,4.8,1.2c1,0.8,1.5,2,1.7,3.7l0,0h4l0,0
	c0-2.6-1-4.6-2.7-6.1c-1.7-1.5-4.3-2.2-7.8-2.2c-2.8,0-5.1,0.7-6.8,1.9c-1.7,1.3-2.5,3-2.5,5.2c0,2.2,0.7,3.9,2.1,5.1
	c1.4,1.2,3.4,2.1,6.1,2.7l2.2,0.5c2.2,0.5,3.8,1,4.6,1.7c0.8,0.6,1.3,1.5,1.3,2.6c0,1.4-0.5,2.5-1.5,3.2c-1,0.7-2.5,1.1-4.4,1.1
	c-2.3,0-4.1-0.5-5.3-1.5c-1.2-1-1.8-2.4-1.8-4.4l0,0h-4l0,0c0,3,1,5.3,2.9,6.9c1.9,1.6,4.6,2.4,8.1,2.4c3.2,0,5.7-0.7,7.5-2.1
	c1.8-1.4,2.7-3.3,2.7-5.8C464.6,61.9,463.9,60.3,462.6,59.1z M419.1,71.2h-4.2l-2.5-6.8h-11.6l-2.5,6.8H394L404.3,45h4.5L419.1,71.2
	z M411.1,60.9l-4.5-12l-4.5,12H411.1z"/>
<rect x="262.1" class="st0" width="2" height="80"/>
</svg>
