<?xml version="1.0" encoding="UTF-8"?>
<svg id="Layer_1" xmlns="http://www.w3.org/2000/svg" xmlns:xlink="http://www.w3.org/1999/xlink" viewBox="0 0 788 444">
  <defs>
    <style>
      .cls-1 {
        fill: none;
      }

      .cls-2 {
        mask: url(#mask);
      }

      .cls-3 {
        fill: #107c10;
      }

      .cls-4 {
        clip-path: url(#clippath-1);
      }

      .cls-5 {
        fill: #fff;
      }

      .cls-6 {
        clip-path: url(#clippath);
      }
    </style>
    <clipPath id="clippath">
      <rect class="cls-1" width="788" height="444"/>
    </clipPath>
    <clipPath id="clippath-1">
      <rect class="cls-1" x="193.16" y="146.44" width="105.03" height="161.49"/>
    </clipPath>
    <mask id="mask" x="319.94" y="119.56" width="279.3" height="201.03" maskUnits="userSpaceOnUse">
      <g id="path-3-inside-1_1704_4744">
        <path class="cls-5" d="M562.62,313.67c-4.33,0-8.23-3.47-29.91-23.41-6.93-6.5-16.04-14.74-18.2-16.47-.87-.43-1.73-.87-2.6-1.73-3.47-2.17-6.07-3.9-22.11-3.9-17.34-.43-28.17,0-29.91,0h-30.34c-16.47.43-18.64,1.73-22.11,3.9-.87.43-1.73.87-2.6,1.73-2.17,1.3-11.27,9.97-18.21,16.04-23.4,21.67-26.01,23.84-30.77,23.4-5.63-.43-16.04-4.77-22.54-14.74-7.37-11.27-9.1-25.14-4.77-47.68,4.33-23.84,23.4-86.25,28.61-95.79,1.3-2.6,3.9-5.2,7.8-7.37,1.3-6.07,2.6-8.24,5.2-9.97l.43-.43c2.17-1.3,11.27-6.93,20.37-8.67,0,0,21.67-4.77,27.74-1.73.43.43,1.3.43,2.17.87,1.73.87,6.07,3.03,7.8,3.47h61.55c1.73-.43,5.64-2.6,7.37-3.47.87-.43,1.73-.87,2.17-.87,6.5-3.03,28.17,1.73,28.17,1.73,9.1,1.73,17.77,7.8,20.8,9.53l.43.43c2.6,1.73,3.9,3.9,5.2,9.97,3.9,2.17,6.5,4.77,7.8,7.37,4.77,9.54,24.27,71.52,28.61,95.79,3.9,22.54,2.6,35.98-4.77,47.68-6.5,9.97-16.9,14.3-22.54,14.74q-.43-.43-.87-.43ZM379.28,149.83c-.43.87-.87,2.6-1.3,4.77l-.87,3.47-3.03,1.73c-3.47,1.73-4.33,3.03-4.33,3.03-3.47,7.37-22.54,67.62-26.87,91.02-3.9,22.54-1.3,30.77,2.6,36.41,3.03,4.33,6.93,6.5,9.54,7.37,4.33-3.47,14.3-12.57,20.81-18.64,11.27-10.4,17.77-16.47,20.8-18.21.87-.43,1.3-.87,2.17-1.3,6.07-3.9,10.4-6.07,30.34-6.5,16.9-.43,27.74,0,30.34,0h30.34c19.5.43,24.27,2.6,30.34,6.5.43.43,1.3.87,2.17,1.3,3.03,1.73,9.53,7.8,20.8,18.21,6.93,6.5,16.9,15.6,20.8,18.64,2.6-.87,6.93-3.03,9.53-7.37,3.9-5.63,6.5-13.87,2.6-36.41-4.33-23.4-23.41-84.09-26.87-91.46,0,0-.87-.87-4.34-2.6l-3.03-1.73-.87-3.47c-.43-2.17-.87-3.9-1.3-4.77-5.64-3.47-10.84-6.07-14.74-6.5-7.37-1.73-16.47-2.6-19.07-2.6-.43,0-.87.43-1.3.43-6.5,3.03-9.97,4.77-12.57,4.77h-65.45c-2.6-.43-5.64-1.73-12.57-4.77-.43,0-.87-.43-.87-.43-3.03,0-11.7.87-19.07,2.6-3.9.87-8.67,3.03-14.74,6.5Z"/>
      </g>
    </mask>
  </defs>
  <g class="cls-6">
    <g>
      <rect class="cls-3" width="788" height="444.3"/>
      <g class="cls-4">
        <path class="cls-5" d="M298.19,237.83l-52.51,52.99-52.51-52.99,10.64-10.65,34.3,34.54v-115.28h15.14v115.28l34.3-34.54,10.64,10.65ZM197.73,307.92v-15.14h95.88v15.14h-95.88Z"/>
      </g>
      <path class="cls-5" d="M562.62,313.67c-4.33,0-8.23-3.47-29.91-23.41-6.93-6.5-16.04-14.74-18.2-16.47-.87-.43-1.73-.87-2.6-1.73-3.47-2.17-6.07-3.9-22.11-3.9-17.34-.43-28.17,0-29.91,0h-30.34c-16.47.43-18.64,1.73-22.11,3.9-.87.43-1.73.87-2.6,1.73-2.17,1.3-11.27,9.97-18.21,16.04-23.4,21.67-26.01,23.84-30.77,23.4-5.63-.43-16.04-4.77-22.54-14.74-7.37-11.27-9.1-25.14-4.77-47.68,4.33-23.84,23.4-86.25,28.61-95.79,1.3-2.6,3.9-5.2,7.8-7.37,1.3-6.07,2.6-8.24,5.2-9.97l.43-.43c2.17-1.3,11.27-6.93,20.37-8.67,0,0,21.67-4.77,27.74-1.73.43.43,1.3.43,2.17.87,1.73.87,6.07,3.03,7.8,3.47h61.55c1.73-.43,5.64-2.6,7.37-3.47.87-.43,1.73-.87,2.17-.87,6.5-3.03,28.17,1.73,28.17,1.73,9.1,1.73,17.77,7.8,20.8,9.53l.43.43c2.6,1.73,3.9,3.9,5.2,9.97,3.9,2.17,6.5,4.77,7.8,7.37,4.77,9.54,24.27,71.52,28.61,95.79,3.9,22.54,2.6,35.98-4.77,47.68-6.5,9.97-16.9,14.3-22.54,14.74q-.43-.43-.87-.43ZM379.28,149.83c-.43.87-.87,2.6-1.3,4.77l-.87,3.47-3.03,1.73c-3.47,1.73-4.33,3.03-4.33,3.03-3.47,7.37-22.54,67.62-26.87,91.02-3.9,22.54-1.3,30.77,2.6,36.41,3.03,4.33,6.93,6.5,9.54,7.37,4.33-3.47,14.3-12.57,20.81-18.64,11.27-10.4,17.77-16.47,20.8-18.21.87-.43,1.3-.87,2.17-1.3,6.07-3.9,10.4-6.07,30.34-6.5,16.9-.43,27.74,0,30.34,0h30.34c19.5.43,24.27,2.6,30.34,6.5.43.43,1.3.87,2.17,1.3,3.03,1.73,9.53,7.8,20.8,18.21,6.93,6.5,16.9,15.6,20.8,18.64,2.6-.87,6.93-3.03,9.53-7.37,3.9-5.63,6.5-13.87,2.6-36.41-4.33-23.4-23.41-84.09-26.87-91.46,0,0-.87-.87-4.34-2.6l-3.03-1.73-.87-3.47c-.43-2.17-.87-3.9-1.3-4.77-5.64-3.47-10.84-6.07-14.74-6.5-7.37-1.73-16.47-2.6-19.07-2.6-.43,0-.87.43-1.3.43-6.5,3.03-9.97,4.77-12.57,4.77h-65.45c-2.6-.43-5.64-1.73-12.57-4.77-.43,0-.87-.43-.87-.43-3.03,0-11.7.87-19.07,2.6-3.9.87-8.67,3.03-14.74,6.5Z"/>
      <g class="cls-2">
        <path class="cls-5" d="M532.71,290.26l-4.3,4.59.02.02.02.02,4.26-4.63ZM514.51,273.79l3.93-4.91-.52-.42-.6-.3-2.81,5.62ZM511.91,272.06l4.45-4.45-.51-.51-.61-.38-3.33,5.33ZM489.8,268.16l-.16,6.29h.08s.08,0,.08,0v-6.29ZM429.56,268.16v-6.29h-.17s.17,6.29.17,6.29ZM407.45,272.06l2.81,5.62.27-.13.25-.16-3.33-5.33ZM404.85,273.79l3.23,5.39.66-.4.55-.55-4.45-4.45ZM386.64,289.83l-4.14-4.73-.07.06-.07.06,4.27,4.61ZM355.87,313.23l.57-6.26h-.04s-.04,0-.04,0l-.48,6.27ZM333.33,298.5l5.27-3.43h0s-5.26,3.43-5.26,3.43ZM328.57,250.82l6.17,1.19v-.03s.01-.03.01-.03l-6.19-1.12ZM357.17,155.03l5.52,3.01.05-.1.05-.1-5.62-2.81ZM364.97,147.66l3.05,5.5,2.5-1.39.6-2.79-6.15-1.32ZM370.17,137.69l3.49,5.23.52-.35.44-.44-4.45-4.45ZM370.61,137.26l-3.23-5.39-.66.4-.55.55,4.45,4.45ZM390.98,128.59l1.18,6.18.09-.02.09-.02-1.35-6.14ZM418.72,126.86l4.45-4.45-.72-.72-.91-.46-2.81,5.62ZM420.89,127.72l2.81-5.62-2.81,5.62ZM428.69,131.19l-1.52,6.1.75.19h.77v-6.29ZM490.24,131.19v6.29h.77l.75-.19-1.52-6.1ZM499.77,126.86v6.29h1.39l1.26-.59-2.66-5.7ZM527.95,128.59l-1.35,6.14.09.02.09.02,1.18-6.18ZM548.75,138.12l4.45-4.45-.6-.6-.73-.42-3.12,5.46ZM549.18,138.56l-4.45,4.45.44.44.52.35,3.49-5.23ZM554.39,148.53l-6.15,1.32.6,2.79,2.5,1.39,3.05-5.5ZM590.79,251.68l6.2-1.07v-.02s0-.02,0-.02l-6.19,1.1ZM586.03,299.36l5.27,3.43.03-.04.03-.04-5.32-3.35ZM563.49,314.1l-4.45,4.45,2.04,2.05,2.88-.22-.48-6.27ZM379.28,149.83l-3.12-5.46-1.65.95-.85,1.7,5.62,2.81ZM377.98,154.6l6.1,1.52.04-.14.03-.15-6.17-1.23ZM377.11,158.06l3.12,5.46,2.33-1.33.65-2.6-6.1-1.53ZM374.08,159.8l2.81,5.62.16-.08.15-.09-3.12-5.46ZM369.74,162.83l-5.23-3.49-.26.39-.2.42,5.69,2.68ZM342.87,253.85l-6.18-1.15v.04s-.01.04-.01.04l6.2,1.07ZM345.47,290.26l-5.17,3.58h0s0,.03,0,.03l5.15-3.61ZM355,297.63l-1.99,5.96,3.24,1.08,2.67-2.14-3.93-4.91ZM375.81,278.99l-4.26-4.62h-.01s-.01.02-.01.02l4.29,4.6ZM396.61,260.79l-2.81-5.62-.16.08-.15.09,3.12,5.46ZM398.78,259.49l2.81,5.62.3-.15.29-.18-3.4-5.29ZM429.12,252.99l.14,6.29h.02l-.16-6.29ZM489.8,252.99l.14-6.29h-.07s-.07,0-.07,0v6.29ZM520.14,259.49l4.45-4.45-.48-.48-.57-.37-3.4,5.29ZM522.31,260.79l3.12-5.46-.15-.09-.16-.08-2.81,5.62ZM543.12,278.99l4.3-4.59-.02-.02-.02-.02-4.26,4.62ZM563.92,297.63l-3.86,4.96,2.66,2.07,3.19-1.06-1.99-5.96ZM573.46,290.26l-5.17-3.58-.12.17-.11.17,5.39,3.23ZM576.06,253.85l6.2-1.07v-.04s-.01-.04-.01-.04l-6.18,1.15ZM549.18,162.4l5.69-2.68-.47-.99-.78-.78-4.45,4.45ZM544.85,159.8l-3.12,5.46.15.09.16.08,2.81-5.62ZM541.82,158.06l-6.1,1.53.65,2.6,2.33,1.33,3.12-5.46ZM540.95,154.6l-6.16,1.23.03.15.04.14,6.1-1.52ZM539.65,149.83l5.62-2.81-.8-1.6-1.53-.94-3.29,5.35ZM524.91,143.33l-1.44,6.12.37.09.38.04.69-6.25ZM504.54,141.16v-6.29h-1.39l-1.26.59,2.66,5.7ZM426.52,145.93l-1.03,6.2.51.08h.52v-6.29ZM413.95,141.16l2.52-5.76-1.2-.53h-1.32v6.29ZM413.08,140.73l4.45-4.45-1.84-1.84h-2.6v6.29ZM394.01,143.33l1.36,6.14h.04s.04-.02.04-.02l-1.44-6.12ZM562.62,307.38c-.07,0-.19.03-.71-.22-.69-.33-1.84-1.05-3.83-2.64-4-3.18-10.18-8.83-21.11-18.89l-8.51,9.25c10.75,9.89,17.35,15.94,21.8,19.47,4.41,3.5,7.92,5.59,12.36,5.59v-12.58ZM537.01,285.67c-6.89-6.46-16.18-14.88-18.58-16.79l-7.86,9.82c1.94,1.55,10.85,9.6,17.83,16.15l8.6-9.17ZM517.32,268.17c-.47-.23-.64-.32-.78-.41-.1-.06-.14-.1-.19-.14l-8.89,8.89c1.66,1.66,3.37,2.48,4.23,2.91l5.62-11.25ZM515.24,266.73c-1.89-1.18-4.13-2.62-8.27-3.56-3.79-.86-9.02-1.3-17.16-1.3v12.57c7.89,0,11.98.44,14.37.98,2.04.46,2.83.98,4.4,1.96l6.66-10.66ZM489.96,261.87c-17.4-.43-28.65,0-30.06,0v12.57c2.05,0,12.48-.43,29.75,0l.31-12.57ZM459.9,261.87h-30.34v12.57h30.34v-12.57ZM429.39,261.87c-8.28.22-13.44.66-17.08,1.44-4.07.87-6.2,2.17-8.19,3.42l6.66,10.66c1.47-.92,2.16-1.36,4.16-1.78,2.42-.52,6.58-.95,14.78-1.16l-.33-12.57ZM404.64,266.43c-.87.43-2.58,1.25-4.24,2.91l8.89,8.89s.09-.08.19-.14c.14-.09.31-.18.78-.41l-5.62-11.25ZM401.61,268.4c-1.09.65-2.48,1.82-3.65,2.83-1.33,1.15-2.94,2.58-4.65,4.13-3.47,3.14-7.4,6.75-10.81,9.74l8.28,9.46c3.52-3.08,7.61-6.84,10.97-9.88,1.7-1.54,3.21-2.89,4.42-3.93,1.37-1.18,1.92-1.58,1.92-1.57l-6.47-10.78ZM382.37,285.21c-11.82,10.95-18.05,16.64-21.93,19.62-1.92,1.47-2.84,1.94-3.26,2.09-.17.06-.23.1-.75.05l-1.14,12.52c1.86.17,3.92.1,6.31-.8,2.14-.8,4.23-2.15,6.48-3.88,4.47-3.42,11.24-9.64,22.82-20.37l-8.54-9.23ZM356.35,306.96c-3.78-.29-12.37-3.65-17.76-11.9l-10.53,6.87c7.62,11.68,19.83,16.99,27.32,17.57l.96-12.54ZM338.6,295.06c-6.08-9.3-8.05-21.23-3.86-43.05l-12.35-2.37c-4.47,23.26-2.98,39.07,5.68,52.31l10.52-6.88ZM334.75,251.94c2.1-11.54,7.85-32.8,13.81-52.57,2.96-9.84,5.95-19.2,8.5-26.67,2.63-7.7,4.63-12.84,5.62-14.66l-11.04-6.02c-1.61,2.95-3.94,9.18-6.48,16.61-2.62,7.66-5.65,17.17-8.64,27.11-5.96,19.78-11.91,41.65-14.14,53.95l12.37,2.25ZM362.8,157.84c.58-1.15,2.09-2.94,5.23-4.68l-6.11-10.99c-4.66,2.59-8.35,6.01-10.37,10.05l11.25,5.62ZM371.12,148.98c.61-2.87,1.12-4.23,1.51-4.96.26-.49.48-.72,1.03-1.1l-6.97-10.46c-2.04,1.36-3.78,3.07-5.14,5.62-1.24,2.31-2.03,5.06-2.72,8.26l12.3,2.63ZM374.62,142.14l.43-.43-8.89-8.89-.43.43,8.89,8.89ZM373.84,142.65c2.33-1.4,10.49-6.39,18.31-7.88l-2.35-12.35c-10.38,1.98-20.42,8.25-22.43,9.45l6.47,10.78ZM390.98,128.59q1.35,6.14,1.35,6.14h0,0s0,0,0,0c0,0,.02,0,.04,0,.04,0,.09-.02.16-.04.15-.03.37-.08.65-.14.57-.12,1.41-.29,2.43-.48,2.05-.39,4.83-.87,7.77-1.25,2.97-.39,5.96-.67,8.48-.68,1.26,0,2.28.05,3.07.15.85.12,1.09.25.97.19l5.62-11.25c-2.98-1.49-6.83-1.69-9.75-1.67-3.25.02-6.82.37-10.03.79-3.24.43-6.25.95-8.45,1.36-1.1.21-2.01.39-2.64.52-.32.06-.57.12-.74.15-.09.02-.15.03-.2.04-.02,0-.04,0-.06.01,0,0-.01,0-.02,0,0,0,0,0,0,0h0s0,0,1.35,6.14ZM414.27,131.3c.85.85,1.75,1.32,2.34,1.58.57.25,1.09.39,1.3.46.63.18.38.12.16.01l5.62-11.25c-.59-.29-1.12-.49-1.52-.62-.2-.07-.38-.12-.51-.16-.07-.02-.13-.04-.18-.05-.05-.01-.09-.02-.12-.03-.07-.02-.06-.02-.03,0,.03.01.14.05.29.11.28.12.91.43,1.54,1.06l-8.89,8.89ZM418.08,133.35c.86.43,2.45,1.23,4.07,1.98,1.4.65,3.47,1.58,5.02,1.97l3.05-12.2s-.22-.06-.85-.32c-.55-.23-1.22-.52-1.93-.85-1.42-.66-2.86-1.38-3.74-1.82l-5.62,11.25ZM428.69,137.48h6.07v-12.57h-6.07v12.57ZM434.76,131.19v6.29h24.71v-12.57h-24.71v6.29ZM459.46,137.48h24.71v-12.57h-24.71v12.57ZM484.17,137.48h6.07v-12.57h-6.07v12.57ZM491.76,137.29c1.66-.41,3.69-1.41,4.97-2.05.76-.38,1.5-.77,2.14-1.1.67-.35,1.17-.61,1.54-.8l-5.62-11.25c-.49.25-1.13.58-1.73.89-.63.33-1.3.68-1.95,1-.66.33-1.25.61-1.75.83-.56.25-.74.29-.65.27l3.05,12.2ZM500.42,133.35c.22-.11.4-.2.57-.28.17-.08.27-.13.34-.16.03-.01.04-.02.02,0-.01,0-.06.02-.15.05-.08.02-.23.07-.44.11-.2.04-.54.09-.99.09v-12.57c-1.02,0-1.85.23-2.23.35-.46.14-.87.3-1.17.43-.58.25-1.2.56-1.58.75l5.62,11.25ZM502.43,132.55s.05-.03.28-.09c.23-.06.54-.12.95-.17.84-.11,1.91-.17,3.2-.16,2.58.02,5.62.29,8.61.68,2.97.39,5.76.87,7.82,1.25,1.03.19,1.86.36,2.43.48.29.06.51.11.65.14.07.01.13.03.16.04.02,0,.03,0,.04,0,0,0,0,0,0,0h0,0s0,0,1.35-6.14q1.35-6.14,1.35-6.14h0s0,0,0,0c0,0,0,0-.02,0-.01,0-.03,0-.06-.01-.05-.01-.12-.03-.2-.04-.17-.04-.43-.09-.74-.16-.64-.13-1.55-.31-2.65-.52-2.21-.41-5.24-.94-8.51-1.36-3.24-.42-6.84-.77-10.15-.79-3.02-.02-6.85.2-9.85,1.6l5.32,11.4ZM526.77,134.76c7.75,1.48,15.06,6.65,18.86,8.82l6.24-10.92c-2.27-1.29-12.3-8.26-22.75-10.25l-2.35,12.35ZM544.31,142.57l.43.43,8.89-8.89-.43-.43-8.89,8.89ZM545.7,143.79c.56.37.77.61,1.03,1.1.39.73.89,2.09,1.51,4.96l12.3-2.63c-.69-3.2-1.48-5.95-2.72-8.26-1.36-2.55-3.1-4.26-5.14-5.62l-6.97,10.46ZM551.33,154.02c3.15,1.75,4.65,3.53,5.23,4.68l11.25-5.62c-2.02-4.05-5.72-7.47-10.37-10.05l-6.11,10.99ZM556.56,158.71c.97,1.93,2.94,7.16,5.54,14.79,2.54,7.45,5.54,16.79,8.53,26.6,6.02,19.73,11.87,40.97,13.96,52.69l12.38-2.21c-2.24-12.55-8.3-34.44-14.32-54.15-3.02-9.91-6.06-19.38-8.66-26.99-2.53-7.43-4.78-13.52-6.2-16.36l-11.25,5.62ZM584.6,252.76c3.8,21.96,2.24,33.51-3.89,43.26l10.64,6.7c8.6-13.66,9.64-28.99,5.64-52.1l-12.39,2.14ZM580.76,295.93c-5.38,8.25-13.97,11.61-17.76,11.9l.96,12.54c7.49-.58,19.7-5.89,27.32-17.57l-10.53-6.87ZM567.93,309.65c-.06-.06-.28-.28-.5-.48-.23-.21-.78-.68-1.57-1.08-.9-.45-1.74-.62-2.36-.68-.27-.03-.49-.03-.61-.04-.12,0-.23,0-.27,0v12.58c.23,0-.05,0-.37-.03-.49-.05-1.22-.19-2.01-.58-.69-.34-1.12-.73-1.22-.82-.08-.08-.14-.13.02.02l8.89-8.89ZM373.65,147.01c-.88,1.76-1.45,4.36-1.84,6.35l12.33,2.47c.2-1.02.39-1.85.56-2.49.08-.31.15-.54.2-.68.06-.16.06-.15,0-.02l-11.25-5.62ZM371.88,153.07l-.87,3.47,12.2,3.05.87-3.47-12.2-3.05ZM373.99,152.6l-3.04,1.73,6.24,10.92,3.03-1.73-6.24-10.92ZM371.26,154.17c-2.11,1.05-3.61,2.07-4.68,2.96-.54.45-.96.86-1.3,1.24-.17.19-.32.36-.44.52-.06.08-.12.16-.18.23-.03.04-.05.07-.08.11-.01.02-.02.04-.04.05,0,0-.01.02-.02.02,0,0,0,0,0,.01,0,0,0,0,0,0t5.23,3.49q5.23,3.49,5.23,3.49s0,0,0,0c0,0,0,0,0,.01,0,0-.01.02-.02.02-.01.02-.02.03-.03.05-.02.03-.04.06-.06.09-.04.05-.08.1-.11.15-.07.09-.12.15-.15.18-.07.08-.06.06.05-.04.23-.19.89-.69,2.26-1.37l-5.62-11.25ZM364.05,160.15c-1.06,2.26-3.03,7.81-5.33,14.73-2.36,7.11-5.22,16.12-8.11,25.61-5.74,18.88-11.69,40.11-13.93,52.21l12.36,2.29c2.1-11.31,7.85-31.91,13.6-50.84,2.86-9.41,5.69-18.31,8.01-25.3,2.39-7.18,4.1-11.92,4.77-13.35l-11.38-5.35ZM336.67,252.78c-4.01,23.15-1.67,33.41,3.63,41.06l10.34-7.16c-2.51-3.62-5.37-9.83-1.58-31.76l-12.39-2.14ZM340.32,293.87c3.92,5.6,9.02,8.5,12.7,9.73l3.98-11.93c-1.53-.51-4.23-1.95-6.37-5.01l-10.3,7.21ZM358.93,302.54c4.56-3.65,14.71-12.92,21.17-18.95l-8.58-9.19c-6.55,6.11-16.33,15.04-20.44,18.33l7.86,9.82ZM380.07,283.61c5.66-5.23,10.05-9.29,13.4-12.27,3.52-3.13,5.41-4.61,6.26-5.09l-6.24-10.92c-2.19,1.25-5.07,3.67-8.37,6.61-3.47,3.08-7.97,7.26-13.58,12.43l8.53,9.24ZM399.43,266.41c.82-.41,1.44-.83,1.76-1.04.33-.22.36-.23.41-.26l-5.62-11.25c-.82.41-1.43.83-1.76,1.04-.33.22-.36.24-.41.26l5.62,11.25ZM402.18,264.78c2.79-1.8,4.72-2.9,8.09-3.74,3.64-.91,9.14-1.55,18.98-1.76l-.27-12.57c-10.09.22-16.73.88-21.76,2.14-5.3,1.32-8.57,3.26-11.84,5.36l6.8,10.58ZM429.28,259.27c16.83-.43,27.26,0,30.18,0v-12.58c-2.28,0-13.53-.43-30.5,0l.32,12.57ZM459.46,259.27h30.34v-12.58h-30.34v12.58ZM489.66,259.27c9.62.21,15.13.85,18.84,1.77,3.46.85,5.51,1.98,8.24,3.74l6.8-10.58c-3.34-2.15-6.71-4.05-12.02-5.37-5.07-1.25-11.69-1.91-21.58-2.13l-.28,12.57ZM515.7,263.93c.83.83,1.76,1.39,2.25,1.66.56.32,1.16.62,1.55.82l5.62-11.25c-.22-.11-.4-.2-.57-.29-.17-.09-.28-.15-.37-.2-.09-.05-.09-.06-.05-.03.03.02.08.05.15.11.07.06.18.15.31.28l-8.89,8.89ZM519.19,266.25c.84.48,2.73,1.96,6.26,5.09,3.36,2.98,7.74,7.05,13.4,12.27l8.53-9.24c-5.61-5.18-10.11-9.35-13.58-12.43-3.3-2.94-6.18-5.36-8.37-6.61l-6.24,10.92ZM538.82,283.58c6.87,6.44,17.07,15.76,21.24,19.01l7.72-9.93c-3.62-2.82-13.36-11.7-20.36-18.26l-8.6,9.17ZM565.91,303.59c3.34-1.11,9.26-3.97,12.94-10.1l-10.78-6.47c-1.52,2.54-4.27,4.02-6.13,4.64l3.98,11.93ZM578.63,293.84c5.29-7.65,7.63-17.91,3.63-41.06l-12.39,2.14c3.8,21.93.93,28.14-1.57,31.76l10.34,7.16ZM582.24,252.71c-2.24-12.09-8.19-33.42-13.92-52.41-2.89-9.55-5.74-18.61-8.11-25.76-2.3-6.96-4.27-12.55-5.33-14.81l-11.38,5.35c.67,1.42,2.38,6.18,4.77,13.4,2.32,7.03,5.15,15.99,8.01,25.45,5.75,19.04,11.5,39.75,13.6,51.07l12.36-2.29ZM549.18,162.4q4.45-4.45,4.44-4.45s0,0,0,0c0,0,0,0,0,0,0,0-.01-.01-.02-.02-.01-.01-.02-.02-.04-.04-.03-.02-.05-.05-.08-.07-.05-.05-.11-.1-.16-.15-.12-.1-.25-.21-.4-.33-.29-.24-.66-.5-1.12-.81-.91-.61-2.23-1.38-4.14-2.34l-5.62,11.25c1.55.78,2.4,1.3,2.79,1.56.19.13.26.18.24.17-.01,0-.05-.04-.1-.09-.03-.02-.06-.05-.1-.09-.02-.02-.04-.04-.06-.06-.01-.01-.02-.02-.03-.03,0,0-.01-.01-.02-.02,0,0,0,0,0,0,0,0,0,0,0,0t4.44-4.45ZM547.97,154.34l-3.03-1.73-6.24,10.92,3.03,1.73,6.24-10.92ZM547.92,156.54l-.87-3.47-12.2,3.05.87,3.47,12.2-3.05ZM547.11,153.36c-.4-1.99-.96-4.59-1.84-6.35l-11.25,5.62c-.06-.13-.06-.14,0,.02.05.15.12.37.2.68.17.63.36,1.46.56,2.49l12.33-2.47ZM542.94,144.47c-5.56-3.42-11.87-6.79-17.34-7.4l-1.39,12.5c2.33.26,6.43,2.1,12.14,5.61l6.59-10.71ZM526.35,137.21c-7.78-1.83-17.37-2.77-20.51-2.77v12.57c2.06,0,10.68.8,17.63,2.43l2.88-12.24ZM505.84,134.44c-1.14,0-2.03.28-2.53.47-.26.1-.48.19-.62.26-.14.06-.26.13-.31.15-.07.03-.05.02-.02.01.04-.02.14-.07.3-.12.28-.11.96-.33,1.88-.33v12.57c1.14,0,2.03-.28,2.53-.47.26-.1.48-.2.62-.26.14-.07.26-.13.31-.15.07-.03.05-.02.02-.01-.04.02-.14.07-.3.12-.28.11-.96.33-1.88.33v-12.57ZM501.88,135.46c-3.37,1.57-5.64,2.66-7.45,3.39-.87.35-1.48.56-1.92.68-.43.12-.58.11-.54.11v12.57c2.58,0,5.04-.84,7.18-1.71,2.2-.89,4.91-2.19,8.04-3.65l-5.32-11.4ZM491.97,139.64h-7.8v12.57h7.8v-12.57ZM484.17,139.64h-8.24v12.57h8.24v-12.57ZM475.93,139.64h-16.47v12.57h16.47v-12.57ZM459.46,139.64h-16.9v12.57h16.9v-12.57ZM442.56,139.64h-8.23v12.57h8.23v-12.57ZM434.32,139.64h-7.8v12.57h7.8v-12.57ZM427.55,139.72c-1.63-.27-3.78-1.13-11.08-4.33l-5.04,11.52c6.57,2.87,10.49,4.62,14.06,5.21l2.07-12.4ZM413.95,134.87c.92,0,1.62.22,2.02.38.41.16.71.35.88.46.18.12.31.23.41.31.05.04.1.09.14.13.02.02.05.04.07.07.01.01.02.02.03.03,0,0,.01.01.02.02,0,0,0,0,0,0,0,0,0,0,0,0,0,0,0,0,0,0t-4.44,4.45q-4.45,4.45-4.44,4.45s0,0,0,0c0,0,0,0,0,0,0,0,0,0,0,0,0,0,.01.01.02.02.01.01.03.03.04.04.03.03.06.06.1.09.07.07.15.14.25.23.19.16.46.38.8.61.48.32,1.98,1.27,4.08,1.27v-12.57ZM413.08,134.44c-3.59,0-12.75.94-20.51,2.77l2.88,12.24c6.97-1.64,15.15-2.43,17.63-2.43v-12.57ZM392.65,137.19c-4.86,1.08-10.3,3.64-16.49,7.18l6.24,10.92c5.94-3.4,10.04-5.17,12.98-5.82l-2.73-12.27Z"/>
      </g>
      <path class="cls-5" d="M460.77,184.94c-6.93,0-12.14-5.64-12.14-12.14,0-6.93,5.64-12.14,12.14-12.14,6.93,0,12.14,5.64,12.14,12.14.43,6.5-5.2,12.14-12.14,12.14Z"/>
    </g>
  </g>
</svg>