<?xml version="1.0" encoding="UTF-8"?>
<svg id="Layer_1" xmlns="http://www.w3.org/2000/svg" xmlns:xlink="http://www.w3.org/1999/xlink" viewBox="0 0 788 444">
  <defs>
    <style>
      .cls-1 {
        fill: none;
      }

      .cls-2 {
        fill: #107c10;
      }

      .cls-3 {
        clip-path: url(#clippath);
      }

      .cls-4 {
        fill: #fff;
        stroke: #fff;
        stroke-width: 8.38px;
      }
    </style>
    <clipPath id="clippath">
      <rect class="cls-1" width="788" height="444"/>
    </clipPath>
  </defs>
  <g class="cls-3">
    <g>
      <rect class="cls-2" width="788" height="444.3"/>
      <path class="cls-4" d="M385.62,234.39v-58.24h5.24v55.97l1.22,1.23,35.89,35.99-3.66,3.66-38.69-38.6ZM307.12,169.59c1.38-2.07,2.83-4.14,4.35-6.21,6.41-8.52,13.91-15.88,22.49-22.08,9.02-6.42,18.68-11.3,28.97-14.64,10.29-3.34,20.99-5.01,32.12-5.01,14.12,0,27.73,2.73,40.83,8.18,12.48,5.32,23.56,12.82,33.25,22.51,9.7,9.7,17.19,20.77,22.51,33.25,5.46,13.11,8.18,26.71,8.18,40.84s-2.73,27.73-8.18,40.83c-5.32,12.48-12.82,23.56-22.52,33.25s-20.77,17.19-33.25,22.51c-13.11,5.46-26.71,8.18-40.83,8.18-11.88,0-23.33-1.94-34.37-5.83h-.01c-10.79-3.76-20.64-9.08-29.57-15.96-8.87-6.89-16.48-15.01-22.83-24.37h0c-3.2-4.7-5.96-9.6-8.27-14.7-1.75-3.87-3.3-7.86-4.63-11.98l4.99-1.38c2.94,9.18,7.1,17.7,12.48,25.55,6.14,8.95,13.47,16.66,22,23.11,8.51,6.44,17.88,11.44,28.08,14.98,10.25,3.57,20.97,5.34,32.13,5.34,9.1,0,17.88-1.18,26.35-3.56,8.42-2.36,16.34-5.69,23.74-9.99,7.42-4.3,14.17-9.54,20.25-15.69,6.05-6.13,11.23-12.82,15.52-20.07,4.31-7.28,7.67-15.21,10.11-23.76,2.45-8.61,3.64-17.45,3.57-26.49,0-9.09-1.18-17.87-3.56-26.34-2.36-8.42-5.69-16.34-9.99-23.75-4.3-7.42-9.53-14.17-15.68-20.25-6.13-6.05-12.82-11.23-20.07-15.52-7.28-4.31-15.21-7.68-23.76-10.11-8.61-2.45-17.45-3.64-26.49-3.56-9.61,0-18.94,1.33-27.99,4-9.04,2.67-17.46,6.52-25.25,11.57-7.75,5.02-14.77,10.96-21.04,17.82-6.33,6.92-11.53,14.77-15.6,23.51l-2.78,5.96h34v5.24h-46.11v-46.11h5.24v24.97l7.89,1.97c1.14-2.15,2.38-4.23,3.72-6.24Z"/>
    </g>
  </g>
</svg>