<?xml version="1.0" encoding="UTF-8"?>
<svg id="Layer_1" xmlns="http://www.w3.org/2000/svg" xmlns:xlink="http://www.w3.org/1999/xlink" viewBox="0 0 788 444">
  <defs>
    <style>
      .cls-1 {
        fill: none;
      }

      .cls-2 {
        fill: #107c10;
      }

      .cls-3 {
        clip-path: url(#clippath-1);
      }

      .cls-4 {
        clip-path: url(#clippath-2);
      }

      .cls-5 {
        fill: #fff;
      }

      .cls-6 {
        clip-path: url(#clippath);
      }
    </style>
    <clipPath id="clippath">
      <rect class="cls-1" width="788" height="444"/>
    </clipPath>
    <clipPath id="clippath-1">
      <rect class="cls-1" x="151.36" y="100.7" width="482.49" height="234.72"/>
    </clipPath>
    <clipPath id="clippath-2">
      <rect class="cls-1" x="151.36" y="100.7" width="482.49" height="234.72"/>
    </clipPath>
  </defs>
  <g class="cls-6">
    <g>
      <rect class="cls-2" width="788" height="444.3"/>
      <g class="cls-3">
        <g class="cls-4">
          <path class="cls-5" d="M399.47,279.72v-8.6h-44.87v62.62h44.87v-8.6h-35.27v-19.28h31.2v-7.99h-31.2v-18.14h35.27ZM354.31,111.98c14.32-3.08,36.07,9.25,38.14,10.48.04.04.1.06.16.06s.11-.02.16-.06c2.05-1.23,23.83-13.56,38.14-10.48.07.03.14.03.2,0,.07-.02.12-.07.15-.13.03-.07.03-.14,0-.21-.02-.07-.07-.12-.13-.16-11.33-6.71-23.6-10.79-38.53-10.79s-27.2,4.1-38.53,10.79c-.06.03-.11.09-.13.16-.02.07-.02.14,0,.21.03.06.09.11.15.13.07.02.14.02.2,0ZM392.84,159.94c-.07-.06-.15-.1-.24-.12-.09.01-.18.06-.25.12-22.12,16.77-59.99,58.26-48.44,69.97,13.48,11.75,30.78,18.23,48.69,18.23s35.21-6.48,48.69-18.23c11.54-11.71-26.33-53.18-48.45-69.97ZM412.78,141.45c0,.08.04.16.1.21,14.88,17.66,43.71,59.8,38.07,77.16-.03.06-.04.14-.03.21.01.07.05.13.11.18.07.04.15.04.23.02.08-.02.14-.07.18-.14,10.87-14.23,16.18-31.91,14.94-49.76-1.24-17.84-8.95-34.63-21.69-47.23-.1-.1-.21-.18-.33-.25-1.23-.64-8.9-3.01-31.46,19.36-.04.03-.07.07-.09.11-.02.04-.03.08-.04.13ZM334.16,219.21c.06-.04.1-.11.11-.17.02-.07,0-.14-.03-.21-5.63-17.37,23.19-59.5,38.08-77.16.06-.06.1-.13.1-.21,0-.05-.01-.09-.04-.13-.02-.04-.05-.08-.09-.11-22.56-22.37-30.23-20-31.46-19.36-.12.07-.23.15-.33.25-12.74,12.6-20.44,29.39-21.68,47.23-1.24,17.84,4.07,35.53,14.95,49.76.04.06.1.11.17.13.07.02.15.02.22-.01ZM450.17,271.12h-26.76v62.62h9.6v-23.07h17.15c6.79,0,12.14-1.79,15.9-5.32,3.76-3.53,5.66-8.38,5.66-14.4s-1.9-10.95-5.66-14.49c-3.76-3.54-9.1-5.33-15.89-5.33ZM458.9,299.34c-2.02,1.93-5.02,2.91-8.91,2.91h-16.97v-22.71h16.97c3.89,0,6.88,1,8.91,2.95,2.03,1.96,3.05,4.8,3.05,8.44s-1.02,6.47-3.05,8.4ZM573.23,304.73c-3.13-2.87-8.34-5.08-15.48-6.6l-5.46-1.14c-5.18-1.1-8.78-2.46-10.68-4.02-1.9-1.44-2.88-3.6-2.88-6.41s1.08-4.91,3.21-6.41c2.13-1.5,5.3-2.26,9.36-2.26,5.23,0,9.07.95,11.42,2.83,2.34,1.88,3.7,4.85,3.97,8.84v.09h9.51v-.09c-.12-6.14-2.27-11.03-6.41-14.54-4.14-3.51-10.39-5.29-18.58-5.29-6.79,0-12.26,1.56-16.24,4.62-3.99,3.07-6.02,7.25-6.02,12.39s1.67,9.24,4.96,12.17c3.29,2.93,8.22,5.05,14.65,6.33l5.36,1.14c5.3,1.16,9.01,2.5,11.05,3.97,2.03,1.47,3.04,3.58,3.04,6.28,0,3.34-1.24,5.93-3.7,7.69-2.47,1.76-6.04,2.65-10.63,2.65-5.55,0-9.8-1.17-12.61-3.49s-4.28-5.82-4.37-10.45v-.09h-9.6v.09c.06,7.19,2.42,12.73,7.03,16.47,4.61,3.74,11.09,5.63,19.36,5.63,7.61,0,13.65-1.69,17.96-5.02,4.3-3.33,6.5-7.96,6.5-13.75,0-4.86-1.59-8.77-4.73-11.64ZM183.11,308.92h18.49c-.2,5.11-2.17,9.36-5.86,12.64-3.72,3.36-8.34,5.06-13.75,5.06-6.22,0-11.28-2.2-15.06-6.55-3.78-4.35-5.61-10.24-5.61-17.65s1.88-13.36,5.61-17.66c3.66-4.34,8.66-6.55,14.88-6.55,4.65,0,8.67,1.23,11.95,3.66,3.26,2.42,5.49,5.97,6.24,9.96v.07h9.86v-.11c-1-6.65-4.03-12.07-9.01-16.1-4.98-4.03-11.48-5.98-19.15-5.98-4.25-.06-8.48.7-12.44,2.24-3.68,1.5-6.97,3.8-9.63,6.73-2.78,2.99-4.9,6.52-6.22,10.38-2.75,8.66-2.75,17.96,0,26.62,1.32,3.85,3.42,7.39,6.16,10.4,2.58,2.95,5.81,5.27,9.42,6.79,3.87,1.56,8.02,2.33,12.19,2.27,4.45,0,8.43-.82,11.83-2.46,3.39-1.64,6.32-4.1,8.52-7.15v8.19h9.04v-32.98h-27.48v8.16ZM629.11,304.73c-3.14-2.87-8.34-5.08-15.48-6.6l-5.45-1.14c-5.18-1.1-8.78-2.46-10.68-4.02-1.9-1.44-2.88-3.6-2.88-6.41s1.08-4.91,3.21-6.41c2.13-1.5,5.29-2.26,9.36-2.26,5.23,0,9.08.95,11.42,2.83,2.35,1.88,3.7,4.85,3.97,8.84v.09h9.5v-.09c-.11-6.14-2.27-11.03-6.41-14.54s-10.39-5.29-18.58-5.29c-6.79,0-12.26,1.56-16.24,4.62-3.99,3.07-6.02,7.24-6.02,12.39s1.67,9.24,4.96,12.17c3.29,2.93,8.22,5.05,14.65,6.33l5.36,1.14c5.3,1.16,9.01,2.5,11.05,3.97,2.03,1.47,3.04,3.58,3.04,6.28,0,3.34-1.23,5.93-3.7,7.69-2.47,1.76-6.04,2.65-10.64,2.65-5.55,0-9.79-1.17-12.61-3.49-2.81-2.31-4.28-5.82-4.37-10.45v-.09h-9.6v.09c.06,7.19,2.42,12.73,7.03,16.47,4.6,3.74,11.09,5.63,19.36,5.63,7.61,0,13.65-1.69,17.96-5.02,4.3-3.33,6.5-7.96,6.5-13.75,0-4.85-1.59-8.77-4.73-11.64ZM489.56,271.12l-24.53,62.62h9.96l6.07-16.22h27.84l6.07,16.22h9.96l-24.52-62.62h-10.86ZM484.13,309.18l10.86-28.67,10.86,28.67h-21.72ZM240.11,271.12l-24.53,62.62h9.96l6.07-16.22h27.86l6.07,16.22h9.96l-24.54-62.62h-10.85ZM234.68,309.18l10.86-28.67,10.86,28.67h-21.72ZM308.78,333.75h8.04l14.19-36.8c1.97-5.08,3.56-9.42,4.75-12.89v49.68h9.24v-62.62h-13.26l-12.43,32.42c-2.36,6.42-4.52,12.56-6.42,18.25-1.64-4.78-3.76-10.62-6.34-17.37l-12.86-33.3h-13.18v62.62h9.24v-49.51c1.39,3.91,2.95,8.19,4.66,12.7l14.34,36.75.02.08Z"/>
        </g>
      </g>
    </g>
  </g>
</svg>