<?xml version="1.0" encoding="UTF-8"?>
<svg id="Layer_1" xmlns="http://www.w3.org/2000/svg" xmlns:xlink="http://www.w3.org/1999/xlink" viewBox="0 0 788 444">
  <defs>
    <style>
      .cls-1 {
        fill: none;
      }

      .cls-2 {
        fill: #fff;
        stroke: #fff;
        stroke-width: 6.29px;
      }

      .cls-3 {
        fill: #107c10;
      }

      .cls-4 {
        clip-path: url(#clippath-1);
      }

      .cls-5 {
        clip-path: url(#clippath);
      }
    </style>
    <clipPath id="clippath">
      <rect class="cls-1" width="788" height="444"/>
    </clipPath>
    <clipPath id="clippath-1">
      <rect class="cls-1" x="275.59" y="102.79" width="236.82" height="236.82"/>
    </clipPath>
  </defs>
  <g class="cls-5">
    <g>
      <rect class="cls-3" width="788" height="444.3"/>
      <g class="cls-4">
        <path class="cls-2" d="M442.66,296.2l1.38-4.14h-70.47l1.38,4.14c.75,2.26,1.11,4.39,1.11,6.41,0,2.68-.5,5.15-1.48,7.43-1,2.34-2.36,4.36-4.07,6.07s-3.73,3.07-6.07,4.08c-2.29.98-4.76,1.48-7.43,1.48s-5.15-.5-7.43-1.48c-2.34-1.01-4.36-2.36-6.07-4.08-1.71-1.71-3.07-3.73-4.07-6.07-.98-2.29-1.48-4.76-1.48-7.43,0-3.65.96-7.02,2.89-10.14,1.91-3.09,4.52-5.42,7.91-7.02l2.53-1.19-.88-2.65-50.07-150.21-.72-2.15h-20.86v-8.51h27.08l9.11,27.45.71,2.15h192.4l-32.48,97.32h-127.44l1.37,4.13,9.83,29.6.71,2.15h100.56c2.68,0,5.15.5,7.43,1.48,2.34,1,4.36,2.36,6.07,4.07s3.07,3.73,4.08,6.07c.98,2.29,1.48,4.76,1.48,7.43s-.5,5.15-1.48,7.43c-1.01,2.34-2.36,4.36-4.08,6.07-1.71,1.71-3.73,3.07-6.07,4.08-2.29.98-4.75,1.48-7.43,1.48s-5.15-.5-7.43-1.48c-2.34-1.01-4.36-2.36-6.07-4.08-1.71-1.71-3.07-3.73-4.07-6.07-.98-2.29-1.48-4.76-1.48-7.43,0-2.01.36-4.14,1.11-6.41ZM322.88,158.85h-4.36l1.38,4.14,24.63,74.01.71,2.15h124.22l.72-2.15,24.63-74.01,1.38-4.14h-173.3ZM367.54,302.61c0-2.87-1.09-5.39-3.12-7.43-2.03-2.03-4.56-3.12-7.43-3.12s-5.39,1.08-7.43,3.12c-2.03,2.03-3.12,4.56-3.12,7.43s1.09,5.39,3.12,7.43c2.03,2.03,4.56,3.12,7.43,3.12s5.39-1.09,7.43-3.12,3.12-4.56,3.12-7.43ZM460.61,313.15c2.87,0,5.39-1.09,7.43-3.12s3.12-4.56,3.12-7.43-1.09-5.39-3.12-7.43c-2.03-2.03-4.56-3.12-7.43-3.12s-5.39,1.08-7.43,3.12c-2.03,2.03-3.12,4.56-3.12,7.43s1.08,5.39,3.12,7.43c2.03,2.03,4.56,3.12,7.43,3.12Z"/>
      </g>
    </g>
  </g>
</svg>