<?xml version="1.0" encoding="utf-8"?>
<!-- Generator: Adobe Illustrator 27.0.0, SVG Export Plug-In . SVG Version: 6.00 Build 0)  -->
<svg version="1.1" id="Layer_1" xmlns="http://www.w3.org/2000/svg" xmlns:xlink="http://www.w3.org/1999/xlink" x="0px" y="0px"
	 viewBox="0 0 788 444" style="enable-background:new 0 0 788 444;" xml:space="preserve">
<style type="text/css">
	.st0{fill:#E6E6E6;}
</style>
<rect class="st0" width="788" height="444"/>
<g>
	<g>
		<path d="M208.9,230c-42.6,0-76.7,34.2-76.7,76.4s34.2,76.7,76.7,76.7c42.2,0,76.7-34.2,76.7-76.7C285.6,264.2,251.1,230,208.9,230
			z M178.3,276.2h44l-6.5,10.9h-44.4L178.3,276.2z M251.8,330l-6.5-10.5h-19.6l6.5-10.5h6.2l-7.6-12L210,330.4h-55.3l13.5-21.5h-9.8
			l6.5-10.5h42.9l-6.5,10.2h-20.4l-6.5,10.5h30.2l26.9-42.9l33.5,53.5h-13.1L251.8,330L251.8,330z"/>
	</g>
	<path d="M655.9,282H634l-23.3,48.4l-24-48.4h-23.3l35.3,71.7l-23.6,46.6h22.5L655.9,282z M515.1,346.4c-12.7,0-22.9-9.8-22.9-23.6
		s10.2-23.6,22.9-23.6c12.7,0,22.9,9.8,22.9,23.6C537.7,336.9,527.8,346.4,515.1,346.4 M511.5,365.3c10.2,0,19.3-3.6,26.2-10.2v9.1
		h20.7V282h-20.7v9.1c-6.5-6.5-15.6-10.2-25.5-10.2c-21.5,0-40.7,17.8-40.7,42.2S490.4,365.3,511.5,365.3 M460.6,242.4l-20.7,6.5
		v114.9h20.7V242.4z M388.2,302.7H362v-33.5h26.2c10.9,0,18.5,6.9,18.5,16.7C406.7,295.8,399.1,302.7,388.2,302.7 M339.1,248.9
		v114.9h22.5V322h28c22.5,0,39.3-15.6,39.3-36.7c0-21.1-16-36.4-38.6-36.4C390.4,248.9,339.1,248.9,339.1,248.9z"/>
</g>
</svg>
