<?xml version="1.0" encoding="utf-8"?>
<!-- Generator: Adobe Illustrator 27.0.0, SVG Export Plug-In . SVG Version: 6.00 Build 0)  -->
<svg version="1.1" id="Layer_1" xmlns="http://www.w3.org/2000/svg" xmlns:xlink="http://www.w3.org/1999/xlink" x="0px" y="0px"
	 viewBox="0 0 788 444" style="enable-background:new 0 0 788 444;" xml:space="preserve">
<style type="text/css">
	.st0{fill:#E6E6E6;}
</style>
<rect class="st0" width="788" height="444"/>
<g>
	<path d="M439.8,246.6c5.2-11.1,16.2-24.4,26.7-34.8c10.5-10.5,23.8-21.5,34.8-26.7c-11.1-5.2-24.4-16.2-34.8-26.7
		c-10.5-10.5-21.5-23.8-26.7-34.9c-5.2,11.1-16.2,24.4-26.7,34.8c-10.5,10.5-23.8,21.5-34.8,26.7c11.1,5.2,24.4,16.2,34.8,26.7
		C423.6,222.2,434.6,235.5,439.8,246.6z M400.9,185.1l3-2.4c6.2-4.9,12.1-10.3,17.7-15.9c5.6-5.6,10.9-11.5,15.8-17.7l2.4-3l2.4,3
		c4.9,6.2,10.2,12.1,15.8,17.7c5.6,5.6,11.5,10.9,17.7,15.9l3,2.4l-3,2.4c-12.3,9.9-23.6,21.2-33.5,33.5l-2.4,3l-2.4-3
		c-9.9-12.3-21.2-23.6-33.6-33.5L400.9,185.1z"/>
	<path d="M330.4,251.1c7.2-13.5,25.5-31.8,39-39c-13.5-7.2-31.8-25.5-39-39c-7.2,13.5-25.5,31.8-39,39
		C304.8,219.2,323.2,237.6,330.4,251.1z M314.9,209.8c2.3-2,4.5-4.2,6.7-6.4c2.4-2.4,4.5-4.6,6.4-6.7l2.3-2.6l2.3,2.6
		c1.9,2.2,4.1,4.4,6.4,6.7s4.6,4.4,6.7,6.4l2.6,2.3l-2.6,2.3c-2.2,1.9-4.4,4.1-6.7,6.4c-2.3,2.3-4.4,4.6-6.4,6.7l-2.3,2.6l-2.3-2.6
		c-2-2.3-4.2-4.5-6.4-6.7c-2.4-2.4-4.6-4.5-6.7-6.4l-2.6-2.3L314.9,209.8z"/>
	<path d="M470.3,274.2l-76.3-16l-76.3,16l-34.1,42.4l35.5,10.4v51l75,22.2l75-22.2v-51l35.5-10.4L470.3,274.2z M304,310.1l17.3-21.6
		l50.1,14.7l-17.3,21.6L304,310.1z M331,369.1v-38.6l27.4,8l29.6-36.9V386L331,369.1z M445.6,280.9L394,297.5l-53.8-16.4l53.8-10.7
		L445.6,280.9z M457,369.1l-57,17v-84.4l29.6,36.9l27.4-8V369.1z M433.9,324.8l-17.3-21.6l50-14.7l17.3,21.6L433.9,324.8z"/>
</g>
</svg>
