<?xml version="1.0" encoding="utf-8"?>
<!-- Generator: Adobe Illustrator 27.0.0, SVG Export Plug-In . SVG Version: 6.00 Build 0)  -->
<svg version="1.1" id="Layer_1" xmlns="http://www.w3.org/2000/svg" xmlns:xlink="http://www.w3.org/1999/xlink" x="0px" y="0px"
	 viewBox="0 0 788 444" style="enable-background:new 0 0 788 444;" xml:space="preserve">
<style type="text/css">
	.st0{fill:#E6E6E6;}
</style>
<rect class="st0" width="788" height="444"/>
<path d="M438.3,333.1l-13.1-41.9l51.3-39.9h-63.7L394,191.5l-17.4,59.7h-64.4l51,39.9l-19.5,63.1l50.7-38.9l32.9,25.2v20.8
	l-32.9-25.2l-82.2,62.4L344,297.2l-80.9-62.4h100.3l30.5-98l30.9,98h100L444,297.2l11.4,35.9H438.3z M492.3,316.7v32.9h32.5v16.1
	H492v32.9h-16.4v-32.9h-32.9v-16.4h32.9v-32.9h16.8v0.3H492.3z"/>
</svg>
