<?xml version="1.0" encoding="utf-8"?>
<!-- Generator: Adobe Illustrator 27.0.0, SVG Export Plug-In . SVG Version: 6.00 Build 0)  -->
<svg version="1.1" id="Layer_1" xmlns="http://www.w3.org/2000/svg" xmlns:xlink="http://www.w3.org/1999/xlink" x="0px" y="0px"
	 viewBox="0 0 788 444" style="enable-background:new 0 0 788 444;" xml:space="preserve">
<style type="text/css">
	.st0{fill:#E6E6E6;}
</style>
<rect class="st0" width="788" height="444"/>
<path d="M520.9,214.4c-8.7-8.7-18.8-15.6-29.8-20.4v-46.9H374.6L238.7,283l116.5,116.5l38.8-38.8c16.7,12.6,36.9,19.4,58.2,19.4
	c25.9,0,50.3-10.1,68.6-28.4s28.4-42.7,28.4-68.6C549.3,257.1,539.2,232.7,520.9,214.4z M266.2,283l116.5-116.5h89v21.3
	c-6.3-1.3-12.8-1.9-19.4-1.9h-9.7c-5.4,0-9.7,4.3-9.7,9.7s4.3,9.7,9.7,9.7h9.7c6.7,0,13.2,0.9,19.4,2.5v47.7L355.2,372L266.2,283z
	 M452.2,360.6c-16.1,0-31.4-4.9-44.3-13.9l83.2-83.2v-47.8c23.2,13.4,38.8,38.5,38.8,67.2C529.9,325.8,495,360.6,452.2,360.6z"/>
</svg>
