<?xml version="1.0" encoding="utf-8"?>
<!-- Generator: Adobe Illustrator 27.0.0, SVG Export Plug-In . SVG Version: 6.00 Build 0)  -->
<svg version="1.1" id="Layer_1" xmlns="http://www.w3.org/2000/svg" xmlns:xlink="http://www.w3.org/1999/xlink" x="0px" y="0px"
	 viewBox="0 0 788 444" style="enable-background:new 0 0 788 444;" xml:space="preserve">
<style type="text/css">
	.st0{fill:#E6E6E6;}
</style>
<rect class="st0" width="788" height="444"/>
<g>
	<path d="M411.2,210l-16.6-34.7l-17.5,34.3l-38.2,5l27.2,27.2l-7,37.9l34.3-17.5l33.9,18.4l-6-38l27.9-26.5L411.2,210z M409,254.7
		l-15.4-8.3l-15.5,7.9l3.2-17.2l-12.4-12.4l17.4-2.3l8-15.6l7.5,15.8l17.3,2.8l-12.7,12L409,254.7z"/>
	<path d="M466.2,154.6v-18.7H321.8v18.6h-37.2v72c0,6.3,1.1,12.5,3.3,18.4c2.1,5.7,5.2,11.1,9.1,15.8c3.9,4.7,8.5,8.6,13.8,11.8
		c3.9,2.4,8.1,4.2,12.5,5.5c1.2,6.2,3.2,12.2,6,17.9c3.4,7,7.9,13.4,13.4,18.9c5.4,5.5,11.7,10.1,18.6,13.6c5.3,2.7,10.8,4.7,16.6,6
		v11.1H322v32.6h-18.6v32.6H479l6-1.7v-30.9h-18.6v-32.6h-55.9v-11.1c5.8-1.3,11.3-3.4,16.6-6.1c6.9-3.5,13.2-8.1,18.6-13.6
		s10-11.9,13.4-18.8c2.8-5.7,4.8-11.7,6-17.9c4.4-1.3,8.6-3.1,12.5-5.5c5.2-3.1,9.9-7.1,13.8-11.8c3.9-4.7,6.9-10,9-15.7
		c2.2-5.9,3.3-12.1,3.3-18.4v-72.1h-37.5V154.6z M307.6,251.8c-2.9-3.5-5.1-7.4-6.7-11.7c-1.6-4.3-2.4-8.9-2.4-13.5v-58h23.3v4.6
		h-18.7v53.4c0,3.6,0.5,7.2,1.6,10.6c1.1,3.4,2.7,6.7,4.8,9.6c2.1,2.9,4.5,5.5,7.4,7.6c1.7,1.3,3.5,2.4,5.4,3.3v5
		c-1.5-0.7-3-1.5-4.5-2.3C314,258.1,310.5,255.2,307.6,251.8L307.6,251.8z M321.8,187.2v52.6c-0.3-0.4-0.5-0.7-0.8-1.1
		c-1.2-1.7-2.2-3.7-2.8-5.7c-0.7-2.1-1-4.2-1-6.4v-39.4H321.8z M396.3,335.6v9.9h-4.6v-9.9H396.3z M470.8,392.1v4.6H317.2v-4.6
		H470.8L470.8,392.1z M452.2,359.5v18.6H335.8v-18.6H452.2z M435.5,304.9c-4.4,4.4-9.5,8.1-15,11c-5.6,2.8-11.6,4.8-17.7,5.7h-17.6
		c-6.2-0.9-12.2-2.9-17.7-5.7c-5.5-2.9-10.6-6.6-15-11s-8-9.6-10.8-15.2c-2.8-5.6-4.6-11.7-5.3-17.9l-0.6-110.3v-11.6h116.4v11.6
		l0,0l-0.6,110.4c-0.8,6.2-2.6,12.2-5.3,17.8C443.6,295.3,439.9,300.5,435.5,304.9z M489.4,226.6c0,4.6-0.8,9.2-2.5,13.5
		c-1.5,4.2-3.8,8.1-6.6,11.6c-2.9,3.5-6.4,6.4-10.2,8.8c-1.4,0.9-2.9,1.6-4.5,2.3v-5.1c5.1-2.6,9.5-6.4,12.7-11.1
		c2-2.9,3.5-6,4.6-9.3c1.2-3.4,1.8-7,1.8-10.7v-53.4h-18.6v-4.6h23.3L489.4,226.6z M466.2,239.6v-52.4h4.6v39.4c0,2.1-0.3,4.2-1,6.2
		c-0.7,2.1-1.7,4-2.9,5.8C466.7,238.9,466.4,239.3,466.2,239.6L466.2,239.6z"/>
</g>
</svg>
