<?xml version="1.0" encoding="utf-8"?>
<!-- Generator: Adobe Illustrator 27.0.0, SVG Export Plug-In . SVG Version: 6.00 Build 0)  -->
<svg version="1.1" id="Layer_1" xmlns="http://www.w3.org/2000/svg" xmlns:xlink="http://www.w3.org/1999/xlink" x="0px" y="0px"
	 viewBox="0 0 788 444" style="enable-background:new 0 0 788 444;" xml:space="preserve">
<style type="text/css">
	.st0{fill:#E6E6E6;}
</style>
<rect class="st0" width="788" height="444"/>
<path d="M492.9,226.2c1.4,1.4,2.9,2.5,4.3,4.3c1.4,1.4,2.5,3.3,3.6,5.1c3.3,6.2,6.2,12.7,8.7,19.2s5.4,13,8,19.5
	c3.6,8.3,6.9,17,9.8,25.7c2.9,8.7,5.4,17.7,6.9,26.8c0.7,4.3,1.4,8,1.8,12.3c0.4,4.3,0.7,8,0.7,12.3c0,5.4-0.7,10.5-1.8,15.6
	c-1.4,5.1-3.3,9.8-6.2,14.8c-1.4,1.8-3.3,4.3-5.1,6.2c-1.8,1.8-4.3,4-6.9,5.4c-2.2,1.4-4.7,2.9-7.6,4s-5.4,1.4-7.6,1.4
	c-2.9,0-6.2-1.4-9.8-4c-2.9-2.2-6.9-5.4-10.1-8.7c-3.6-3.6-6.9-6.9-9.8-10.5s-5.4-6.5-7.2-8.7c-1.8-2.2-4.3-4.7-6.5-7.6
	s-4.3-5.1-7.2-6.9l-3.3-2.2c-1.8-1.4-4-2.2-5.8-2.9c-1.8-0.7-4.3-1.1-6.5-1.4c-2.2-0.4-4.3-0.4-6.9-0.4c-2.2,0-4.3,0-6.5,0h-59.4
	c-2.2,0-4.3,0.4-6.5,0.7c-1.8,0.4-4.3,1.1-6.5,1.4s-4.3,1.4-5.8,2.9l-2.9,1.8c-2.5,1.8-4.7,4.3-7.2,6.9c-2.2,2.5-4.3,5.1-6.5,7.6
	c-1.8,2.2-4.3,4.7-7.2,8.7c-2.9,3.6-6.5,6.9-9.8,10.5c-3.6,3.6-7.2,6.5-10.5,8.7c-3.6,2.5-6.9,4-9.8,4c-2.5,0-5.1-0.7-7.6-1.4
	c-2.5-1.1-5.1-2.2-7.6-4c-2.2-1.4-4.3-3.3-6.9-5.4c-2.2-1.8-4-4.3-5.1-6.2c-2.9-4.7-5.1-9.8-6.2-14.8c-1.1-5.1-1.8-10.5-1.8-15.6
	c0-4.3,0.4-8.3,0.7-12.3c0.4-4,1.1-8,1.8-12.3c0.7-4.3,1.8-8.7,3.3-13.8c1.1-4.7,2.9-10.1,4.7-15.6s4-10.9,5.8-16.6
	c2.2-5.8,4.3-11.2,6.9-16.6c2.2-5.4,4.3-10.5,6.9-15.2c2.2-4.7,4.3-9,6.5-13c1.1-1.8,2.2-3.6,3.6-5.1c1.4-1.4,2.9-3.3,4.3-4.3v-3.6
	c0-1.1,0-2.2,0.4-2.9s0.7-1.8,1.4-2.9c0.7-1.1,1.4-1.4,2.9-2.5c1.1-0.7,2.5-1.4,4.7-1.8c2.2-0.7,4.3-1.4,7.2-2.2
	c2.5-1.1,5.1-1.4,7.2-1.8c2.2-0.7,4.3-1.1,5.4-1.4c3.6-0.7,7.2-1.4,10.5-1.4c3.6-0.4,7.2-0.7,10.5-0.7c1.4,0,2.9,0,4.3,0
	s3.3,0.7,4.3,1.4l0,0c2.2,1.1,4.3,2.2,6.2,3.6c1.8,1.4,4.3,2.2,6.2,3.6h50.3c2.2-1.4,4-2.2,5.4-3.3s3.3-1.8,4.7-2.5
	c1.4-0.7,3.3-1.4,4.7-1.8c1.4-0.4,4-0.7,6.5-0.7c3.6,0,7.2,0.4,10.5,0.7c3.6,0.4,7.2,1.1,10.5,1.4c1.4,0.4,3.3,0.7,5.4,1.4
	c2.2,0.7,4.7,1.4,7.2,1.8c2.5,0.4,4.7,1.4,7.2,2.2c2.2,0.7,4,1.4,4.7,2.2c2.2,1.4,3.6,3.3,4,5.1
	C492.5,221.5,492.9,223.6,492.9,226.2z M502.3,380.4c3.3-1.1,6.2-2.2,8.3-4.3c2.2-1.8,4-4.3,5.1-6.9c1.4-2.5,2.2-5.4,2.5-8.7
	c0.4-3.3,0.7-6.2,1.1-9.4c0-3.6-0.4-7.2-0.7-10.9s-1.1-6.9-1.4-10.9c-1.8-9.8-4.3-19.2-8-28.6c-3.6-9.4-6.9-18.5-10.9-27.9
	c-2.2-4.7-4.3-9.8-6.2-14.8c-1.8-4.7-4.3-9.8-6.9-14.8c-0.7-1.4-1.4-2.5-2.9-3.3c-1.1-0.7-2.2-1.4-3.3-2.5c-1.1-1.1-1.8-1.8-2.9-2.9
	c-1.1-1.1-1.4-2.2-1.1-4.3v-2.9c-5.1-1.8-10.5-3.3-15.6-4.3c-5.4-1.1-10.9-1.4-16.3-1.4h-1.4c-0.7,0-1.1,0-1.4,0
	c-3.6,1.8-6.2,3.6-7.6,4.7c-1.4,1.1-3.6,1.8-5.1,2.5c-1.4,0.7-3.6,1.1-5.1,1.1c-1.8,0-4.3,0-8.3,0h-35.5c-3.6,0-6.5,0-8.3,0
	s-3.6-0.4-5.1-1.1s-3.3-1.4-5.1-2.5s-4.3-2.5-7.6-4.7c-0.4,0-1.1,0-1.4,0c-0.7,0-1.1,0-1.4,0c-5.4,0-10.9,0.7-16.3,1.4
	c-5.4,1.1-10.5,2.5-15.9,4.3c0,2.5-0.4,4.3-0.7,6.2s-1.8,2.9-4.3,4.3c-1.1,0.7-1.8,1.4-2.9,1.8s-1.4,1.8-2.2,2.9
	c-2.5,4.7-4.7,9.8-6.9,14.5c-1.8,4.7-4.3,9.8-6.2,15.2c-4,9-7.2,18.5-10.9,27.5c-3.6,9.4-6.2,18.8-8,29c-0.7,3.6-1.4,6.9-1.4,10.5
	c-0.4,3.6-0.7,6.9-0.7,10.9c0,2.9,0.4,6.2,0.7,9s1.4,5.8,2.9,8.7c1.4,2.9,3.3,5.1,5.1,6.9s4.7,3.6,8.3,4.3c1.4-1.1,3.3-2.2,5.4-4.3
	c2.2-2.2,4.7-4.3,6.9-6.9c2.5-2.5,4.7-5.1,7.2-7.6c2.2-2.5,4-4.3,5.1-6.2c1.1-1.1,2.2-2.2,3.6-4.3c1.4-1.4,3.3-3.6,4.7-5.1
	c1.4-1.4,3.3-3.6,4.7-4.7c1.4-1.4,2.9-2.5,4.3-3.6c0.4-0.4,1.1-0.7,1.4-1.1c0.3-0.4,0.7-0.7,1.4-1.1c2.5-1.8,5.1-3.6,8-4.3
	c2.9-1.1,5.8-1.8,8.7-2.2c2.9-0.7,6.2-1.1,9-1.1c3.3,0,6.2-0.4,9.4-0.4H423c3.3,0,6.2,0,9.4,0c2.9,0,6.2,0.4,9,1.1
	c2.9,0.7,6.2,1.4,8.7,2.2c2.5,1.1,5.4,2.5,8,4.3c0.4,0.4,1.1,0.7,1.4,1.1c0.3,0.4,0.7,0.7,1.4,1.1c1.4,0.7,2.5,1.8,4.3,3.3
	c1.4,1.4,3.3,3.3,4.7,4.7c1.4,1.8,3.3,3.6,4.7,5.4c1.4,1.4,2.5,3.3,4,4.3c1.4,1.4,3.3,3.6,5.1,6.2c2.2,2.5,4.3,4.7,6.9,7.2
	c2.2,2.5,4.7,4.7,6.9,6.9C498.7,377.8,500.8,379.6,502.3,380.4z M395.9,248.3c2.2,0,4.3,1.1,6.2,2.5c1.4,1.4,2.5,4,2.5,6.2
	c0,2.2-1.1,4.3-2.5,6.2c-1.4,1.4-4,2.5-6.2,2.5s-4.3-1.1-6.2-2.5c-1.4-1.4-2.5-4-2.5-6.2c0-2.2,1.1-4.3,2.5-6.2
	C391.2,249,393.3,248.3,395.9,248.3z"/>
</svg>
