<?xml version="1.0" encoding="utf-8"?>
<!-- Generator: Adobe Illustrator 26.3.1, SVG Export Plug-In . SVG Version: 6.00 Build 0)  -->
<svg version="1.1" id="Layer_1" xmlns="http://www.w3.org/2000/svg" xmlns:xlink="http://www.w3.org/1999/xlink" x="0px" y="0px"
	 viewBox="0 0 1000 1000" style="enable-background:new 0 0 1000 1000;" xml:space="preserve">
<style type="text/css">
	.st0{fill:#FFFFFF;}
</style>
<g>
	<polygon class="st0" points="850.8,698.6 993.8,698.6 878.5,787.2 923.7,932.2 807,842.2 690.2,932.2 735.4,787.2 620.1,698.6 
		763.2,698.6 807,558.5 	"/>
	<path class="st0" d="M639.6,656.1c-9-29.2-16.5-52.1-21.4-67.1c33-25.1,66.1-49.9,98.8-75.4c32.4-25.3,65.2-50.6,98.3-75.9H571
		c-11.7-38.3-23.4-76.1-35-113.4s-23.7-75.3-36-113.9c-12,38.3-23.8,76.1-35.5,113.4S441,399.1,429,437.7H184.7
		c33.1,25.3,65.9,50.6,98.3,75.9c32.4,25.3,65.4,50.4,98.8,75.4c-13,40.2-25.6,80.1-38,119.7c-12.3,39.6-24.7,79.6-37,120.2
		c32.4-25,64.6-49.8,96.3-74.4C435,729.8,467.2,705,500,680l169,132.7l-18,62.3L500,758.9L188.6,998.3l120.7-386.4L1.7,375.4h381.5
		L500,1.7l116.8,373.7h381.5L690.7,611.9c4.6,14.8,9.3,29.7,13.9,44.5"/>
</g>
</svg>
