<?xml version="1.0" encoding="utf-8"?>
<!-- Generator: Adobe Illustrator 27.8.1, SVG Export Plug-In . SVG Version: 6.00 Build 0)  -->
<svg version="1.1" id="Logo" xmlns="http://www.w3.org/2000/svg" xmlns:xlink="http://www.w3.org/1999/xlink" x="0px" y="0px"
	 width="400px" height="120px" viewBox="0 0 400 120" style="enable-background:new 0 0 400 120;" xml:space="preserve">
<style type="text/css">
	.st0{display:none;fill:#2F2F2F;}
	.st1{fill:#FFFFFF;}
</style>
<rect x="-1204" y="-437.6" class="st0" width="3645.8" height="1294.9"/>
<path class="st1" d="M88.1,55.4C88.1,55.4,88.1,55.5,88.1,55.4c7,5.3,18.7,18.2,15.1,21.9c-4,3.5-9.3,5.7-15.1,5.7
	c-5.8,0-11.1-2.1-15.1-5.7C69.4,73.7,81.1,60.7,88.1,55.4C88,55.5,88.1,55.4,88.1,55.4z M100.1,40.4c-3.5-2.1-7.3-3.4-12-3.4
	s-8.5,1.3-12,3.4c0,0-0.1,0.1,0,0.1c0,0,0.1,0.1,0.1,0c4.5-1,11.2,2.9,11.9,3.3c0,0,0,0,0,0s0,0,0,0c0.6-0.4,7.4-4.2,11.9-3.3
	c0,0,0.1,0,0.1,0C100.1,40.4,100.1,40.4,100.1,40.4z M72,43.6c0,0-0.1,0-0.1,0.1c-4.2,4.2-6.8,9.9-6.8,16.3c0,5.2,1.8,10.1,4.7,13.9
	c0,0,0.1,0.1,0.1,0c0,0,0-0.1,0-0.1c-1.8-5.4,7.2-18.6,11.8-24.1c0,0,0,0,0-0.1c0,0,0-0.1,0-0.1C74.8,42.7,72.4,43.4,72,43.6z
	 M94.4,49.6C94.4,49.7,94.4,49.7,94.4,49.6c0,0.1,0,0.1,0,0.1c4.6,5.5,13.6,18.7,11.8,24.1c0,0,0,0.1,0,0.1c0,0,0.1,0,0.1,0
	c3-3.9,4.7-8.7,4.7-13.9c0-6.4-2.6-12.2-6.8-16.3c0,0-0.1-0.1-0.1-0.1C103.8,43.4,101.4,42.7,94.4,49.6z M166.4,46.5h-4.8
	l-10.8,27.6h4.4l2.7-7.2h12.3l2.7,7.2h4.4L166.4,46.5z M159.2,63.3l4.8-12.7l4.8,12.7H159.2z M148.6,59.6v5.1v9.5v0l-4,0v-3.6
	c-1,1.4-2.3,2.5-3.8,3.2c-1.5,0.7-3.2,1.1-5.2,1.1c-2,0-3.8-0.3-5.4-1c-1.6-0.7-3-1.7-4.1-3c-1.2-1.3-2.1-2.9-2.7-4.6
	c-0.6-1.7-0.9-3.7-0.9-5.8c0-2.2,0.3-4.2,0.9-5.9c0.6-1.7,1.5-3.3,2.7-4.6c1.2-1.3,2.6-2.3,4.2-3c1.6-0.7,3.5-1,5.5-1
	c3.4,0,6.2,0.9,8.4,2.6c2.2,1.8,3.5,4.2,4,7.1l0,0H144l0,0c-0.4-1.8-1.3-3.3-2.8-4.4c-1.4-1.1-3.2-1.6-5.3-1.6c-2.7,0-4.9,1-6.6,2.9
	c-1.6,1.9-2.5,4.5-2.5,7.8s0.8,5.9,2.5,7.8c1.7,1.9,3.9,2.9,6.6,2.9c2.4,0,4.4-0.8,6.1-2.2c1.6-1.4,2.5-3.3,2.6-5.6h-8.1v-3.6H148.6
	z M216.2,50.3v8H230v3.5h-13.7v8.5h15.5v3.8H212V46.5h19.7v3.8H216.2z M207.8,46.5v27.6h-4.1V52.2c-0.5,1.5-1.2,3.4-2.1,5.7
	l-6.2,16.2h-3.5l0,0l-6.3-16.2c-0.8-2-1.4-3.9-2.1-5.6v21.9h-4.1V46.5h5.8l5.7,14.7c1.1,3,2.1,5.6,2.8,7.7c0.8-2.5,1.8-5.2,2.8-8.1
	l5.5-14.3H207.8z M261.1,48.9c-1.7-1.6-4-2.4-7-2.4h-11.8v27.6h4.2V64h7.5c3,0,5.3-0.8,7-2.4c1.7-1.6,2.5-3.7,2.5-6.4
	C263.6,52.6,262.7,50.4,261.1,48.9z M246.5,50.2h7.5c1.7,0,3,0.4,3.9,1.3c0.9,0.9,1.3,2.1,1.3,3.7c0,1.6-0.5,2.9-1.3,3.7
	c-0.9,0.9-2.2,1.3-3.9,1.3h-7.5V50.2z M310.3,66.5c0,2.6-1,4.6-2.9,6.1c-1.9,1.5-4.6,2.2-7.9,2.2c-3.6,0-6.5-0.8-8.5-2.5
	c-2-1.7-3.1-4.1-3.1-7.3l0,0h4.2l0,0c0,2,0.7,3.6,1.9,4.6c1.2,1,3.1,1.5,5.5,1.5c2,0,3.6-0.4,4.7-1.2c1.1-0.8,1.6-1.9,1.6-3.4
	c0-1.2-0.5-2.1-1.3-2.8c-0.9-0.7-2.5-1.2-4.9-1.8l-2.4-0.5c-2.8-0.6-5-1.5-6.4-2.8c-1.4-1.3-2.2-3.1-2.2-5.4c0-2.3,0.9-4.1,2.6-5.5
	c1.8-1.4,4.2-2,7.1-2c3.6,0,6.4,0.8,8.2,2.3c1.8,1.5,2.8,3.7,2.8,6.4l0,0h-4.2l0,0c-0.1-1.8-0.7-3.1-1.7-3.9c-1-0.8-2.7-1.2-5-1.2
	c-1.8,0-3.2,0.3-4.1,1c-0.9,0.7-1.4,1.6-1.4,2.8c0,1.2,0.4,2.2,1.3,2.8c0.8,0.7,2.4,1.3,4.7,1.8l2.4,0.5c3.1,0.7,5.4,1.6,6.8,2.9
	C309.6,62.6,310.3,64.4,310.3,66.5z M334.9,66.5c0,2.6-1,4.6-2.9,6.1c-1.9,1.5-4.6,2.2-7.9,2.2c-3.6,0-6.5-0.8-8.5-2.5
	c-2-1.7-3.1-4.1-3.1-7.3l0,0h4.2l0,0c0,2,0.7,3.6,1.9,4.6c1.2,1,3.1,1.5,5.5,1.5c2,0,3.6-0.4,4.7-1.2c1.1-0.8,1.6-1.9,1.6-3.4
	c0-1.2-0.5-2.1-1.3-2.8c-0.9-0.7-2.5-1.2-4.9-1.8l-2.4-0.5c-2.8-0.6-5-1.5-6.4-2.8c-1.4-1.3-2.2-3.1-2.2-5.4c0-2.3,0.9-4.1,2.6-5.5
	c1.8-1.4,4.2-2,7.1-2c3.6,0,6.4,0.8,8.2,2.3c1.8,1.5,2.8,3.7,2.8,6.4l0,0H330l0,0c-0.1-1.8-0.7-3.1-1.7-3.9c-1-0.8-2.7-1.2-5-1.2
	c-1.8,0-3.2,0.3-4.1,1c-0.9,0.7-1.4,1.6-1.4,2.8c0,1.2,0.4,2.2,1.3,2.8c0.8,0.7,2.4,1.3,4.7,1.8l2.4,0.5c3.1,0.7,5.4,1.6,6.8,2.9
	C334.2,62.6,334.9,64.4,334.9,66.5z M276.2,46.5h-4.8l-10.8,27.6h4.4l2.7-7.2h12.3l2.7,7.2h4.4L276.2,46.5z M269,63.3l4.8-12.7
	l4.8,12.7H269z"/>
</svg>
